<svg width="18" height="18" viewBox="0 0 18 18" fill="none" xmlns="http://www.w3.org/2000/svg">
<path d="M3.23984 1.02239L4.08359 1.75125C4.14464 1.80399 4.21954 1.83811 4.2994 1.84957C4.37925 1.86104 4.46072 1.84937 4.53415 1.81594C5.53959 1.36057 6.63063 1.12501 7.73439 1.12501C8.83814 1.12501 9.92919 1.36057 10.9346 1.81594C11.0081 1.84937 11.0895 1.86104 11.1694 1.84957C11.2492 1.83811 11.3241 1.80399 11.3852 1.75125L12.2289 1.02239C12.3136 0.949246 12.3658 0.845459 12.3739 0.733865C12.3821 0.62227 12.3455 0.512009 12.2724 0.427338C12.1992 0.342666 12.0955 0.29052 11.9839 0.282371C11.8723 0.274222 11.762 0.310738 11.6773 0.383885L11.0346 0.939107C9.98851 0.504818 8.86702 0.281265 7.73439 0.281265C6.60176 0.281265 5.48026 0.504818 4.4342 0.939107L3.79144 0.383885C3.70677 0.310738 3.59651 0.274222 3.48491 0.282371C3.37332 0.29052 3.26953 0.342666 3.19638 0.427338C3.12324 0.512009 3.08672 0.62227 3.09487 0.733865C3.10302 0.845459 3.15517 0.949246 3.23984 1.02239Z" fill="#206AA9"/>
<path d="M13.8699 5.34281L14.3821 4.91773C14.6978 4.65573 14.8965 4.27904 14.9345 3.87053C14.9725 3.46203 14.8466 3.05516 14.5846 2.73945C14.3226 2.42374 13.9459 2.22504 13.5374 2.18707C13.1289 2.14909 12.722 2.27495 12.4063 2.53695L11.9668 2.9018C12.7806 3.55811 13.4319 4.39348 13.8699 5.34281Z" fill="#206AA9"/>
<path d="M3.50283 2.90196L3.06313 2.53711C2.7472 2.27707 2.34111 2.1528 1.93375 2.19151C1.5264 2.23022 1.15098 2.42875 0.889682 2.74364C0.628382 3.05853 0.502492 3.46412 0.539572 3.87162C0.576652 4.27912 0.773681 4.65533 1.08752 4.91789L1.59975 5.34296C2.03772 4.39363 2.689 3.55826 3.50283 2.90196Z" fill="#206AA9"/>
<path d="M8.79173 12.6752C8.44512 12.7562 8.09033 12.797 7.73438 12.7969C5.17553 12.7969 3.09375 10.7151 3.09375 8.15625C3.09375 5.5974 5.17553 3.51562 7.73438 3.51562C10.2932 3.51562 12.375 5.5974 12.375 8.15625C12.375 8.42424 12.3519 8.69173 12.3058 8.95574C12.4223 8.84864 12.5747 8.78915 12.7329 8.78906H14.0309C14.0516 8.58087 14.0621 8.36993 14.0625 8.15625C14.0625 4.66692 11.2237 1.82812 7.73438 1.82812C4.24505 1.82812 1.40625 4.66692 1.40625 8.15625C1.40625 11.6456 4.24505 14.4844 7.73438 14.4844C8.08808 14.4843 8.44117 14.4547 8.78994 14.3959C8.78994 14.3896 8.78906 14.3834 8.78906 14.3771V12.7329C8.78906 12.7134 8.79001 12.6943 8.79173 12.6752Z" fill="#206AA9"/>
<path d="M10.828 7.73426H11.5076C11.4106 6.87881 11.0264 6.08153 10.4176 5.47277C9.80885 4.864 9.01158 4.47974 8.15613 4.38281V5.06238C8.15613 5.17427 8.11168 5.28158 8.03256 5.36069C7.95344 5.43981 7.84614 5.48426 7.73425 5.48426C7.62236 5.48426 7.51506 5.43981 7.43594 5.36069C7.35682 5.28158 7.31238 5.17427 7.31238 5.06238V4.38281C6.45693 4.47974 5.65965 4.864 5.05089 5.47277C4.44212 6.08153 4.05787 6.87881 3.96094 7.73426H4.64051C4.75239 7.73426 4.8597 7.77871 4.93882 7.85783C5.01793 7.93694 5.06238 8.04425 5.06238 8.15614C5.06238 8.26803 5.01793 8.37533 4.93882 8.45445C4.8597 8.53357 4.75239 8.57801 4.64051 8.57801H3.96094C4.05787 9.43347 4.44212 10.2307 5.05089 10.8395C5.65965 11.4483 6.45693 11.8325 7.31238 11.9295V11.2499C7.31238 11.138 7.35682 11.0307 7.43594 10.9516C7.51506 10.8725 7.62236 10.828 7.73425 10.828C7.84614 10.828 7.95344 10.8725 8.03256 10.9516C8.11168 11.0307 8.15613 11.138 8.15613 11.2499V11.9295C8.62479 11.8773 9.07949 11.7376 9.4966 11.5176C9.43087 11.3976 9.40578 11.2595 9.42507 11.1241C9.44436 10.9886 9.507 10.863 9.60361 10.7661L10.7662 9.60352C10.8365 9.53282 10.9226 9.47985 11.0175 9.44901C11.1123 9.41816 11.2131 9.41032 11.3116 9.42613C11.4095 9.15195 11.4752 8.86734 11.5076 8.57801H10.828C10.7161 8.57801 10.6088 8.53357 10.5297 8.45445C10.4506 8.37533 10.4061 8.26803 10.4061 8.15614C10.4061 8.04425 10.4506 7.93694 10.5297 7.85783C10.6088 7.77871 10.7161 7.73426 10.828 7.73426ZM10.2825 7.04819L8.03255 9.29819C7.95344 9.3773 7.84613 9.42175 7.73425 9.42175C7.62237 9.42175 7.51507 9.3773 7.43595 9.29819L6.0297 7.89194C5.95165 7.8126 5.90811 7.70564 5.90856 7.59435C5.90902 7.48306 5.95343 7.37645 6.03212 7.29776C6.11082 7.21906 6.21742 7.17465 6.32872 7.1742C6.44001 7.17374 6.54697 7.21728 6.6263 7.29534L7.73425 8.40325L9.68595 6.45159C9.76528 6.37353 9.87224 6.32999 9.98354 6.33044C10.0948 6.3309 10.2014 6.37531 10.2801 6.454C10.3588 6.5327 10.4032 6.63931 10.4037 6.7506C10.4041 6.86189 10.3606 6.96885 10.2825 7.04819Z" fill="#206AA9"/>
<path d="M17.714 12.5235L17.0414 12.4403L16.8085 11.8778L17.2252 11.3434C17.2569 11.3028 17.2726 11.2521 17.2694 11.2007C17.2663 11.1494 17.2444 11.1009 17.208 11.0646L16.0453 9.90193C16.0089 9.86556 15.9605 9.84374 15.9091 9.84058C15.8578 9.83743 15.8071 9.85314 15.7665 9.88478L15.2321 10.3015L14.6696 10.0685L14.5863 9.39596C14.58 9.34492 14.5553 9.29794 14.5167 9.26387C14.4782 9.22979 14.4285 9.21097 14.3771 9.21094H12.7329C12.6814 9.21093 12.6317 9.22974 12.5932 9.26382C12.5546 9.2979 12.5298 9.34489 12.5235 9.39596L12.4403 10.0685L11.8778 10.3015L11.3434 9.88478C11.3028 9.85314 11.2521 9.83743 11.2008 9.84058C11.1494 9.84374 11.101 9.86556 11.0646 9.90193L9.9019 11.0646C9.86551 11.101 9.84368 11.1494 9.84052 11.2008C9.83735 11.2522 9.85307 11.3029 9.88471 11.3435L10.3014 11.8779L10.0685 12.4404L9.39589 12.5236C9.34485 12.5299 9.29789 12.5547 9.26383 12.5932C9.22977 12.6318 9.21096 12.6814 9.21094 12.7329V14.3771C9.21093 14.4286 9.22974 14.4783 9.26382 14.5168C9.2979 14.5554 9.3449 14.5801 9.39596 14.5865L10.0685 14.6697L10.3015 15.2322L9.88478 15.7666C9.85314 15.8071 9.83742 15.8579 9.84059 15.9092C9.84375 15.9606 9.86558 16.009 9.90197 16.0454L11.0647 17.2081C11.101 17.2445 11.1495 17.2663 11.2008 17.2695C11.2522 17.2726 11.3029 17.2569 11.3435 17.2253L11.8779 16.8086L12.4404 17.0415L12.5236 17.7141C12.5299 17.7651 12.5547 17.8121 12.5932 17.8462C12.6318 17.8803 12.6815 17.8991 12.7329 17.8991H14.3772C14.4286 17.8991 14.4783 17.8803 14.5169 17.8462C14.5554 17.8121 14.5802 17.7651 14.5865 17.7141L14.6698 17.0415L15.2323 16.8086L15.7666 17.2253C15.8072 17.2569 15.8579 17.2726 15.9093 17.2695C15.9606 17.2663 16.0091 17.2445 16.0455 17.2081L17.208 16.0453C17.2444 16.0089 17.2663 15.9605 17.2694 15.9091C17.2726 15.8578 17.2569 15.807 17.2252 15.7665L16.8085 15.2321L17.0414 14.6696L17.714 14.5864C17.765 14.58 17.8121 14.5553 17.8461 14.5167C17.8802 14.4782 17.899 14.4285 17.899 14.377V12.7327C17.899 12.6813 17.8802 12.6317 17.8461 12.5931C17.812 12.5546 17.765 12.5298 17.714 12.5235ZM14.6937 14.6937C14.4685 14.9186 14.1817 15.0718 13.8695 15.1338C13.5573 15.1957 13.2338 15.1638 12.9398 15.0419C12.6457 14.92 12.3944 14.7137 12.2176 14.4491C12.0408 14.1844 11.9465 13.8733 11.9465 13.555C11.9465 13.2367 12.0408 12.9256 12.2176 12.6609C12.3944 12.3962 12.6457 12.1899 12.9398 12.0681C13.2338 11.9462 13.5573 11.9142 13.8695 11.9762C14.1817 12.0382 14.4685 12.1913 14.6937 12.4163C14.9952 12.7186 15.1646 13.1281 15.1646 13.555C15.1646 13.9819 14.9952 14.3914 14.6937 14.6937Z" fill="#206AA9" fill-opacity="0.5"/>
</svg>
