<svg width="35" height="35" viewBox="0 0 35 35" fill="none" xmlns="http://www.w3.org/2000/svg">
<rect width="35" height="35" rx="17.5" fill="url(#paint0_linear)"/>
<path fill-rule="evenodd" clip-rule="evenodd" d="M23.2906 11.9121C23.2906 15.1245 20.7149 17.7003 17.5003 17.7003C14.2867 17.7003 11.71 15.1245 11.71 11.9121C11.71 8.69971 14.2867 6.125 17.5003 6.125C20.7149 6.125 23.2906 8.69971 23.2906 11.9121ZM17.5 28.0001C12.7557 28.0001 8.75 27.229 8.75 24.254C8.75 21.2778 12.7809 20.5341 17.5 20.5341C22.2454 20.5341 26.25 21.3052 26.25 24.2802C26.25 27.2563 22.2191 28.0001 17.5 28.0001Z" fill="white"/>
<defs>
<linearGradient id="paint0_linear" x1="33.6427" y1="-2.98723e-07" x2="39.0024" y2="34.2213" gradientUnits="userSpaceOnUse">
<stop stop-color="#47A4FF"/>
<stop offset="1" stop-color="#2482DC"/>
</linearGradient>
</defs>
</svg>
