<svg width="1440" height="665" viewBox="0 0 1440 665" fill="none" xmlns="http://www.w3.org/2000/svg">
<rect width="1440" height="664" fill="url(#paint0_linear)"/>
<g style="mix-blend-mode:multiply" opacity="0.1" clip-path="url(#clip0)">
<path fill-rule="evenodd" clip-rule="evenodd" d="M1440 664.125V637.608H1435.83V632.827H1416.03V637.608H1410.8V621.48V614.731L1399.15 621.48H1384.49V601.723H1375.59V586.594H1367.32V550.576H1365.32V586.594H1351.03V601.723H1335.18V528.688H1330.8L1322.52 519.686V515.679H1315.51V509.675H1270.39V500.673H1262.88V509.675H1249.84V515.679H1242.07V528.688H1234.74V574.962H1228.1V539.188H1222.87V496.319H1218.63V457.936H1203.4V496.309H1199.15V539.178H1193.92V589.214H1187.28V559.374H1181.18V521.5L1173.86 510.276H1169.24V496.228H1168.15V510.276H1167.05V501.437H1165.95V510.276H1162.85V559.374H1157.75V548.384V547.517V542.889L1147.52 532.603H1140.56V454.215L1144.72 450.086V445.845H1135.08V422.958H1132.39V420.919L1122.17 410.643H1118.69V400.805L1106.64 394.138H1096.92V373.575H1095.18V394.138H1084.3V422.958H1080.82V453.114H1075.84V547.507V597.655H1070.13V508.767H1066.6V485.992H1063.24V482.985H1059.88V480.874H1057.08V478.764H1054.06V466.439H1053.21V478.764H1050.19V480.874H1047.39V482.985H1044.03V485.992H1040.67V508.767H1037.14V559.853H1026.32V575.064H1022.3V434.315H1020.33V430.767H1019.01V428.402H1010.84V411.367H1010.06V428.392H1002.48V427.27H998.328V428.392H978.04V422.734H970.787V409.195H970.001V422.744H961.175V428.402H957.354V430.767H955.505V434.315H953.268V531.879H947.885V589.428H941.388V498.491H931.377V434.845H926.371V407.228H922.285V388.683V374.349V367.641H913.786V366H900.608V367.641H896.981V374.349H879.452V390.783H866.274V434.835H861.268V505.056H847.57V589.418H843.259V519.268H831.94V526.221H818.732V589.418H810.365V482.241H803.725L751.331 422.693V568.407H732.044V550.739H730.307V568.407H725.68V604.18H721.379V441.88H700.448V464.114H697.24L700.448 473.585V583.016H697.771V560.577H684.798V410.582H677.882V420.511H640.698V541.594H628.593V512.254L616.488 508.584V455.296L604.811 446.233V416.902H600.919V443.225V458.324V503.853L588.814 500.173V541.594H576.709V516.566V505.352H564.604V501.04H555.093V490.682H550.772V501.04H541.262V505.352H532.619V516.566H520.514V555.612H510.564V546.549H503.434V555.612H500.625V470.833L451.336 467.377L453.828 538.995H435.124V447.752H395.345L372.871 462.422L365.302 461.994V591.854H350.387V556.479H344.983V542.889H324.011V529.085H321.631V542.889H316.013V556.479H310.609V578.917H298.503V551.31H292.231V546.131C292.231 542.685 289.412 539.871 285.959 539.871H271.259C267.806 539.871 264.987 542.685 264.987 546.131V551.31H258.715V563.177H224.35V524.559L221.326 523.295V480.344L219.375 482.026V466.143L215.922 459.394V484.983L213.971 486.665V520.206L210.947 518.931V585.595H198.199V499.307H159.074V604.577H148.266V576.104H143.301V585.32L119.091 576.246V506.208H115.413V500.163H111.092V495.422H106.771V490.672H102.879V486.359H100.713V469.099H98.3332V486.359H96.1675V490.672H92.2755V495.422H87.9544V500.163H83.6333V506.208H79.9557V579.549H34.579V554.96H27.6632V602.855H13.8316V605.658H12.3197V607.605H9.08147L11.002 618.391H0V664.125H1440Z" fill="url(#paint1_linear)"/>
<path fill-rule="evenodd" clip-rule="evenodd" d="M471.9 575.919H474.72V570.781H471.9V575.919Z" fill="white"/>
<path fill-rule="evenodd" clip-rule="evenodd" d="M471.9 542.308H474.72V537.17H471.9V542.308Z" fill="white"/>
<path fill-rule="evenodd" clip-rule="evenodd" d="M471.9 564.714H474.72V559.576H471.9V564.714Z" fill="white"/>
<path fill-rule="evenodd" clip-rule="evenodd" d="M471.9 531.103H474.72V525.965H471.9V531.103Z" fill="white"/>
<path fill-rule="evenodd" clip-rule="evenodd" d="M471.9 497.481H474.72V492.354H471.9V497.481Z" fill="white"/>
<path fill-rule="evenodd" clip-rule="evenodd" d="M471.9 508.685H474.72V503.557H471.9V508.685Z" fill="white"/>
<path fill-rule="evenodd" clip-rule="evenodd" d="M481.074 587.122H483.883V581.984H481.074V587.122Z" fill="white"/>
<path fill-rule="evenodd" clip-rule="evenodd" d="M481.074 553.511H483.883V548.373H481.074V553.511Z" fill="white"/>
<path fill-rule="evenodd" clip-rule="evenodd" d="M481.074 542.308H483.883V537.17H481.074V542.308Z" fill="white"/>
<path fill-rule="evenodd" clip-rule="evenodd" d="M481.074 564.714H483.883V559.576H481.074V564.714Z" fill="white"/>
<path fill-rule="evenodd" clip-rule="evenodd" d="M481.074 519.9H483.883V514.762H481.074V519.9Z" fill="white"/>
<path fill-rule="evenodd" clip-rule="evenodd" d="M481.074 486.276H483.883V481.148H481.074V486.276Z" fill="white"/>
<path fill-rule="evenodd" clip-rule="evenodd" d="M481.074 508.685H483.883V503.557H481.074V508.685Z" fill="white"/>
<path fill-rule="evenodd" clip-rule="evenodd" d="M490.707 575.919H493.516V570.781H490.707V575.919Z" fill="white"/>
<path fill-rule="evenodd" clip-rule="evenodd" d="M490.707 553.511H493.516V548.373H490.707V553.511Z" fill="white"/>
<path fill-rule="evenodd" clip-rule="evenodd" d="M490.707 542.308H493.516V537.17H490.707V542.308Z" fill="white"/>
<path fill-rule="evenodd" clip-rule="evenodd" d="M490.707 564.714H493.516V559.576H490.707V564.714Z" fill="white"/>
<path fill-rule="evenodd" clip-rule="evenodd" d="M490.707 531.103H493.516V525.965H490.707V531.103Z" fill="white"/>
<path fill-rule="evenodd" clip-rule="evenodd" d="M490.707 497.481H493.516V492.354H490.707V497.481Z" fill="white"/>
<path fill-rule="evenodd" clip-rule="evenodd" d="M490.707 486.276H493.516V481.148H490.707V486.276Z" fill="white"/>
<path fill-rule="evenodd" clip-rule="evenodd" d="M490.707 508.685H493.516V503.557H490.707V508.685Z" fill="white"/>
<path fill-rule="evenodd" clip-rule="evenodd" d="M677.301 447.588H674.492V452.726H677.301V447.588Z" fill="white"/>
<path fill-rule="evenodd" clip-rule="evenodd" d="M677.301 481.211H674.492V486.339H677.301V481.211Z" fill="white"/>
<path fill-rule="evenodd" clip-rule="evenodd" d="M677.301 458.791H674.492V463.929H677.301V458.791Z" fill="white"/>
<path fill-rule="evenodd" clip-rule="evenodd" d="M677.301 492.414H674.492V497.542H677.301V492.414Z" fill="white"/>
<path fill-rule="evenodd" clip-rule="evenodd" d="M677.301 526.025H674.492V531.164H677.301V526.025Z" fill="white"/>
<path fill-rule="evenodd" clip-rule="evenodd" d="M677.301 514.822H674.492V519.96H677.301V514.822Z" fill="white"/>
<path fill-rule="evenodd" clip-rule="evenodd" d="M668.138 436.383H665.318V441.521H668.138V436.383Z" fill="white"/>
<path fill-rule="evenodd" clip-rule="evenodd" d="M668.138 469.996H665.318V475.134H668.138V469.996Z" fill="white"/>
<path fill-rule="evenodd" clip-rule="evenodd" d="M668.138 481.211H665.318V486.339H668.138V481.211Z" fill="white"/>
<path fill-rule="evenodd" clip-rule="evenodd" d="M668.138 458.791H665.318V463.929H668.138V458.791Z" fill="white"/>
<path fill-rule="evenodd" clip-rule="evenodd" d="M668.138 503.619H665.318V508.747H668.138V503.619Z" fill="white"/>
<path fill-rule="evenodd" clip-rule="evenodd" d="M668.138 537.23H665.318V542.369H668.138V537.23Z" fill="white"/>
<path fill-rule="evenodd" clip-rule="evenodd" d="M668.138 514.822H665.318V519.96H668.138V514.822Z" fill="white"/>
<path fill-rule="evenodd" clip-rule="evenodd" d="M658.505 447.588H655.686V452.726H658.505V447.588Z" fill="white"/>
<path fill-rule="evenodd" clip-rule="evenodd" d="M658.505 469.996H655.686V475.134H658.505V469.996Z" fill="white"/>
<path fill-rule="evenodd" clip-rule="evenodd" d="M658.505 481.211H655.686V486.339H658.505V481.211Z" fill="white"/>
<path fill-rule="evenodd" clip-rule="evenodd" d="M658.505 458.791H655.686V463.929H658.505V458.791Z" fill="white"/>
<path fill-rule="evenodd" clip-rule="evenodd" d="M658.505 492.414H655.686V497.542H658.505V492.414Z" fill="white"/>
<path fill-rule="evenodd" clip-rule="evenodd" d="M658.505 526.025H655.686V531.164H658.505V526.025Z" fill="white"/>
<path fill-rule="evenodd" clip-rule="evenodd" d="M658.505 537.23H655.686V542.369H658.505V537.23Z" fill="white"/>
<path fill-rule="evenodd" clip-rule="evenodd" d="M658.505 514.822H655.686V519.96H658.505V514.822Z" fill="white"/>
<path fill-rule="evenodd" clip-rule="evenodd" d="M677.301 559.904H674.492V565.042H677.301V559.904Z" fill="white"/>
<path fill-rule="evenodd" clip-rule="evenodd" d="M677.301 571.107H674.492V576.246H677.301V571.107Z" fill="white"/>
<path fill-rule="evenodd" clip-rule="evenodd" d="M668.138 548.699H665.318V553.837H668.138V548.699Z" fill="white"/>
<path fill-rule="evenodd" clip-rule="evenodd" d="M668.138 559.904H665.318V565.042H668.138V559.904Z" fill="white"/>
<path fill-rule="evenodd" clip-rule="evenodd" d="M668.138 582.311H665.318V587.449H668.138V582.311Z" fill="white"/>
<path fill-rule="evenodd" clip-rule="evenodd" d="M658.505 559.904H655.686V565.042H658.505V559.904Z" fill="white"/>
<path fill-rule="evenodd" clip-rule="evenodd" d="M658.505 571.107H655.686V576.246H658.505V571.107Z" fill="white"/>
<path fill-rule="evenodd" clip-rule="evenodd" d="M658.505 593.516H655.686V598.654H658.505V593.516Z" fill="white"/>
<path fill-rule="evenodd" clip-rule="evenodd" d="M37.1543 593.066H41.1689V596.298H37.1543V593.066Z" fill="white"/>
<path fill-rule="evenodd" clip-rule="evenodd" d="M37.1543 599.244H41.1689V602.476H37.1543V599.244Z" fill="white"/>
<path fill-rule="evenodd" clip-rule="evenodd" d="M37.1543 611.611H41.1689V614.843H37.1543V611.611Z" fill="white"/>
<path fill-rule="evenodd" clip-rule="evenodd" d="M37.1543 617.789H41.1689V621.031H37.1543V617.789Z" fill="white"/>
<path fill-rule="evenodd" clip-rule="evenodd" d="M49.209 599.244H53.2338V602.476H49.209V599.244Z" fill="white"/>
<path fill-rule="evenodd" clip-rule="evenodd" d="M49.209 605.434H53.2338V608.665H49.209V605.434Z" fill="white"/>
<path fill-rule="evenodd" clip-rule="evenodd" d="M49.209 617.789H53.2338V621.031H49.209V617.789Z" fill="white"/>
<path fill-rule="evenodd" clip-rule="evenodd" d="M61.3027 593.066H65.3174V596.298H61.3027V593.066Z" fill="white"/>
<path fill-rule="evenodd" clip-rule="evenodd" d="M61.3027 611.611H65.3174V614.843H61.3027V611.611Z" fill="white"/>
<path fill-rule="evenodd" clip-rule="evenodd" d="M61.3027 617.789H65.3174V621.031H61.3027V617.789Z" fill="white"/>
<path fill-rule="evenodd" clip-rule="evenodd" d="M73.8984 599.244H77.9131V602.476H73.8984V599.244Z" fill="white"/>
<path fill-rule="evenodd" clip-rule="evenodd" d="M73.8984 605.434H77.9131V608.665H73.8984V605.434Z" fill="white"/>
<path fill-rule="evenodd" clip-rule="evenodd" d="M73.8984 617.789H77.9131V621.031H73.8984V617.789Z" fill="white"/>
<path fill-rule="evenodd" clip-rule="evenodd" d="M704.463 454.143H707.282V459.281H704.463V454.143Z" fill="white"/>
<path fill-rule="evenodd" clip-rule="evenodd" d="M704.463 465.348H707.282V470.486H704.463V465.348Z" fill="white"/>
<path fill-rule="evenodd" clip-rule="evenodd" d="M704.463 487.756H707.282V492.894H704.463V487.756Z" fill="white"/>
<path fill-rule="evenodd" clip-rule="evenodd" d="M713.637 454.143H716.446V459.281H713.637V454.143Z" fill="white"/>
<path fill-rule="evenodd" clip-rule="evenodd" d="M713.637 476.551H716.446V481.689H713.637V476.551Z" fill="white"/>
<path fill-rule="evenodd" clip-rule="evenodd" d="M713.637 487.756H716.446V492.894H713.637V487.756Z" fill="white"/>
<path fill-rule="evenodd" clip-rule="evenodd" d="M593.934 540.736H596.743V545.864H593.934V540.736Z" fill="white"/>
<path fill-rule="evenodd" clip-rule="evenodd" d="M603.096 518.318H605.915V523.456H603.096V518.318Z" fill="white"/>
<path fill-rule="evenodd" clip-rule="evenodd" d="M603.096 529.533H605.915V534.661H603.096V529.533Z" fill="white"/>
<path fill-rule="evenodd" clip-rule="evenodd" d="M612.729 518.318H615.548V523.456H612.729V518.318Z" fill="white"/>
<path fill-rule="evenodd" clip-rule="evenodd" d="M612.729 529.533H615.548V534.661H612.729V529.533Z" fill="white"/>
<path fill-rule="evenodd" clip-rule="evenodd" d="M612.729 540.736H615.548V545.864H612.729V540.736Z" fill="white"/>
<path fill-rule="evenodd" clip-rule="evenodd" d="M603.096 551.574H605.915V556.712H603.096V551.574Z" fill="white"/>
<path fill-rule="evenodd" clip-rule="evenodd" d="M612.729 551.574H615.548V556.712H612.729V551.574Z" fill="white"/>
<path fill-rule="evenodd" clip-rule="evenodd" d="M612.729 562.777H615.548V567.915H612.729V562.777Z" fill="white"/>
<path fill-rule="evenodd" clip-rule="evenodd" d="M404.121 473.492H406.941V478.62H404.121V473.492Z" fill="white"/>
<path fill-rule="evenodd" clip-rule="evenodd" d="M404.121 495.891H406.941V501.029H404.121V495.891Z" fill="white"/>
<path fill-rule="evenodd" clip-rule="evenodd" d="M404.121 484.686H406.941V489.824H404.121V484.686Z" fill="white"/>
<path fill-rule="evenodd" clip-rule="evenodd" d="M404.121 518.309H406.941V523.437H404.121V518.309Z" fill="white"/>
<path fill-rule="evenodd" clip-rule="evenodd" d="M404.121 551.92H406.941V557.058H404.121V551.92Z" fill="white"/>
<path fill-rule="evenodd" clip-rule="evenodd" d="M404.121 540.717H406.941V545.845H404.121V540.717Z" fill="white"/>
<path fill-rule="evenodd" clip-rule="evenodd" d="M412.875 462.279H415.694V467.417H412.875V462.279Z" fill="white"/>
<path fill-rule="evenodd" clip-rule="evenodd" d="M412.875 507.094H415.694V512.232H412.875V507.094Z" fill="white"/>
<path fill-rule="evenodd" clip-rule="evenodd" d="M412.875 484.686H415.694V489.824H412.875V484.686Z" fill="white"/>
<path fill-rule="evenodd" clip-rule="evenodd" d="M412.875 518.309H415.694V523.437H412.875V518.309Z" fill="white"/>
<path fill-rule="evenodd" clip-rule="evenodd" d="M412.875 563.125H415.694V568.263H412.875V563.125Z" fill="white"/>
<path fill-rule="evenodd" clip-rule="evenodd" d="M422.467 462.279H425.276V467.417H422.467V462.279Z" fill="white"/>
<path fill-rule="evenodd" clip-rule="evenodd" d="M422.467 473.492H425.276V478.62H422.467V473.492Z" fill="white"/>
<path fill-rule="evenodd" clip-rule="evenodd" d="M422.467 507.094H425.276V512.232H422.467V507.094Z" fill="white"/>
<path fill-rule="evenodd" clip-rule="evenodd" d="M422.467 484.686H425.276V489.824H422.467V484.686Z" fill="white"/>
<path fill-rule="evenodd" clip-rule="evenodd" d="M422.467 518.309H425.276V523.437H422.467V518.309Z" fill="white"/>
<path fill-rule="evenodd" clip-rule="evenodd" d="M422.467 551.92H425.276V557.058H422.467V551.92Z" fill="white"/>
<path fill-rule="evenodd" clip-rule="evenodd" d="M422.467 540.717H425.276V545.845H422.467V540.717Z" fill="white"/>
<path fill-rule="evenodd" clip-rule="evenodd" d="M180.557 510.244H182.835V515.087H180.557V510.244Z" fill="white"/>
<path fill-rule="evenodd" clip-rule="evenodd" d="M180.557 519.512H182.835V524.354H180.557V519.512Z" fill="white"/>
<path fill-rule="evenodd" clip-rule="evenodd" d="M180.557 528.758H182.835V533.6H180.557V528.758Z" fill="white"/>
<path fill-rule="evenodd" clip-rule="evenodd" d="M180.557 538.025H182.835V542.868H180.557V538.025Z" fill="white"/>
<path fill-rule="evenodd" clip-rule="evenodd" d="M180.557 547.283H182.835V552.126H180.557V547.283Z" fill="white"/>
<path fill-rule="evenodd" clip-rule="evenodd" d="M187.402 519.512H189.691V524.354H187.402V519.512Z" fill="white"/>
<path fill-rule="evenodd" clip-rule="evenodd" d="M187.402 528.758H189.691V533.6H187.402V528.758Z" fill="white"/>
<path fill-rule="evenodd" clip-rule="evenodd" d="M187.402 547.283H189.691V552.126H187.402V547.283Z" fill="white"/>
<path fill-rule="evenodd" clip-rule="evenodd" d="M88.834 514.496H91.0098V518.462H88.834V514.496Z" fill="white"/>
<path fill-rule="evenodd" clip-rule="evenodd" d="M88.834 540.482H91.0098V544.448H88.834V540.482Z" fill="white"/>
<path fill-rule="evenodd" clip-rule="evenodd" d="M88.834 523.15H91.0098V527.126H88.834V523.15Z" fill="white"/>
<path fill-rule="evenodd" clip-rule="evenodd" d="M88.834 549.148H91.0098V553.114H88.834V549.148Z" fill="white"/>
<path fill-rule="evenodd" clip-rule="evenodd" d="M88.834 575.135H91.0098V579.101H88.834V575.135Z" fill="white"/>
<path fill-rule="evenodd" clip-rule="evenodd" d="M88.834 566.469H91.0098V570.445H88.834V566.469Z" fill="white"/>
<path fill-rule="evenodd" clip-rule="evenodd" d="M95.9238 531.816H98.1099V535.792H95.9238V531.816Z" fill="white"/>
<path fill-rule="evenodd" clip-rule="evenodd" d="M95.9238 540.482H98.1099V544.448H95.9238V540.482Z" fill="white"/>
<path fill-rule="evenodd" clip-rule="evenodd" d="M95.9238 523.15H98.1099V527.126H95.9238V523.15Z" fill="white"/>
<path fill-rule="evenodd" clip-rule="evenodd" d="M95.9238 557.812H98.1099V561.778H95.9238V557.812Z" fill="white"/>
<path fill-rule="evenodd" clip-rule="evenodd" d="M95.9238 566.469H98.1099V570.445H95.9238V566.469Z" fill="white"/>
<path fill-rule="evenodd" clip-rule="evenodd" d="M103.381 514.496H105.547V518.462H103.381V514.496Z" fill="white"/>
<path fill-rule="evenodd" clip-rule="evenodd" d="M103.381 531.816H105.547V535.792H103.381V531.816Z" fill="white"/>
<path fill-rule="evenodd" clip-rule="evenodd" d="M103.381 540.482H105.547V544.448H103.381V540.482Z" fill="white"/>
<path fill-rule="evenodd" clip-rule="evenodd" d="M103.381 523.15H105.547V527.126H103.381V523.15Z" fill="white"/>
<path fill-rule="evenodd" clip-rule="evenodd" d="M103.381 575.135H105.547V579.101H103.381V575.135Z" fill="white"/>
<path fill-rule="evenodd" clip-rule="evenodd" d="M103.381 583.801H105.547V587.767H103.381V583.801Z" fill="white"/>
<path fill-rule="evenodd" clip-rule="evenodd" d="M103.381 566.469H105.547V570.445H103.381V566.469Z" fill="white"/>
<path fill-rule="evenodd" clip-rule="evenodd" d="M276.389 583.004V580.354H281.251V583.004H276.389Z" fill="white"/>
<path fill-rule="evenodd" clip-rule="evenodd" d="M265.805 583.004V580.354H270.657V583.004H265.805Z" fill="white"/>
<path fill-rule="evenodd" clip-rule="evenodd" d="M255.211 574.369V571.719H260.063V574.369H255.211Z" fill="white"/>
<path fill-rule="evenodd" clip-rule="evenodd" d="M265.805 574.369V571.719H270.657V574.369H265.805Z" fill="white"/>
<path fill-rule="evenodd" clip-rule="evenodd" d="M276.389 565.307V562.656H281.251V565.307H276.389Z" fill="white"/>
<path fill-rule="evenodd" clip-rule="evenodd" d="M286.982 565.307V562.656H291.835V565.307H286.982Z" fill="white"/>
<path fill-rule="evenodd" clip-rule="evenodd" d="M265.805 565.307V562.656H270.657V565.307H265.805Z" fill="white"/>
<path fill-rule="evenodd" clip-rule="evenodd" d="M245.549 583.004V580.354H250.401V583.004H245.549Z" fill="white"/>
<path fill-rule="evenodd" clip-rule="evenodd" d="M234.955 583.004V580.354H239.807V583.004H234.955Z" fill="white"/>
<path fill-rule="evenodd" clip-rule="evenodd" d="M213.686 574.799H215.259V577.674H213.686V574.799Z" fill="white"/>
<path fill-rule="evenodd" clip-rule="evenodd" d="M213.686 568.539H215.259V571.404H213.686V568.539Z" fill="white"/>
<path fill-rule="evenodd" clip-rule="evenodd" d="M218.803 562.279H220.376V565.144H218.803V562.279Z" fill="white"/>
<path fill-rule="evenodd" clip-rule="evenodd" d="M218.803 568.539H220.376V571.404H218.803V568.539Z" fill="white"/>
<path fill-rule="evenodd" clip-rule="evenodd" d="M213.666 538.025H215.239V540.89H213.666V538.025Z" fill="white"/>
<path fill-rule="evenodd" clip-rule="evenodd" d="M213.666 544.285H215.239V547.16H213.666V544.285Z" fill="white"/>
<path fill-rule="evenodd" clip-rule="evenodd" d="M213.666 531.766H215.239V534.63H213.666V531.766Z" fill="white"/>
<path fill-rule="evenodd" clip-rule="evenodd" d="M213.686 556.559H215.259V559.434H213.686V556.559Z" fill="white"/>
<path fill-rule="evenodd" clip-rule="evenodd" d="M213.686 550.301H215.259V553.166H213.686V550.301Z" fill="white"/>
<path fill-rule="evenodd" clip-rule="evenodd" d="M320.355 575.857H323.165V580.996H320.355V575.857Z" fill="white"/>
<path fill-rule="evenodd" clip-rule="evenodd" d="M320.355 587.062H323.165V592.201H320.355V587.062Z" fill="white"/>
<path fill-rule="evenodd" clip-rule="evenodd" d="M320.355 609.471H323.165V614.609H320.355V609.471Z" fill="white"/>
<path fill-rule="evenodd" clip-rule="evenodd" d="M329.52 564.654H332.339V569.782H329.52V564.654Z" fill="white"/>
<path fill-rule="evenodd" clip-rule="evenodd" d="M329.52 575.857H332.339V580.996H329.52V575.857Z" fill="white"/>
<path fill-rule="evenodd" clip-rule="evenodd" d="M329.52 598.266H332.339V603.404H329.52V598.266Z" fill="white"/>
<path fill-rule="evenodd" clip-rule="evenodd" d="M329.52 609.471H332.339V614.609H329.52V609.471Z" fill="white"/>
<path fill-rule="evenodd" clip-rule="evenodd" d="M339.152 564.654H341.972V569.782H339.152V564.654Z" fill="white"/>
<path fill-rule="evenodd" clip-rule="evenodd" d="M339.152 575.857H341.972V580.996H339.152V575.857Z" fill="white"/>
<path fill-rule="evenodd" clip-rule="evenodd" d="M339.152 587.062H341.972V592.201H339.152V587.062Z" fill="white"/>
<path fill-rule="evenodd" clip-rule="evenodd" d="M339.152 609.471H341.972V614.609H339.152V609.471Z" fill="white"/>
<path fill-rule="evenodd" clip-rule="evenodd" d="M437.934 610.438H440.63V605.504H437.934V610.438Z" fill="white"/>
<path fill-rule="evenodd" clip-rule="evenodd" d="M437.934 599.684H440.63V594.76H437.934V599.684Z" fill="white"/>
<path fill-rule="evenodd" clip-rule="evenodd" d="M447.178 610.438H449.875V605.504H447.178V610.438Z" fill="white"/>
<path fill-rule="evenodd" clip-rule="evenodd" d="M447.178 599.684H449.875V594.76H447.178V599.684Z" fill="white"/>
<path fill-rule="evenodd" clip-rule="evenodd" d="M447.178 588.938H449.875V584.004H447.178V588.938Z" fill="white"/>
<path fill-rule="evenodd" clip-rule="evenodd" d="M437.934 578.53H440.63V573.605H437.934V578.53Z" fill="white"/>
<path fill-rule="evenodd" clip-rule="evenodd" d="M447.178 578.53H449.875V573.605H447.178V578.53Z" fill="white"/>
<path fill-rule="evenodd" clip-rule="evenodd" d="M447.178 567.774H449.875V562.85H447.178V567.774Z" fill="white"/>
<path fill-rule="evenodd" clip-rule="evenodd" d="M530.221 525.73H534.143V528.881H530.221V525.73Z" fill="white"/>
<path fill-rule="evenodd" clip-rule="evenodd" d="M530.221 531.756H534.143V534.906H530.221V531.756Z" fill="white"/>
<path fill-rule="evenodd" clip-rule="evenodd" d="M530.221 543.807H534.143V546.957H530.221V543.807Z" fill="white"/>
<path fill-rule="evenodd" clip-rule="evenodd" d="M541.967 531.756H545.89V534.906H541.967V531.756Z" fill="white"/>
<path fill-rule="evenodd" clip-rule="evenodd" d="M541.967 537.781H545.89V540.931H541.967V537.781Z" fill="white"/>
<path fill-rule="evenodd" clip-rule="evenodd" d="M541.967 549.83H545.89V552.98H541.967V549.83Z" fill="white"/>
<path fill-rule="evenodd" clip-rule="evenodd" d="M553.756 525.73H557.668V528.881H553.756V525.73Z" fill="white"/>
<path fill-rule="evenodd" clip-rule="evenodd" d="M553.756 543.807H557.668V546.957H553.756V543.807Z" fill="white"/>
<path fill-rule="evenodd" clip-rule="evenodd" d="M553.756 549.83H557.668V552.98H553.756V549.83Z" fill="white"/>
<path fill-rule="evenodd" clip-rule="evenodd" d="M566.035 531.756H569.948V534.906H566.035V531.756Z" fill="white"/>
<path fill-rule="evenodd" clip-rule="evenodd" d="M566.035 537.781H569.948V540.931H566.035V537.781Z" fill="white"/>
<path fill-rule="evenodd" clip-rule="evenodd" d="M566.035 549.83H569.948V552.98H566.035V549.83Z" fill="white"/>
<path fill-rule="evenodd" clip-rule="evenodd" d="M530.221 589.203H534.143V586.053H530.221V589.203Z" fill="white"/>
<path fill-rule="evenodd" clip-rule="evenodd" d="M530.221 571.129H534.143V567.979H530.221V571.129Z" fill="white"/>
<path fill-rule="evenodd" clip-rule="evenodd" d="M530.221 565.103H534.143V561.953H530.221V565.103Z" fill="white"/>
<path fill-rule="evenodd" clip-rule="evenodd" d="M541.967 583.178H545.89V580.027H541.967V583.178Z" fill="white"/>
<path fill-rule="evenodd" clip-rule="evenodd" d="M541.967 577.152H545.89V574.002H541.967V577.152Z" fill="white"/>
<path fill-rule="evenodd" clip-rule="evenodd" d="M541.967 565.103H545.89V561.953H541.967V565.103Z" fill="white"/>
<path fill-rule="evenodd" clip-rule="evenodd" d="M553.756 589.203H557.668V586.053H553.756V589.203Z" fill="white"/>
<path fill-rule="evenodd" clip-rule="evenodd" d="M553.756 571.129H557.668V567.979H553.756V571.129Z" fill="white"/>
<path fill-rule="evenodd" clip-rule="evenodd" d="M566.035 583.178H569.948V580.027H566.035V583.178Z" fill="white"/>
<path fill-rule="evenodd" clip-rule="evenodd" d="M566.035 577.152H569.948V574.002H566.035V577.152Z" fill="white"/>
<path fill-rule="evenodd" clip-rule="evenodd" d="M566.035 565.103H569.948V561.953H566.035V565.103Z" fill="white"/>
<path fill-rule="evenodd" clip-rule="evenodd" d="M199.824 593.943H201.949V598.449H199.824V593.943Z" fill="white"/>
<path fill-rule="evenodd" clip-rule="evenodd" d="M199.824 602.559H201.949V607.054H199.824V602.559Z" fill="white"/>
<path fill-rule="evenodd" clip-rule="evenodd" d="M206.199 602.559H208.314V607.054H206.199V602.559Z" fill="white"/>
<path fill-rule="evenodd" clip-rule="evenodd" d="M1250.25 613.792H1253.06V608.654H1250.25V613.792Z" fill="white"/>
<path fill-rule="evenodd" clip-rule="evenodd" d="M1250.25 580.171H1253.06V575.043H1250.25V580.171Z" fill="white"/>
<path fill-rule="evenodd" clip-rule="evenodd" d="M1250.25 602.589H1253.06V597.451H1250.25V602.589Z" fill="white"/>
<path fill-rule="evenodd" clip-rule="evenodd" d="M1250.25 568.976H1253.06V563.838H1250.25V568.976Z" fill="white"/>
<path fill-rule="evenodd" clip-rule="evenodd" d="M1250.25 535.355H1253.06V530.227H1250.25V535.355Z" fill="white"/>
<path fill-rule="evenodd" clip-rule="evenodd" d="M1250.25 546.558H1253.06V541.43H1250.25V546.558Z" fill="white"/>
<path fill-rule="evenodd" clip-rule="evenodd" d="M1259.41 624.998H1262.23V619.859H1259.41V624.998Z" fill="white"/>
<path fill-rule="evenodd" clip-rule="evenodd" d="M1259.41 591.384H1262.23V586.246H1259.41V591.384Z" fill="white"/>
<path fill-rule="evenodd" clip-rule="evenodd" d="M1259.41 580.171H1262.23V575.043H1259.41V580.171Z" fill="white"/>
<path fill-rule="evenodd" clip-rule="evenodd" d="M1259.41 602.589H1262.23V597.451H1259.41V602.589Z" fill="white"/>
<path fill-rule="evenodd" clip-rule="evenodd" d="M1259.41 557.763H1262.23V552.635H1259.41V557.763Z" fill="white"/>
<path fill-rule="evenodd" clip-rule="evenodd" d="M1259.41 524.15H1262.23V519.012H1259.41V524.15Z" fill="white"/>
<path fill-rule="evenodd" clip-rule="evenodd" d="M1259.41 546.558H1262.23V541.43H1259.41V546.558Z" fill="white"/>
<path fill-rule="evenodd" clip-rule="evenodd" d="M1269.05 613.792H1271.87V608.654H1269.05V613.792Z" fill="white"/>
<path fill-rule="evenodd" clip-rule="evenodd" d="M1269.05 591.384H1271.87V586.246H1269.05V591.384Z" fill="white"/>
<path fill-rule="evenodd" clip-rule="evenodd" d="M1269.05 580.171H1271.87V575.043H1269.05V580.171Z" fill="white"/>
<path fill-rule="evenodd" clip-rule="evenodd" d="M1269.05 602.589H1271.87V597.451H1269.05V602.589Z" fill="white"/>
<path fill-rule="evenodd" clip-rule="evenodd" d="M1269.05 568.976H1271.87V563.838H1269.05V568.976Z" fill="white"/>
<path fill-rule="evenodd" clip-rule="evenodd" d="M1269.05 535.355H1271.87V530.227H1269.05V535.355Z" fill="white"/>
<path fill-rule="evenodd" clip-rule="evenodd" d="M1269.05 524.15H1271.87V519.012H1269.05V524.15Z" fill="white"/>
<path fill-rule="evenodd" clip-rule="evenodd" d="M1269.05 546.558H1271.87V541.43H1269.05V546.558Z" fill="white"/>
<path fill-rule="evenodd" clip-rule="evenodd" d="M962.096 440.553H966.11V443.784H962.096V440.553Z" fill="white"/>
<path fill-rule="evenodd" clip-rule="evenodd" d="M962.096 446.732H966.11V449.964H962.096V446.732Z" fill="white"/>
<path fill-rule="evenodd" clip-rule="evenodd" d="M962.096 459.098H966.11V462.329H962.096V459.098Z" fill="white"/>
<path fill-rule="evenodd" clip-rule="evenodd" d="M962.096 465.275H966.11V468.517H962.096V465.275Z" fill="white"/>
<path fill-rule="evenodd" clip-rule="evenodd" d="M974.148 446.732H978.163V449.964H974.148V446.732Z" fill="white"/>
<path fill-rule="evenodd" clip-rule="evenodd" d="M974.148 452.92H978.163V456.152H974.148V452.92Z" fill="white"/>
<path fill-rule="evenodd" clip-rule="evenodd" d="M974.148 465.275H978.163V468.517H974.148V465.275Z" fill="white"/>
<path fill-rule="evenodd" clip-rule="evenodd" d="M986.244 440.553H990.259V443.784H986.244V440.553Z" fill="white"/>
<path fill-rule="evenodd" clip-rule="evenodd" d="M986.244 459.098H990.259V462.329H986.244V459.098Z" fill="white"/>
<path fill-rule="evenodd" clip-rule="evenodd" d="M986.244 465.275H990.259V468.517H986.244V465.275Z" fill="white"/>
<path fill-rule="evenodd" clip-rule="evenodd" d="M998.84 446.732H1002.85V449.964H998.84V446.732Z" fill="white"/>
<path fill-rule="evenodd" clip-rule="evenodd" d="M998.84 452.92H1002.85V456.152H998.84V452.92Z" fill="white"/>
<path fill-rule="evenodd" clip-rule="evenodd" d="M998.84 465.275H1002.85V468.517H998.84V465.275Z" fill="white"/>
<path fill-rule="evenodd" clip-rule="evenodd" d="M1357.87 593.994H1360.69V599.122H1357.87V593.994Z" fill="white"/>
<path fill-rule="evenodd" clip-rule="evenodd" d="M1357.87 605.199H1360.69V610.327H1357.87V605.199Z" fill="white"/>
<path fill-rule="evenodd" clip-rule="evenodd" d="M1357.87 627.607H1360.69V632.735H1357.87V627.607Z" fill="white"/>
<path fill-rule="evenodd" clip-rule="evenodd" d="M1367.04 593.994H1369.86V599.122H1367.04V593.994Z" fill="white"/>
<path fill-rule="evenodd" clip-rule="evenodd" d="M1367.04 616.402H1369.86V621.53H1367.04V616.402Z" fill="white"/>
<path fill-rule="evenodd" clip-rule="evenodd" d="M1367.04 627.607H1369.86V632.735H1367.04V627.607Z" fill="white"/>
<path fill-rule="evenodd" clip-rule="evenodd" d="M1289.09 541.43H1291.9V546.558H1289.09V541.43Z" fill="white"/>
<path fill-rule="evenodd" clip-rule="evenodd" d="M1298.26 519.012H1301.07V524.15H1298.26V519.012Z" fill="white"/>
<path fill-rule="evenodd" clip-rule="evenodd" d="M1298.26 530.227H1301.07V535.355H1298.26V530.227Z" fill="white"/>
<path fill-rule="evenodd" clip-rule="evenodd" d="M1307.9 519.012H1310.71V524.15H1307.9V519.012Z" fill="white"/>
<path fill-rule="evenodd" clip-rule="evenodd" d="M1307.9 530.227H1310.71V535.355H1307.9V530.227Z" fill="white"/>
<path fill-rule="evenodd" clip-rule="evenodd" d="M1307.9 541.43H1310.71V546.558H1307.9V541.43Z" fill="white"/>
<path fill-rule="evenodd" clip-rule="evenodd" d="M1298.26 552.268H1301.07V557.406H1298.26V552.268Z" fill="white"/>
<path fill-rule="evenodd" clip-rule="evenodd" d="M1307.9 552.268H1310.71V557.406H1307.9V552.268Z" fill="white"/>
<path fill-rule="evenodd" clip-rule="evenodd" d="M1307.9 563.471H1310.71V568.609H1307.9V563.471Z" fill="white"/>
<path fill-rule="evenodd" clip-rule="evenodd" d="M1081.94 475.053H1084.75V480.191H1081.94V475.053Z" fill="white"/>
<path fill-rule="evenodd" clip-rule="evenodd" d="M1081.94 497.461H1084.75V502.599H1081.94V497.461Z" fill="white"/>
<path fill-rule="evenodd" clip-rule="evenodd" d="M1081.94 486.256H1084.75V491.394H1081.94V486.256Z" fill="white"/>
<path fill-rule="evenodd" clip-rule="evenodd" d="M1081.94 519.869H1084.75V525.007H1081.94V519.869Z" fill="white"/>
<path fill-rule="evenodd" clip-rule="evenodd" d="M1081.94 553.49H1084.75V558.618H1081.94V553.49Z" fill="white"/>
<path fill-rule="evenodd" clip-rule="evenodd" d="M1081.94 542.287H1084.75V547.415H1081.94V542.287Z" fill="white"/>
<path fill-rule="evenodd" clip-rule="evenodd" d="M1090.7 463.848H1093.5V468.986H1090.7V463.848Z" fill="white"/>
<path fill-rule="evenodd" clip-rule="evenodd" d="M1090.7 508.674H1093.5V513.802H1090.7V508.674Z" fill="white"/>
<path fill-rule="evenodd" clip-rule="evenodd" d="M1090.7 486.256H1093.5V491.394H1090.7V486.256Z" fill="white"/>
<path fill-rule="evenodd" clip-rule="evenodd" d="M1090.7 519.869H1093.5V525.007H1090.7V519.869Z" fill="white"/>
<path fill-rule="evenodd" clip-rule="evenodd" d="M1090.7 564.695H1093.5V569.823H1090.7V564.695Z" fill="white"/>
<path fill-rule="evenodd" clip-rule="evenodd" d="M1100.28 463.848H1103.1V468.986H1100.28V463.848Z" fill="white"/>
<path fill-rule="evenodd" clip-rule="evenodd" d="M1100.28 475.053H1103.1V480.191H1100.28V475.053Z" fill="white"/>
<path fill-rule="evenodd" clip-rule="evenodd" d="M1100.28 508.674H1103.1V513.802H1100.28V508.674Z" fill="white"/>
<path fill-rule="evenodd" clip-rule="evenodd" d="M1100.28 486.256H1103.1V491.394H1100.28V486.256Z" fill="white"/>
<path fill-rule="evenodd" clip-rule="evenodd" d="M1100.28 519.869H1103.1V525.007H1100.28V519.869Z" fill="white"/>
<path fill-rule="evenodd" clip-rule="evenodd" d="M1100.28 553.49H1103.1V558.618H1100.28V553.49Z" fill="white"/>
<path fill-rule="evenodd" clip-rule="evenodd" d="M1100.28 542.287H1103.1V547.415H1100.28V542.287Z" fill="white"/>
<path fill-rule="evenodd" clip-rule="evenodd" d="M878.594 487.959H880.872V492.801H878.594V487.959Z" fill="white"/>
<path fill-rule="evenodd" clip-rule="evenodd" d="M878.594 497.217H880.872V502.049H878.594V497.217Z" fill="white"/>
<path fill-rule="evenodd" clip-rule="evenodd" d="M878.594 515.73H880.872V520.573H878.594V515.73Z" fill="white"/>
<path fill-rule="evenodd" clip-rule="evenodd" d="M885.439 497.217H887.728V502.049H885.439V497.217Z" fill="white"/>
<path fill-rule="evenodd" clip-rule="evenodd" d="M885.439 506.473H887.728V511.315H885.439V506.473Z" fill="white"/>
<path fill-rule="evenodd" clip-rule="evenodd" d="M885.439 524.986H887.728V529.829H885.439V524.986Z" fill="white"/>
<path fill-rule="evenodd" clip-rule="evenodd" d="M760.709 471.016H763.375V475.879H760.709V471.016Z" fill="white"/>
<path fill-rule="evenodd" clip-rule="evenodd" d="M760.709 502.873H763.375V507.736H760.709V502.873Z" fill="white"/>
<path fill-rule="evenodd" clip-rule="evenodd" d="M760.709 481.629H763.375V486.502H760.709V481.629Z" fill="white"/>
<path fill-rule="evenodd" clip-rule="evenodd" d="M760.709 513.496H763.375V518.359H760.709V513.496Z" fill="white"/>
<path fill-rule="evenodd" clip-rule="evenodd" d="M760.709 545.355H763.375V550.218H760.709V545.355Z" fill="white"/>
<path fill-rule="evenodd" clip-rule="evenodd" d="M760.709 534.732H763.375V539.605H760.709V534.732Z" fill="white"/>
<path fill-rule="evenodd" clip-rule="evenodd" d="M769.402 492.252H772.069V497.125H769.402V492.252Z" fill="white"/>
<path fill-rule="evenodd" clip-rule="evenodd" d="M769.402 502.873H772.069V507.736H769.402V502.873Z" fill="white"/>
<path fill-rule="evenodd" clip-rule="evenodd" d="M769.402 481.629H772.069V486.502H769.402V481.629Z" fill="white"/>
<path fill-rule="evenodd" clip-rule="evenodd" d="M769.402 524.109H772.069V528.982H769.402V524.109Z" fill="white"/>
<path fill-rule="evenodd" clip-rule="evenodd" d="M769.402 534.732H772.069V539.605H769.402V534.732Z" fill="white"/>
<path fill-rule="evenodd" clip-rule="evenodd" d="M778.535 471.016H781.201V475.879H778.535V471.016Z" fill="white"/>
<path fill-rule="evenodd" clip-rule="evenodd" d="M778.535 492.252H781.201V497.125H778.535V492.252Z" fill="white"/>
<path fill-rule="evenodd" clip-rule="evenodd" d="M778.535 502.873H781.201V507.736H778.535V502.873Z" fill="white"/>
<path fill-rule="evenodd" clip-rule="evenodd" d="M778.535 481.629H781.201V486.502H778.535V481.629Z" fill="white"/>
<path fill-rule="evenodd" clip-rule="evenodd" d="M778.535 545.355H781.201V550.218H778.535V545.355Z" fill="white"/>
<path fill-rule="evenodd" clip-rule="evenodd" d="M778.535 555.979H781.201V560.841H778.535V555.979Z" fill="white"/>
<path fill-rule="evenodd" clip-rule="evenodd" d="M778.535 534.732H781.201V539.605H778.535V534.732Z" fill="white"/>
<path fill-rule="evenodd" clip-rule="evenodd" d="M1166.66 541.686H1168.14V544.387H1166.66V541.686Z" fill="white"/>
<path fill-rule="evenodd" clip-rule="evenodd" d="M1166.66 535.793H1168.14V538.495H1166.66V535.793Z" fill="white"/>
<path fill-rule="evenodd" clip-rule="evenodd" d="M1171.47 529.91H1172.96V532.602H1171.47V529.91Z" fill="white"/>
<path fill-rule="evenodd" clip-rule="evenodd" d="M1171.47 535.793H1172.96V538.495H1171.47V535.793Z" fill="white"/>
<path fill-rule="evenodd" clip-rule="evenodd" d="M1176.54 541.686H1178.02V544.387H1176.54V541.686Z" fill="white"/>
<path fill-rule="evenodd" clip-rule="evenodd" d="M1176.54 547.578H1178.02V550.28H1176.54V547.578Z" fill="white"/>
<path fill-rule="evenodd" clip-rule="evenodd" d="M1176.54 535.793H1178.02V538.495H1176.54V535.793Z" fill="white"/>
<path fill-rule="evenodd" clip-rule="evenodd" d="M1166.66 524.527H1168.14V527.229H1166.66V524.527Z" fill="white"/>
<path fill-rule="evenodd" clip-rule="evenodd" d="M1166.66 518.635H1168.14V521.336H1166.66V518.635Z" fill="white"/>
<path fill-rule="evenodd" clip-rule="evenodd" d="M878.594 467.539H881.025V471.984H878.594V467.539Z" fill="white"/>
<path fill-rule="evenodd" clip-rule="evenodd" d="M878.594 457.844H881.025V462.289H878.594V457.844Z" fill="white"/>
<path fill-rule="evenodd" clip-rule="evenodd" d="M886.533 448.148H888.964V452.593H886.533V448.148Z" fill="white"/>
<path fill-rule="evenodd" clip-rule="evenodd" d="M886.533 457.844H888.964V462.289H886.533V457.844Z" fill="white"/>
<path fill-rule="evenodd" clip-rule="evenodd" d="M878.562 410.592H880.994V415.037H878.562V410.592Z" fill="white"/>
<path fill-rule="evenodd" clip-rule="evenodd" d="M878.562 420.287H880.994V424.732H878.562V420.287Z" fill="white"/>
<path fill-rule="evenodd" clip-rule="evenodd" d="M878.562 400.885H880.994V405.33H878.562V400.885Z" fill="white"/>
<path fill-rule="evenodd" clip-rule="evenodd" d="M878.594 439.299H881.025V443.744H878.594V439.299Z" fill="white"/>
<path fill-rule="evenodd" clip-rule="evenodd" d="M878.594 429.594H881.025V434.049H878.594V429.594Z" fill="white"/>
<path fill-rule="evenodd" clip-rule="evenodd" d="M722.82 620.98H725.63V626.119H722.82V620.98Z" fill="white"/>
<path fill-rule="evenodd" clip-rule="evenodd" d="M731.994 576.164H734.803V581.302H731.994V576.164Z" fill="white"/>
<path fill-rule="evenodd" clip-rule="evenodd" d="M731.994 587.367H734.803V592.505H731.994V587.367Z" fill="white"/>
<path fill-rule="evenodd" clip-rule="evenodd" d="M731.994 609.775H734.803V614.914H731.994V609.775Z" fill="white"/>
<path fill-rule="evenodd" clip-rule="evenodd" d="M741.627 576.164H744.436V581.302H741.627V576.164Z" fill="white"/>
<path fill-rule="evenodd" clip-rule="evenodd" d="M741.627 587.367H744.436V592.505H741.627V587.367Z" fill="white"/>
<path fill-rule="evenodd" clip-rule="evenodd" d="M741.627 598.572H744.436V603.71H741.627V598.572Z" fill="white"/>
<path fill-rule="evenodd" clip-rule="evenodd" d="M1141.06 594.371H1143.76V589.447H1141.06V594.371Z" fill="white"/>
<path fill-rule="evenodd" clip-rule="evenodd" d="M1141.06 583.626H1143.76V578.691H1141.06V583.626Z" fill="white"/>
<path fill-rule="evenodd" clip-rule="evenodd" d="M1150.3 594.371H1153V589.447H1150.3V594.371Z" fill="white"/>
<path fill-rule="evenodd" clip-rule="evenodd" d="M1150.3 583.626H1153V578.691H1150.3V583.626Z" fill="white"/>
<path fill-rule="evenodd" clip-rule="evenodd" d="M1150.3 572.871H1153V567.947H1150.3V572.871Z" fill="white"/>
<path fill-rule="evenodd" clip-rule="evenodd" d="M1141.06 562.463H1143.76V557.539H1141.06V562.463Z" fill="white"/>
<path fill-rule="evenodd" clip-rule="evenodd" d="M1150.3 562.463H1153V557.539H1150.3V562.463Z" fill="white"/>
<path fill-rule="evenodd" clip-rule="evenodd" d="M1150.3 551.717H1153V546.793H1150.3V551.717Z" fill="white"/>
<path fill-rule="evenodd" clip-rule="evenodd" d="M1198.62 546.008H1202.08V548.791H1198.62V546.008Z" fill="white"/>
<path fill-rule="evenodd" clip-rule="evenodd" d="M1198.62 551.33H1202.08V554.113H1198.62V551.33Z" fill="white"/>
<path fill-rule="evenodd" clip-rule="evenodd" d="M1198.62 561.963H1202.08V564.746H1198.62V561.963Z" fill="white"/>
<path fill-rule="evenodd" clip-rule="evenodd" d="M1208.99 551.33H1212.45V554.113H1208.99V551.33Z" fill="white"/>
<path fill-rule="evenodd" clip-rule="evenodd" d="M1208.99 556.641H1212.45V559.424H1208.99V556.641Z" fill="white"/>
<path fill-rule="evenodd" clip-rule="evenodd" d="M1208.99 567.285H1212.45V570.058H1208.99V567.285Z" fill="white"/>
<path fill-rule="evenodd" clip-rule="evenodd" d="M1219.39 546.008H1222.85V548.791H1219.39V546.008Z" fill="white"/>
<path fill-rule="evenodd" clip-rule="evenodd" d="M1219.39 561.963H1222.85V564.746H1219.39V561.963Z" fill="white"/>
<path fill-rule="evenodd" clip-rule="evenodd" d="M1219.39 567.285H1222.85V570.058H1219.39V567.285Z" fill="white"/>
<path fill-rule="evenodd" clip-rule="evenodd" d="M1214.26 500.355H1217.72V503.139H1214.26V500.355Z" fill="white"/>
<path fill-rule="evenodd" clip-rule="evenodd" d="M1214.26 505.668H1217.72V508.451H1214.26V505.668Z" fill="white"/>
<path fill-rule="evenodd" clip-rule="evenodd" d="M1214.26 516.311H1217.72V519.083H1214.26V516.311Z" fill="white"/>
<path fill-rule="evenodd" clip-rule="evenodd" d="M1198.62 602.027H1202.08V599.244H1198.62V602.027Z" fill="white"/>
<path fill-rule="evenodd" clip-rule="evenodd" d="M1198.62 586.074H1202.08V583.301H1198.62V586.074Z" fill="white"/>
<path fill-rule="evenodd" clip-rule="evenodd" d="M1198.62 580.762H1202.08V577.979H1198.62V580.762Z" fill="white"/>
<path fill-rule="evenodd" clip-rule="evenodd" d="M1208.99 596.707H1212.45V593.934H1208.99V596.707Z" fill="white"/>
<path fill-rule="evenodd" clip-rule="evenodd" d="M1208.99 591.394H1212.45V588.611H1208.99V591.394Z" fill="white"/>
<path fill-rule="evenodd" clip-rule="evenodd" d="M1208.99 580.762H1212.45V577.979H1208.99V580.762Z" fill="white"/>
<path fill-rule="evenodd" clip-rule="evenodd" d="M1219.39 602.027H1222.85V599.244H1219.39V602.027Z" fill="white"/>
<path fill-rule="evenodd" clip-rule="evenodd" d="M1219.39 586.074H1222.85V583.301H1219.39V586.074Z" fill="white"/>
<path fill-rule="evenodd" clip-rule="evenodd" d="M1214.26 529.789H1217.72V527.006H1214.26V529.789Z" fill="white"/>
<path fill-rule="evenodd" clip-rule="evenodd" d="M825.363 536.027H827.488V540.533H825.363V536.027Z" fill="white"/>
<path fill-rule="evenodd" clip-rule="evenodd" d="M825.363 544.631H827.488V549.137H825.363V544.631Z" fill="white"/>
<path fill-rule="evenodd" clip-rule="evenodd" d="M831.736 544.631H833.861V549.137H831.736V544.631Z" fill="white"/>
<path fill-rule="evenodd" clip-rule="evenodd" d="M974.148 471.465H978.163V474.697H974.148V471.465Z" fill="white"/>
<path fill-rule="evenodd" clip-rule="evenodd" d="M974.148 483.83H978.163V487.062H974.148V483.83Z" fill="white"/>
<path fill-rule="evenodd" clip-rule="evenodd" d="M974.148 490.008H978.163V493.24H974.148V490.008Z" fill="white"/>
<path fill-rule="evenodd" clip-rule="evenodd" d="M986.203 471.465H990.228V474.697H986.203V471.465Z" fill="white"/>
<path fill-rule="evenodd" clip-rule="evenodd" d="M986.203 477.643H990.228V480.874H986.203V477.643Z" fill="white"/>
<path fill-rule="evenodd" clip-rule="evenodd" d="M986.203 490.008H990.228V493.24H986.203V490.008Z" fill="white"/>
<path fill-rule="evenodd" clip-rule="evenodd" d="M998.299 465.275H1002.31V468.517H998.299V465.275Z" fill="white"/>
<path fill-rule="evenodd" clip-rule="evenodd" d="M998.299 483.83H1002.31V487.062H998.299V483.83Z" fill="white"/>
<path fill-rule="evenodd" clip-rule="evenodd" d="M998.299 490.008H1002.31V493.24H998.299V490.008Z" fill="white"/>
<path fill-rule="evenodd" clip-rule="evenodd" d="M1010.89 471.465H1014.92V474.697H1010.89V471.465Z" fill="white"/>
<path fill-rule="evenodd" clip-rule="evenodd" d="M1010.89 477.643H1014.92V480.874H1010.89V477.643Z" fill="white"/>
<path fill-rule="evenodd" clip-rule="evenodd" d="M1010.89 490.008H1014.92V493.24H1010.89V490.008Z" fill="white"/>
<path fill-rule="evenodd" clip-rule="evenodd" d="M998.299 471.465H1002.31V474.697H998.299V471.465Z" fill="white"/>
<path fill-rule="evenodd" clip-rule="evenodd" d="M962.096 542.704H966.11V539.473H962.096V542.704Z" fill="white"/>
<path fill-rule="evenodd" clip-rule="evenodd" d="M962.096 536.517H966.11V533.285H962.096V536.517Z" fill="white"/>
<path fill-rule="evenodd" clip-rule="evenodd" d="M962.096 524.16H966.11V520.918H962.096V524.16Z" fill="white"/>
<path fill-rule="evenodd" clip-rule="evenodd" d="M962.096 517.972H966.11V514.74H962.096V517.972Z" fill="white"/>
<path fill-rule="evenodd" clip-rule="evenodd" d="M974.148 536.517H978.163V533.285H974.148V536.517Z" fill="white"/>
<path fill-rule="evenodd" clip-rule="evenodd" d="M974.148 530.339H978.163V527.107H974.148V530.339Z" fill="white"/>
<path fill-rule="evenodd" clip-rule="evenodd" d="M974.148 517.972H978.163V514.74H974.148V517.972Z" fill="white"/>
<path fill-rule="evenodd" clip-rule="evenodd" d="M986.244 542.704H990.259V539.473H986.244V542.704Z" fill="white"/>
<path fill-rule="evenodd" clip-rule="evenodd" d="M986.244 524.16H990.259V520.918H986.244V524.16Z" fill="white"/>
<path fill-rule="evenodd" clip-rule="evenodd" d="M998.84 536.517H1002.85V533.285H998.84V536.517Z" fill="white"/>
<path fill-rule="evenodd" clip-rule="evenodd" d="M998.84 530.339H1002.85V527.107H998.84V530.339Z" fill="white"/>
<path fill-rule="evenodd" clip-rule="evenodd" d="M998.84 517.972H1002.85V514.74H998.84V517.972Z" fill="white"/>
<path fill-rule="evenodd" clip-rule="evenodd" d="M974.148 511.784H978.163V508.553H974.148V511.784Z" fill="white"/>
<path fill-rule="evenodd" clip-rule="evenodd" d="M974.148 499.427H978.163V496.186H974.148V499.427Z" fill="white"/>
<path fill-rule="evenodd" clip-rule="evenodd" d="M986.203 511.784H990.228V508.553H986.203V511.784Z" fill="white"/>
<path fill-rule="evenodd" clip-rule="evenodd" d="M986.203 505.607H990.228V502.375H986.203V505.607Z" fill="white"/>
<path fill-rule="evenodd" clip-rule="evenodd" d="M998.299 517.972H1002.31V514.74H998.299V517.972Z" fill="white"/>
<path fill-rule="evenodd" clip-rule="evenodd" d="M998.299 499.427H1002.31V496.186H998.299V499.427Z" fill="white"/>
<path fill-rule="evenodd" clip-rule="evenodd" d="M1010.89 511.784H1014.92V508.553H1010.89V511.784Z" fill="white"/>
<path fill-rule="evenodd" clip-rule="evenodd" d="M1010.89 505.607H1014.92V502.375H1010.89V505.607Z" fill="white"/>
<path fill-rule="evenodd" clip-rule="evenodd" d="M998.299 511.795H1002.31V508.553H998.299V511.795Z" fill="white"/>
<path fill-rule="evenodd" clip-rule="evenodd" d="M962.096 490.008H966.11V493.24H962.096V490.008Z" fill="white"/>
<path fill-rule="evenodd" clip-rule="evenodd" d="M998.84 539.473H1002.85V542.704H998.84V539.473Z" fill="white"/>
<path fill-rule="evenodd" clip-rule="evenodd" d="M998.84 551.83H1002.85V555.062H998.84V551.83Z" fill="white"/>
<path fill-rule="evenodd" clip-rule="evenodd" d="M998.299 551.83H1002.31V555.072H998.299V551.83Z" fill="white"/>
<path fill-rule="evenodd" clip-rule="evenodd" d="M998.299 570.383H1002.31V573.615H998.299V570.383Z" fill="white"/>
<path fill-rule="evenodd" clip-rule="evenodd" d="M998.299 576.562H1002.31V579.794H998.299V576.562Z" fill="white"/>
<path fill-rule="evenodd" clip-rule="evenodd" d="M998.299 558.018H1002.31V561.249H998.299V558.018Z" fill="white"/>
<path fill-rule="evenodd" clip-rule="evenodd" d="M886.533 585.604H888.964V590.059H886.533V585.604Z" fill="white"/>
<path fill-rule="evenodd" clip-rule="evenodd" d="M878.562 548.047H880.994V552.492H878.562V548.047Z" fill="white"/>
<path fill-rule="evenodd" clip-rule="evenodd" d="M878.562 538.352H880.994V542.796H878.562V538.352Z" fill="white"/>
<path fill-rule="evenodd" clip-rule="evenodd" d="M878.594 576.756H881.025V581.201H878.594V576.756Z" fill="white"/>
<path fill-rule="evenodd" clip-rule="evenodd" d="M909.803 439.676H912.244V444.121H909.803V439.676Z" fill="white"/>
<path fill-rule="evenodd" clip-rule="evenodd" d="M909.803 429.982H912.244V434.427H909.803V429.982Z" fill="white"/>
<path fill-rule="evenodd" clip-rule="evenodd" d="M917.74 420.287H920.182V424.732H917.74V420.287Z" fill="white"/>
<path fill-rule="evenodd" clip-rule="evenodd" d="M917.74 429.982H920.182V434.427H917.74V429.982Z" fill="white"/>
<path fill-rule="evenodd" clip-rule="evenodd" d="M909.773 382.719H912.215V387.174H909.773V382.719Z" fill="white"/>
<path fill-rule="evenodd" clip-rule="evenodd" d="M909.773 373.023H912.215V377.479H909.773V373.023Z" fill="white"/>
<path fill-rule="evenodd" clip-rule="evenodd" d="M909.803 411.438H912.244V415.882H909.803V411.438Z" fill="white"/>
<path fill-rule="evenodd" clip-rule="evenodd" d="M909.803 401.732H912.244V406.177H909.803V401.732Z" fill="white"/>
<path fill-rule="evenodd" clip-rule="evenodd" d="M909.803 458.689H912.091V463.532H909.803V458.689Z" fill="white"/>
<path fill-rule="evenodd" clip-rule="evenodd" d="M909.803 467.947H912.091V472.79H909.803V467.947Z" fill="white"/>
<path fill-rule="evenodd" clip-rule="evenodd" d="M909.803 487.959H912.091V492.801H909.803V487.959Z" fill="white"/>
<path fill-rule="evenodd" clip-rule="evenodd" d="M916.658 467.947H918.936V472.79H916.658V467.947Z" fill="white"/>
<path fill-rule="evenodd" clip-rule="evenodd" d="M916.658 477.203H918.936V482.046H916.658V477.203Z" fill="white"/>
<path fill-rule="evenodd" clip-rule="evenodd" d="M916.658 497.217H918.936V502.049H916.658V497.217Z" fill="white"/>
<path fill-rule="evenodd" clip-rule="evenodd" d="M917.74 554.643H920.182V559.087H917.74V554.643Z" fill="white"/>
<path fill-rule="evenodd" clip-rule="evenodd" d="M909.773 526.781H912.215V531.226H909.773V526.781Z" fill="white"/>
<path fill-rule="evenodd" clip-rule="evenodd" d="M909.773 506.666H912.215V511.111H909.773V506.666Z" fill="white"/>
<path fill-rule="evenodd" clip-rule="evenodd" d="M909.803 545.793H912.244V550.238H909.803V545.793Z" fill="white"/>
<path fill-rule="evenodd" clip-rule="evenodd" d="M901.66 487.959H903.938V492.801H901.66V487.959Z" fill="white"/>
<path fill-rule="evenodd" clip-rule="evenodd" d="M901.66 497.217H903.938V502.049H901.66V497.217Z" fill="white"/>
<path fill-rule="evenodd" clip-rule="evenodd" d="M901.66 514.873H903.938V519.716H901.66V514.873Z" fill="white"/>
<path fill-rule="evenodd" clip-rule="evenodd" d="M901.66 468.385H904.091V472.83H901.66V468.385Z" fill="white"/>
<path fill-rule="evenodd" clip-rule="evenodd" d="M901.631 411.438H904.062V415.882H901.631V411.438Z" fill="white"/>
<path fill-rule="evenodd" clip-rule="evenodd" d="M901.631 401.732H904.062V406.177H901.631V401.732Z" fill="white"/>
<path fill-rule="evenodd" clip-rule="evenodd" d="M901.66 440.146H904.091V444.591H901.66V440.146Z" fill="white"/>
<path fill-rule="evenodd" clip-rule="evenodd" d="M901.66 430.451H904.091V434.886H901.66V430.451Z" fill="white"/>
<path fill-rule="evenodd" clip-rule="evenodd" d="M901.631 556.887H904.062V561.332H901.631V556.887Z" fill="white"/>
<path fill-rule="evenodd" clip-rule="evenodd" d="M901.631 537.496H904.062V541.941H901.631V537.496Z" fill="white"/>
<path fill-rule="evenodd" clip-rule="evenodd" d="M894.695 392.76H897.126V397.205H894.695V392.76Z" fill="white"/>
<path fill-rule="evenodd" clip-rule="evenodd" d="M894.695 477.408H897.126V481.853H894.695V477.408Z" fill="white"/>
<path fill-rule="evenodd" clip-rule="evenodd" d="M1212.23 462.92H1215.69V465.703H1212.23V462.92Z" fill="white"/>
<path fill-rule="evenodd" clip-rule="evenodd" d="M1212.23 468.242H1215.69V471.025H1212.23V468.242Z" fill="white"/>
<path fill-rule="evenodd" clip-rule="evenodd" d="M1212.23 478.875H1215.69V481.658H1212.23V478.875Z" fill="white"/>
<path fill-rule="evenodd" clip-rule="evenodd" d="M1181.86 570.271H1183.33V572.973H1181.86V570.271Z" fill="white"/>
<path fill-rule="evenodd" clip-rule="evenodd" d="M1181.86 576.164H1183.33V578.866H1181.86V576.164Z" fill="white"/>
<path fill-rule="evenodd" clip-rule="evenodd" d="M1181.86 564.389H1183.33V567.09H1181.86V564.389Z" fill="white"/>
<path fill-rule="evenodd" clip-rule="evenodd" d="M1396.56 642.818H1399.3V640.605H1396.56V642.818Z" fill="white"/>
<path fill-rule="evenodd" clip-rule="evenodd" d="M1396.56 638.597H1399.3V636.395H1396.56V638.597Z" fill="white"/>
<path fill-rule="evenodd" clip-rule="evenodd" d="M1396.56 630.165H1399.3V627.963H1396.56V630.165Z" fill="white"/>
<path fill-rule="evenodd" clip-rule="evenodd" d="M1403.65 638.597H1406.39V636.395H1403.65V638.597Z" fill="white"/>
<path fill-rule="evenodd" clip-rule="evenodd" d="M1403.65 634.376H1406.39V632.174H1403.65V634.376Z" fill="white"/>
<path fill-rule="evenodd" clip-rule="evenodd" d="M760.709 566.336H763.375V571.209H760.709V566.336Z" fill="white"/>
<path fill-rule="evenodd" clip-rule="evenodd" d="M760.709 576.959H763.375V581.822H760.709V576.959Z" fill="white"/>
<path fill-rule="evenodd" clip-rule="evenodd" d="M769.402 566.336H772.069V571.209H769.402V566.336Z" fill="white"/>
<path fill-rule="evenodd" clip-rule="evenodd" d="M769.402 587.582H772.069V592.445H769.402V587.582Z" fill="white"/>
<path fill-rule="evenodd" clip-rule="evenodd" d="M778.535 566.336H781.201V571.209H778.535V566.336Z" fill="white"/>
<path fill-rule="evenodd" clip-rule="evenodd" d="M825.363 564.48H827.488V568.987H825.363V564.48Z" fill="white"/>
<path fill-rule="evenodd" clip-rule="evenodd" d="M1041.75 551.839H1043.19V548.791H1041.75V551.839Z" fill="white"/>
<path fill-rule="evenodd" clip-rule="evenodd" d="M1041.75 546.019H1043.19V542.98H1041.75V546.019Z" fill="white"/>
<path fill-rule="evenodd" clip-rule="evenodd" d="M1041.75 534.386H1043.19V531.338H1041.75V534.386Z" fill="white"/>
<path fill-rule="evenodd" clip-rule="evenodd" d="M1046.06 546.019H1047.49V542.98H1046.06V546.019Z" fill="white"/>
<path fill-rule="evenodd" clip-rule="evenodd" d="M1046.06 540.196H1047.49V537.158H1046.06V540.196Z" fill="white"/>
<path fill-rule="evenodd" clip-rule="evenodd" d="M1046.06 528.564H1047.49V525.516H1046.06V528.564Z" fill="white"/>
<path fill-rule="evenodd" clip-rule="evenodd" d="M1041.74 520.165H1043.28V517.361H1041.74V520.165Z" fill="white"/>
<path fill-rule="evenodd" clip-rule="evenodd" d="M1061.38 551.839H1062.82V548.791H1061.38V551.839Z" fill="white"/>
<path fill-rule="evenodd" clip-rule="evenodd" d="M1065.69 558.599H1067.12V555.551H1065.69V558.599Z" fill="white"/>
<path fill-rule="evenodd" clip-rule="evenodd" d="M1065.69 546.019H1067.12V542.98H1065.69V546.019Z" fill="white"/>
<path fill-rule="evenodd" clip-rule="evenodd" d="M1061.37 527.434H1062.89V524.641H1061.37V527.434Z" fill="white"/>
<path fill-rule="evenodd" clip-rule="evenodd" d="M1061.37 540.075H1062.89V537.281H1061.37V540.075Z" fill="white"/>
<path fill-rule="evenodd" clip-rule="evenodd" d="M1061.38 515.485H1062.91V512.691H1061.38V515.485Z" fill="white"/>
<path fill-rule="evenodd" clip-rule="evenodd" d="M1056.26 551.839H1057.7V548.791H1056.26V551.839Z" fill="white"/>
<path fill-rule="evenodd" clip-rule="evenodd" d="M1056.26 546.019H1057.7V542.98H1056.26V546.019Z" fill="white"/>
<path fill-rule="evenodd" clip-rule="evenodd" d="M1056.26 534.917H1057.7V531.879H1056.26V534.917Z" fill="white"/>
<path fill-rule="evenodd" clip-rule="evenodd" d="M1056.24 520.694H1057.77V517.9H1056.24V520.694Z" fill="white"/>
<path fill-rule="evenodd" clip-rule="evenodd" d="M1051.88 558.465H1053.41V555.672H1051.88V558.465Z" fill="white"/>
<path fill-rule="evenodd" clip-rule="evenodd" d="M1052.03 498.634H1053.47V495.596H1052.03V498.634Z" fill="white"/>
<path fill-rule="evenodd" clip-rule="evenodd" d="M1056.34 505.392H1057.77V502.354H1056.34V505.392Z" fill="white"/>
<path fill-rule="evenodd" clip-rule="evenodd" d="M1056.34 492.822H1057.77V489.773H1056.34V492.822Z" fill="white"/>
<path fill-rule="evenodd" clip-rule="evenodd" d="M1046.91 498.634H1048.34V495.596H1046.91V498.634Z" fill="white"/>
<path fill-rule="evenodd" clip-rule="evenodd" d="M1046.91 492.822H1048.34V489.773H1046.91V492.822Z" fill="white"/>
<path fill-rule="evenodd" clip-rule="evenodd" d="M1010.89 595.554H1014.92V592.312H1010.89V595.554Z" fill="white"/>
<path fill-rule="evenodd" clip-rule="evenodd" d="M1010.89 589.367H1014.92V586.135H1010.89V589.367Z" fill="white"/>
<path fill-rule="evenodd" clip-rule="evenodd" d="M986.203 570.383H990.228V573.615H986.203V570.383Z" fill="white"/>
<path fill-rule="evenodd" clip-rule="evenodd" d="M986.203 592.159H990.228V588.928H986.203V592.159Z" fill="white"/>
<path fill-rule="evenodd" clip-rule="evenodd" d="M986.203 585.972H990.228V582.74H986.203V585.972Z" fill="white"/>
<path fill-rule="evenodd" clip-rule="evenodd" d="M1010.89 601.732H1014.92V598.5H1010.89V601.732Z" fill="white"/>
<path fill-rule="evenodd" clip-rule="evenodd" d="M1118.62 446.131H1121.05V450.576H1118.62V446.131Z" fill="white"/>
<path fill-rule="evenodd" clip-rule="evenodd" d="M1118.62 436.436H1121.05V440.88H1118.62V436.436Z" fill="white"/>
<path fill-rule="evenodd" clip-rule="evenodd" d="M1126.55 426.74H1128.98V431.185H1126.55V426.74Z" fill="white"/>
<path fill-rule="evenodd" clip-rule="evenodd" d="M1126.55 436.436H1128.98V440.88H1126.55V436.436Z" fill="white"/>
</g>
<defs>
<linearGradient id="paint0_linear" x1="1384.16" y1="-5.66721e-06" x2="1431.94" y2="661.701" gradientUnits="userSpaceOnUse">
<stop stop-color="#47A4FF"/>
<stop offset="1" stop-color="#2482DC"/>
</linearGradient>
<linearGradient id="paint1_linear" x1="720" y1="366" x2="720" y2="664.125" gradientUnits="userSpaceOnUse">
<stop stop-color="#D4E7F7" stop-opacity="0.5"/>
<stop offset="1" stop-color="#206AA9"/>
</linearGradient>
<clipPath id="clip0">
<rect width="1440" height="298.125" fill="white" transform="translate(0 366)"/>
</clipPath>
</defs>
</svg>
