<svg width="30" height="30" viewBox="0 0 30 30" fill="none" xmlns="http://www.w3.org/2000/svg">
<circle cx="15" cy="15" r="15" fill="#206AA9"/>
<path opacity="0.4" d="M19.9859 13.493C19.9859 13.5338 19.6662 17.5783 19.4835 19.2804C19.3691 20.325 18.6957 20.9585 17.6857 20.9765C16.9096 20.9939 16.1498 20.9999 15.4023 20.9999C14.6087 20.9999 13.8326 20.9939 13.0793 20.9765C12.103 20.9531 11.429 20.307 11.3205 19.2804C11.1326 17.5723 10.8187 13.5338 10.8128 13.493C10.807 13.37 10.8467 13.253 10.9272 13.1582C11.0066 13.0706 11.1209 13.0178 11.2411 13.0178H19.5635C19.6831 13.0178 19.7916 13.0706 19.8774 13.1582C19.9573 13.253 19.9976 13.37 19.9859 13.493Z" fill="white"/>
<path d="M20.8 11.3861C20.8 11.1395 20.6057 10.9463 20.3723 10.9463H18.6228C18.2669 10.9463 17.9576 10.6931 17.8783 10.3362L17.7802 9.89877C17.6431 9.37019 17.1699 9 16.6388 9H14.1617C13.6249 9 13.1563 9.37019 13.0139 9.92757L12.9223 10.3368C12.8424 10.6931 12.5331 10.9463 12.1777 10.9463H10.4283C10.1943 10.9463 10 11.1395 10 11.3861V11.6141C10 11.8547 10.1943 12.0539 10.4283 12.0539H20.3723C20.6057 12.0539 20.8 11.8547 20.8 11.6141V11.3861Z" fill="white"/>
</svg>
