<svg width="387" height="35" viewBox="0 0 387 35" fill="none" xmlns="http://www.w3.org/2000/svg">
<line x1="35" y1="17" x2="176" y2="17" stroke="#999999" stroke-width="2"/>
<circle cx="193.5" cy="17.5" r="16.75" fill="white" stroke="#999999" stroke-width="1.5"/>
<path d="M189.329 17.9893C189.329 19.6436 188.919 20.915 188.099 21.8037C187.278 22.6924 186.103 23.1367 184.571 23.1367C183.04 23.1367 181.864 22.6924 181.044 21.8037C180.224 20.915 179.813 19.639 179.813 17.9756C179.813 16.3122 180.224 15.043 181.044 14.168C181.869 13.2884 183.049 12.8486 184.585 12.8486C186.121 12.8486 187.294 13.2907 188.105 14.1748C188.921 15.0589 189.329 16.3304 189.329 17.9893ZM182.035 17.9893C182.035 19.1058 182.247 19.9466 182.671 20.5117C183.095 21.0768 183.728 21.3594 184.571 21.3594C186.262 21.3594 187.107 20.236 187.107 17.9893C187.107 15.738 186.267 14.6123 184.585 14.6123C183.742 14.6123 183.106 14.8971 182.678 15.4668C182.249 16.0319 182.035 16.8727 182.035 17.9893ZM195.256 23H193.137V14.7695H190.423V13.0059H197.97V14.7695H195.256V23ZM201.627 17.709H202.324C202.976 17.709 203.464 17.5814 203.787 17.3262C204.111 17.0664 204.272 16.6904 204.272 16.1982C204.272 15.7015 204.136 15.3346 203.862 15.0977C203.593 14.8607 203.17 14.7422 202.591 14.7422H201.627V17.709ZM206.412 16.123C206.412 17.1986 206.075 18.0212 205.4 18.5908C204.73 19.1605 203.776 19.4453 202.536 19.4453H201.627V23H199.508V13.0059H202.7C203.912 13.0059 204.833 13.2679 205.462 13.792C206.095 14.3115 206.412 15.0885 206.412 16.123Z" fill="#999999"/>
<circle cx="369.5" cy="17.5" r="16" fill="#999999" stroke="#999999" stroke-width="3"/>
<line x1="211" y1="17" x2="352" y2="17" stroke="#999999" stroke-width="2"/>
<g clip-path="url(#clip0)">
<path d="M386.25 17.4885C386.25 26.7325 378.751 34.227 369.5 34.227C360.249 34.227 352.75 26.7325 352.75 17.4885C352.75 8.24455 360.249 0.75 369.5 0.75C378.751 0.75 386.25 8.24455 386.25 17.4885Z" fill="white" stroke="#999999" stroke-width="1.5"/>
<path d="M368.98 24.854L362 19.4161L363.985 16.869L368.271 20.2082L375.345 10L378 11.8389L368.98 24.854Z" fill="#999999"/>
</g>
<path fill-rule="evenodd" clip-rule="evenodd" d="M0 17.5C0 7.84175 7.84 0 17.5 0C27.1775 0 35 7.84175 35 17.5C35 27.1618 27.1775 35 17.5 35C7.84 35 0 27.1618 0 17.5ZM15.9585 10.8676C15.9585 10.0294 16.6585 9.32764 17.4985 9.32764C18.3385 9.32764 19.021 10.0294 19.021 10.8676V18.6026C19.021 19.4444 18.3385 20.1251 17.4985 20.1251C16.6585 20.1251 15.9585 19.4444 15.9585 18.6026V10.8676ZM17.519 25.6929C16.6615 25.6929 15.979 24.9929 15.979 24.1529C15.979 23.3129 16.6615 22.6304 17.5015 22.6304C18.359 22.6304 19.0415 23.3129 19.0415 24.1529C19.0415 24.9929 18.359 25.6929 17.519 25.6929Z" fill="#206AA9"/>
<defs>
<clipPath id="clip0">
<rect width="35" height="35" fill="white" transform="translate(352)"/>
</clipPath>
</defs>
</svg>
