<svg width="18" height="18" viewBox="0 0 18 18" fill="none" xmlns="http://www.w3.org/2000/svg">
<path d="M11.5715 10.5941L17.4266 4.72014C17.7929 4.35183 18 3.84877 18 3.32376V1.60099C18 0.520024 17.1423 0 16.0844 0H1.91556C0.857655 0 0 0.520024 0 1.60099V3.3547C0 3.85177 0.18462 4.33087 0.517719 4.69419L5.89711 10.5632C5.9987 10.674 6.14034 10.7368 6.28979 10.7378L11.1915 10.7518C11.3332 10.7528 11.4699 10.6969 11.5715 10.5941Z" fill="#777777"/>
<path opacity="0.4" d="M6.05664 10.6858V17.2904C6.05664 17.5309 6.17777 17.7575 6.37606 17.8873C6.48938 17.9621 6.62027 18.0001 6.75116 18.0001C6.84982 18.0001 6.94848 17.9791 7.04031 17.9372L11.0062 16.0886C11.2543 15.9739 11.4136 15.7213 11.4136 15.4429V10.6858H6.05664Z" fill="#777777"/>
</svg>
