<svg width="18" height="18" viewBox="0 0 18 18" fill="none" xmlns="http://www.w3.org/2000/svg">
<g clip-path="url(#clip0)">
<path d="M0 4.40601V17.9998H5.24993V3.42163L0 4.40601ZM3.75008 16.4998H1.50007V14.9999H3.75008V16.4998ZM3.75008 13.4998H1.50007V11.9998H3.75008V13.4998ZM3.75008 10.4999H1.50007V8.99983H3.75008V10.4999ZM3.75008 7.49976H1.50007V5.9999H3.75008V7.49976Z" fill="#206AA9"/>
<path d="M6.75 0V18H18V2.10938L6.75 0ZM11.25 16.4999H9V15.0001H11.25V16.4999ZM11.25 13.5H9V11.9999H11.25V13.5ZM11.25 10.5001H9V9H11.25V10.5001ZM11.25 7.49993H9V6.00007H11.25V7.49993ZM11.25 4.5H9V2.99993H11.25V4.5ZM15.75 16.4999H13.5V15.0001H15.75V16.4999ZM15.75 13.5H13.5V11.9999H15.75V13.5ZM15.75 10.5001H13.5V9H15.75V10.5001ZM15.75 7.49993H13.5V6.00007H15.75V7.49993Z" fill="#206AA9" fill-opacity="0.5"/>
</g>
<defs>
<clipPath id="clip0">
<rect width="18" height="18" fill="white"/>
</clipPath>
</defs>
</svg>
