<svg width="45" height="45" viewBox="0 0 45 45" fill="none" xmlns="http://www.w3.org/2000/svg">
<rect width="45" height="45" rx="10" fill="#F79722"/>
<path opacity="0.4" d="M13 22.0781C13.05 24.4161 13.19 28.4151 13.21 28.8561C13.281 29.7991 13.642 30.7521 14.204 31.4241C14.986 32.3671 15.949 32.7881 17.292 32.7881C19.148 32.7981 21.194 32.7981 23.181 32.7981C25.176 32.7981 27.112 32.7981 28.747 32.7881C30.071 32.7881 31.064 32.3561 31.836 31.4241C32.398 30.7521 32.759 29.7891 32.81 28.8561C32.83 28.4851 32.93 24.1441 32.99 22.0781H13Z" fill="white"/>
<path d="M22.2461 26.3838V27.6778C22.2461 28.0918 22.5821 28.4278 22.9961 28.4278C23.4101 28.4278 23.7461 28.0918 23.7461 27.6778V26.3838C23.7461 25.9698 23.4101 25.6338 22.9961 25.6338C22.5821 25.6338 22.2461 25.9698 22.2461 26.3838Z" fill="white"/>
<path fill-rule="evenodd" clip-rule="evenodd" d="M21.211 25.556C21.111 25.919 20.762 26.151 20.384 26.101C17.833 25.745 15.395 24.84 13.337 23.481C13.126 23.343 13 23.107 13 22.855V19.389C13 17.289 14.712 15.581 16.817 15.581H18.784C18.972 14.129 20.202 13 21.704 13H24.286C25.787 13 27.018 14.129 27.206 15.581H29.183C31.282 15.581 32.99 17.289 32.99 19.389V22.855C32.99 23.107 32.863 23.342 32.654 23.481C30.592 24.846 28.144 25.755 25.576 26.11C25.541 26.115 25.507 26.117 25.473 26.117C25.134 26.117 24.831 25.888 24.746 25.552C24.544 24.756 23.821 24.199 22.99 24.199C22.148 24.199 21.433 24.744 21.211 25.556ZM24.286 14.5H21.704C21.031 14.5 20.469 14.96 20.301 15.581H25.688C25.52 14.96 24.958 14.5 24.286 14.5Z" fill="white"/>
</svg>
