<svg width="114" height="40" viewBox="0 0 114 40" fill="none" xmlns="http://www.w3.org/2000/svg">
<g clip-path="url(#clip0)">
<path d="M28.3965 11.8418H37.7927L36.6222 13.849H34.1345V22.0733H31.7083V13.849H28.3979V11.8418H28.3965Z" fill="#206AA9"/>
<path d="M38.168 11.6387H40.6207V13.6528H38.168V11.6387ZM38.168 14.3498H40.6207V22.0727H38.168V14.3498Z" fill="#206AA9"/>
<path d="M46.0949 22.073V18.1914V17.8352C46.0949 17.5977 46.0725 17.384 46.0292 17.194C45.9845 17.0041 45.8979 16.8546 45.768 16.7485C45.6423 16.6367 45.437 16.5641 45.1507 16.5292C44.8643 16.4942 44.5402 16.4775 44.1785 16.4775V22.0744H41.7383V14.3516H44.1785V15.997L45.3071 14.3516H45.6493C46.6396 14.3516 47.2919 14.4284 47.6076 14.582C47.947 14.7357 48.2655 15.2399 48.563 16.0948L49.6497 14.353H49.9361C50.3034 14.353 50.6792 14.3669 51.0647 14.3949C51.4502 14.4228 51.7924 14.522 52.0899 14.6938C52.3832 14.8656 52.5886 15.1561 52.7073 15.5654C52.826 15.9746 52.8847 16.4789 52.8847 17.0781V17.4957V22.0744H50.4445V18.1927V17.8366C50.4445 17.5572 50.4277 17.3365 50.3956 17.1717C50.3635 17.0069 50.2741 16.8658 50.1302 16.7499C50.0003 16.6241 49.7866 16.5529 49.4891 16.5334C49.3452 16.5236 49.2097 16.5166 49.0812 16.5124C48.9527 16.5082 48.827 16.5054 48.7013 16.5054H48.5337V22.0744H46.0949V22.073Z" fill="#206AA9"/>
<path d="M53.1758 14.3496H55.7752L57.3857 19.061L58.9892 14.3496H61.5677L58.7308 22.0725H56.0336L53.1758 14.3496Z" fill="#206AA9"/>
<path d="M62.0898 11.6387H64.5427V13.6528H62.0898V11.6387ZM62.0898 14.3498H64.5427V22.0727H62.0898V14.3498Z" fill="#206AA9"/>
<path d="M72.797 19.0468H67.911C68.1107 19.5483 68.3551 19.8584 68.6429 19.9743C68.9362 20.0763 69.4069 20.1279 70.0578 20.1279H72.7062L71.6404 22.0723H69.2854H68.7979C67.971 22.0723 67.3662 21.9675 66.9863 21.758C66.5966 21.5401 66.2907 21.2579 66.0728 20.9143C65.8451 20.5526 65.6817 20.1279 65.5811 19.6419C65.4805 19.1558 65.4316 18.6585 65.4316 18.1473C65.4316 17.9196 65.4358 17.7129 65.4456 17.5271C65.4554 17.3413 65.4777 17.1597 65.5154 16.9838C65.5532 16.8078 65.6021 16.6276 65.6649 16.4474C65.7278 16.2658 65.8172 16.0661 65.9331 15.8482C66.151 15.4207 66.5421 15.0534 67.1036 14.7475C67.6512 14.4542 68.2169 14.3089 68.7979 14.3089C68.8482 14.2991 68.9167 14.2949 69.0005 14.2949C69.0843 14.2949 69.1513 14.2949 69.203 14.2949C69.4865 14.2949 69.7729 14.3159 70.0634 14.3578C70.354 14.3997 70.6305 14.4709 70.8931 14.5701C71.1557 14.6707 71.396 14.7964 71.6139 14.95C71.8318 15.1037 72.0189 15.2839 72.1712 15.4934C72.4729 15.9208 72.6601 16.4083 72.7327 16.9572C72.8053 17.5062 72.8403 18.1626 72.8403 18.9295L72.797 19.0468ZM69.8134 16.2588C69.7533 16.2211 69.6639 16.1932 69.5452 16.175C69.4265 16.1568 69.3119 16.1471 69.2002 16.1471C68.8189 16.1094 68.506 16.2127 68.263 16.4544C68.0185 16.696 67.883 17.0117 67.8551 17.4028H70.4266C70.3805 17.055 70.319 16.8036 70.2422 16.6499C70.1654 16.4963 70.0229 16.3664 69.8134 16.2588Z" fill="#206AA9"/>
<path d="M80.5542 14.3491L79.4116 16.3493H78.4157H77.9701C77.505 16.3493 77.1516 16.3842 76.9114 16.454C76.6697 16.5239 76.4811 16.6649 76.3471 16.8787C76.213 17.0882 76.1236 17.3061 76.0817 17.5337C76.0398 17.7614 76.0188 17.9933 76.0188 18.2307C76.0188 18.8118 76.0956 19.2253 76.2493 19.4711C76.3973 19.7225 76.5971 19.8985 76.8485 20.0005C77.086 20.0843 77.6084 20.1262 78.4171 20.1262H80.1463L79.0722 22.0705H77.16H76.7703C76.1431 22.0705 75.604 21.9979 75.1528 21.8512C74.7016 21.7046 74.351 21.421 74.101 20.9978C73.8552 20.5704 73.6792 20.1248 73.5744 19.6597C73.4696 19.1945 73.418 18.7043 73.418 18.1888C73.418 17.7014 73.4585 17.2502 73.5395 16.8367C73.6205 16.4233 73.7937 15.9889 74.0591 15.5335C74.3385 15.0782 74.7659 14.7667 75.3455 14.5991C75.9238 14.4315 76.6474 14.3477 77.5162 14.3477H80.5542V14.3491Z" fill="#206AA9"/>
<path d="M83.188 11.9102H87.356C88.0907 11.9102 88.6439 11.9618 89.0154 12.0638C89.3967 12.1714 89.7054 12.3962 89.9429 12.7399C90.1985 13.0877 90.3675 13.4187 90.4485 13.7302C90.5295 14.0417 90.57 14.3392 90.57 14.6227C90.5603 14.8602 90.5309 15.0893 90.4793 15.3128C90.4276 15.5362 90.3368 15.7444 90.2069 15.9399C90.077 16.1355 89.9052 16.3184 89.6915 16.4903C89.4777 16.6621 89.2082 16.8115 88.8827 16.9358C89.4079 17.2096 89.7906 17.4708 90.0295 17.7194C90.2683 17.9681 90.4164 18.2488 90.4723 18.5589C90.51 18.7126 90.5351 18.8341 90.5491 18.9249C90.5631 19.0157 90.5742 19.0743 90.584 19.1023C90.5938 19.14 90.598 19.2308 90.598 19.3746C90.598 19.7001 90.5463 20.02 90.4415 20.3328C90.3368 20.6471 90.1524 20.9684 89.887 21.298C89.7515 21.4614 89.6118 21.5914 89.4652 21.6919C89.3185 21.7925 89.1481 21.8707 88.9526 21.9294C88.757 21.988 88.5405 22.0258 88.3002 22.0439C88.0614 22.0621 87.7862 22.0719 87.4747 22.0719H82.22V19.932H86.1157H86.4844C86.8937 19.932 87.2093 19.904 87.4328 19.8482C87.6424 19.7881 87.7988 19.6624 87.9036 19.4724C88.0083 19.2824 88.06 19.1051 88.06 18.943C88.06 18.6776 87.9315 18.4486 87.6731 18.253C87.4147 18.0575 87.0347 17.9792 86.5333 18.0156H86.2609H82.2046V15.8477H86.2749H86.5612C87.5599 15.8477 88.06 15.5334 88.06 14.9063C88.06 14.5906 87.9469 14.3685 87.722 14.2414C87.4971 14.1143 87.1004 14.05 86.5333 14.05H86.2889H82.2186H81.9043L83.188 11.9102Z" fill="#206AA9"/>
<path d="M101.756 11.9096L100.621 14.0495H97.1079H96.7657C96.524 14.0495 96.2991 14.0774 96.0896 14.1333C95.8899 14.1752 95.6664 14.3191 95.4205 14.5649C95.1929 14.8107 95.0783 15.22 95.0783 15.7913H95.4066H98.0339C98.4614 15.7913 98.8441 15.8053 99.1807 15.8332C99.5173 15.8611 99.8149 15.9184 100.073 16.0036C100.332 16.0902 100.552 16.2033 100.738 16.3444C100.924 16.4869 101.085 16.6727 101.219 16.9059C101.349 17.1336 101.452 17.3361 101.529 17.5121C101.606 17.6881 101.664 17.8544 101.706 18.0108C101.748 18.1658 101.777 18.3167 101.793 18.4606C101.809 18.6044 101.816 18.7511 101.816 18.8992C101.816 19.5319 101.659 20.1214 101.343 20.6703C101.189 20.9497 100.999 21.1787 100.772 21.3603C100.544 21.5419 100.287 21.6844 100.002 21.7891C99.7157 21.8939 99.4042 21.9665 99.0676 22.0084C98.7309 22.0503 98.372 22.0713 97.9906 22.0713H96.4639C96.0924 22.0713 95.739 22.0531 95.4038 22.0154C95.0685 21.9777 94.7626 21.9093 94.4833 21.8101C94.2039 21.7095 93.9525 21.574 93.7276 21.4022C93.5027 21.2304 93.3198 21.0125 93.1801 20.7471C92.8923 20.2038 92.6912 19.6101 92.5767 18.9662C92.4621 18.3223 92.4062 17.6448 92.4062 16.9339C92.4062 16.181 92.4677 15.4756 92.5906 14.8191C92.7135 14.1612 92.9147 13.6011 93.194 13.136C93.4776 12.6625 93.8785 12.3398 94.3967 12.1666C94.9149 11.9948 95.4988 11.9082 96.1497 11.9082H96.6022H101.756V11.9096ZM95.0099 18.1896C95.0099 18.5988 95.0504 18.9103 95.1314 19.124C95.2124 19.3378 95.3367 19.5124 95.5043 19.6464C95.5923 19.7023 95.7125 19.7498 95.8633 19.7889C96.0142 19.828 96.1776 19.8602 96.355 19.8825C96.531 19.9063 96.7168 19.9202 96.9123 19.9244C97.1079 19.9286 97.3006 19.9314 97.4906 19.9314C98.0437 19.9314 98.4432 19.8923 98.689 19.8127C98.9167 19.747 99.0704 19.6059 99.1486 19.388C99.2226 19.1604 99.2603 19.0025 99.2603 18.9145C99.2785 18.7748 99.2505 18.6505 99.1737 18.5416C99.0969 18.4326 98.988 18.3418 98.8455 18.2692C98.703 18.198 98.5326 18.1449 98.3329 18.1128C98.1331 18.0806 97.9152 18.0695 97.6778 18.0778H97.4892H95.0085V18.1896H95.0099Z" fill="#206AA9"/>
<path d="M103.783 11.9102H112.336L111.207 14.05H106.223V15.7234H108.767C109.176 15.7234 109.537 15.7402 109.851 15.7723C110.165 15.8044 110.44 15.8617 110.676 15.9427C110.914 16.0237 111.118 16.1327 111.29 16.2709C111.461 16.4078 111.609 16.5852 111.735 16.8045C111.981 17.2236 112.142 17.5811 112.216 17.8787C112.295 18.1622 112.334 18.4807 112.334 18.8341C112.334 19.0059 112.327 19.1735 112.313 19.3355C112.3 19.4975 112.27 19.6624 112.227 19.8272C112.182 19.992 112.124 20.168 112.049 20.3538C111.975 20.5395 111.871 20.7463 111.735 20.9739C111.48 21.4335 111.14 21.7338 110.717 21.8735C110.29 22.009 109.662 22.076 108.835 22.076H103.754V19.9361H107.761H107.936C108.609 19.9543 109.09 19.883 109.375 19.7196C109.661 19.5576 109.794 19.2852 109.775 18.9039C109.813 18.6022 109.689 18.3675 109.407 18.1999C109.123 18.0323 108.724 17.9583 108.208 17.9764H107.992H103.782V11.9102H103.783Z" fill="#206AA9"/>
<path d="M94.0859 28.084H95.5833V29.3495H94.0859V28.084Z" fill="#F79722"/>
<path d="M100.483 24.6616L99.789 25.8754H99.1842H98.9133C98.6311 25.8754 98.416 25.8963 98.2693 25.9382C98.1227 25.9801 98.0081 26.0667 97.9271 26.1966C97.8447 26.3237 97.7916 26.4564 97.7665 26.5947C97.7413 26.733 97.7288 26.8741 97.7288 27.0179C97.7288 27.3713 97.7749 27.6214 97.8685 27.7708C97.9592 27.9231 98.0808 28.0306 98.233 28.0921C98.3769 28.1424 98.694 28.1689 99.1856 28.1689H100.235L99.5823 29.3492H98.423H98.1855C97.8042 29.3492 97.4773 29.3045 97.2036 29.2165C96.9298 29.1271 96.7175 28.9553 96.5652 28.6983C96.4158 28.4385 96.3096 28.1675 96.2454 27.8854C96.1825 27.6032 96.1504 27.3057 96.1504 26.9928C96.1504 26.6967 96.1755 26.4229 96.2244 26.1715C96.2733 25.9201 96.3795 25.6561 96.5401 25.3795C96.7091 25.1029 96.9703 24.9144 97.3209 24.8124C97.6715 24.7104 98.1115 24.6602 98.6395 24.6602H100.483V24.6616Z" fill="#F79722"/>
<path d="M103.198 24.6621C103.378 24.6621 103.57 24.6677 103.771 24.6789C103.972 24.69 104.168 24.7166 104.355 24.7571C104.542 24.7976 104.719 24.8605 104.884 24.9429C105.049 25.0267 105.19 25.1398 105.305 25.2837C105.482 25.5156 105.605 25.774 105.671 26.0603C105.736 26.3466 105.77 26.6581 105.77 26.9934C105.77 27.485 105.715 27.8929 105.606 28.2183C105.497 28.5438 105.359 28.7799 105.19 28.9265C105.024 29.0704 104.782 29.1849 104.464 29.2715C104.147 29.3581 103.761 29.4 103.31 29.4C102.892 29.4 102.522 29.3623 102.2 29.2883C101.877 29.2143 101.61 29.0844 101.402 28.9014C101.208 28.71 101.061 28.4265 100.962 28.0507C100.868 27.6862 100.822 27.2993 100.822 26.8872C100.822 26.7852 100.825 26.6986 100.831 26.6246C100.836 26.5506 100.842 26.457 100.847 26.3411C100.907 25.9821 101.011 25.6846 101.16 25.4485C101.271 25.2823 101.408 25.1468 101.572 25.042C101.737 24.9373 101.912 24.8577 102.098 24.8032C102.282 24.7487 102.47 24.711 102.66 24.6914C102.853 24.6719 103.032 24.6621 103.198 24.6621ZM102.412 26.5701C102.384 26.714 102.37 26.8858 102.37 27.0869C102.37 27.2727 102.384 27.4473 102.412 27.6093C102.44 27.7714 102.487 27.9125 102.553 28.0298C102.619 28.1485 102.708 28.2393 102.817 28.3022C102.927 28.365 103.06 28.3915 103.215 28.3804C103.359 28.3804 103.501 28.3538 103.642 28.2994C103.814 28.2267 103.934 28.1276 104 28.0032C104.066 27.8789 104.11 27.7462 104.133 27.6052C104.149 27.5367 104.163 27.4822 104.173 27.4375C104.183 27.3942 104.19 27.3537 104.193 27.3188C104.196 27.2839 104.198 27.249 104.201 27.2154C104.204 27.1819 104.205 27.1372 104.205 27.0842C104.205 26.8243 104.177 26.5995 104.123 26.4095C104.068 26.2195 103.989 26.0826 103.884 26.0016C103.785 25.9164 103.684 25.862 103.58 25.834C103.475 25.8075 103.373 25.7935 103.271 25.7935C103.028 25.7935 102.827 25.8606 102.667 25.9947C102.508 26.1301 102.423 26.3215 102.412 26.5701Z" fill="#F79722"/>
<path d="M108.94 29.3492V26.9914V26.7763C108.94 26.6324 108.926 26.5025 108.9 26.3866C108.873 26.2707 108.82 26.1813 108.741 26.1156C108.665 26.0486 108.54 26.0039 108.366 25.9829C108.193 25.962 107.996 25.9508 107.776 25.9508V29.3492H106.295V24.6602H107.776V25.6589L108.461 24.6602H108.668C109.269 24.6602 109.665 24.7063 109.857 24.7998C110.062 24.8934 110.256 25.1993 110.436 25.7175L111.097 24.6602H111.27C111.494 24.6602 111.721 24.6685 111.956 24.6853C112.191 24.7021 112.398 24.7635 112.578 24.8669C112.755 24.9716 112.881 25.1476 112.952 25.3963C113.023 25.6449 113.06 25.9508 113.06 26.314V26.5682V29.3492H111.579V26.9914V26.7763C111.579 26.6073 111.569 26.4718 111.55 26.3726C111.53 26.2721 111.476 26.1869 111.389 26.117C111.309 26.0416 111.181 25.9969 110.999 25.9857C110.911 25.9801 110.829 25.9759 110.752 25.9731C110.674 25.9703 110.597 25.969 110.522 25.969H110.42V29.3506H108.94V29.3492Z" fill="#F79722"/>
<path d="M27.8198 35.0486L27.5851 34.7315C27.5027 34.6337 27.4133 34.5415 27.3198 34.4521C26.8602 34.0247 26.2722 33.7258 25.6045 33.628C25.2413 33.5749 24.8851 33.5847 24.5457 33.649L24.8348 33.9898L24.86 34.0177L24.8334 34.0387C24.8474 34.0373 24.86 34.0345 24.874 34.0345C25.0919 34.0121 25.3153 34.0163 25.543 34.0513C26.3574 34.17 27.0362 34.6337 27.4552 35.2693C27.8184 35.8182 27.9874 36.4984 27.8841 37.1996C27.6592 38.7151 26.2512 39.7627 24.7357 39.5393C23.8487 39.4094 23.1196 38.8702 22.7145 38.1425C22.4282 37.6284 22.3011 37.0194 22.3946 36.3923C22.4198 36.2233 22.4589 36.0598 22.5134 35.9048C22.5176 35.8936 22.5203 35.8825 22.5245 35.8727L22.5036 35.8908L22.498 35.895L22.4798 35.8685L22.2145 35.4969C22.0985 35.7567 22.0175 36.0361 21.9742 36.3308C21.8666 37.0613 22.0133 37.7709 22.3513 38.3673C22.8207 39.2012 23.6559 39.8158 24.677 39.9653C26.4258 40.2237 28.0545 39.0141 28.3115 37.2625C28.4246 36.4579 28.2319 35.6799 27.8198 35.0486Z" fill="#206AA9"/>
<path d="M12.7863 12.2086C12.7332 12.1542 12.6801 12.0941 12.6256 12.0312C10.5905 12.0606 8.6713 12.4363 6.9728 13.0816C6.57331 13.2353 6.185 13.4015 5.81066 13.5817C5.71848 13.6948 5.63606 13.8136 5.56203 13.9323C5.55784 13.9421 5.54807 13.9588 5.5341 13.9826C5.47683 14.0887 5.34413 14.3332 5.17931 14.6824C5.29664 14.6181 5.41397 14.5539 5.5341 14.4924C7.29825 13.5845 9.50379 12.995 11.9202 12.8721C11.9496 12.8707 11.9789 12.8679 12.0082 12.8679C12.0306 12.8372 12.0585 12.8093 12.0906 12.7869L12.7038 12.3385L12.8212 12.2533C12.8226 12.2519 12.8254 12.2505 12.8268 12.2492C12.8128 12.2366 12.7988 12.224 12.7863 12.2086ZM21.2341 14.2829C21.2383 14.2913 21.2424 14.2996 21.2466 14.308C21.343 14.4966 21.4715 14.7564 21.6168 15.0735C21.6168 15.0749 21.6168 15.0749 21.6168 15.0749C21.6713 15.1936 21.7271 15.3179 21.783 15.452C23.4424 16.6965 24.4383 18.2959 24.4383 20.0391C24.4383 21.651 23.5863 23.1372 22.149 24.3356C21.9115 24.534 21.6573 24.7253 21.3891 24.9069C20.843 25.277 20.2368 25.6095 19.5761 25.9014C19.5747 25.9014 19.5747 25.9014 19.5733 25.9028C17.6862 26.7381 15.3787 27.2284 12.8868 27.2284C6.50766 27.2284 1.33813 24.0088 1.33813 20.0377C1.33813 18.1422 2.51563 16.4186 4.43901 15.1335C4.49209 15.0162 4.54237 14.9072 4.58987 14.8067C4.76866 14.4309 4.90973 14.1669 4.97259 14.0538C4.98376 14.0343 4.99075 14.0203 4.99773 14.0091C1.95691 15.7411 0 18.4495 0 21.4931C0 26.7199 5.77016 30.9578 12.8882 30.9578C14.3507 30.9578 15.7572 30.779 17.066 30.4494C17.506 30.339 17.9348 30.2119 18.3525 30.0681L18.0312 29.6169C17.6527 29.6839 17.1275 29.7021 16.5632 29.6923C15.3675 29.6742 13.9847 29.5303 13.3939 29.4618C14.6384 29.575 16.2014 29.3096 17.4935 29.0009C18.9 28.6657 19.9825 28.2802 19.9825 28.2802L20.6404 29.054C20.9812 28.8654 21.3095 28.6643 21.621 28.452C24.1771 26.7241 25.7764 24.2448 25.7764 21.4917C25.7764 18.6046 24.0137 16.0177 21.2341 14.2829ZM20.6767 14.2186C20.5776 14.0245 20.5147 13.9141 20.5077 13.9044C20.4938 13.882 20.4798 13.8597 20.4658 13.8387C20.1781 13.6837 19.8806 13.5398 19.5775 13.4043C17.7784 12.5997 15.6916 12.1109 13.4567 12.0396C13.4036 12.0997 13.352 12.1612 13.2989 12.2156C13.2849 12.2282 13.2737 12.2408 13.2598 12.2547L13.3855 12.3455L13.9917 12.7883C14.0294 12.8149 14.0601 12.8498 14.0853 12.8875C14.1146 12.8889 14.1439 12.8917 14.1733 12.8931C16.6665 13.0635 18.9196 13.7298 20.6767 14.7285C20.7927 14.7955 20.9072 14.8626 21.019 14.9324C20.8849 14.6363 20.7661 14.3932 20.6767 14.2186Z" fill="#206AA9"/>
<path d="M22.3905 36.3925C22.4156 36.2235 22.4547 36.0601 22.5092 35.9051C22.5134 35.8939 22.5162 35.8827 22.5204 35.8729L22.4994 35.8911L22.4938 35.8953L22.4757 35.8688L22.2103 35.4972L18.3943 30.1265L18.3537 30.0693L18.0325 29.6181C17.654 29.6851 17.1288 29.7033 16.5645 29.6935L17.0687 30.4506L22.3472 38.3676L22.6461 38.1846L22.7145 38.1441C22.4254 37.6301 22.2983 37.0197 22.3905 36.3925ZM27.5838 34.7318L27.3184 34.4524L21.6208 28.4532L20.4978 27.2715L17.4919 29.0007C18.8985 28.6655 19.981 28.28 19.981 28.28L20.6389 29.0538L24.5429 33.6465L24.8321 33.9873L24.8572 34.0152L24.8307 34.0362C24.8446 34.0348 24.8572 34.032 24.8712 34.032C25.0891 34.0096 25.3126 34.0138 25.5403 34.0487C26.3546 34.1675 27.0334 34.6312 27.4525 35.2667L27.5377 35.2151L27.8198 35.0446L27.5838 34.7318Z" fill="#206AA9"/>
<path d="M27.5371 35.2189C27.0217 34.4646 26.1543 33.9688 25.1709 33.9688C25.0564 33.9688 24.9446 33.9757 24.8329 33.9897L24.858 34.0176L24.8315 34.0386C24.8455 34.0372 24.858 34.0344 24.872 34.0344L25.115 34.3193C25.1332 34.3179 25.1527 34.3179 25.1709 34.3179C26.5593 34.3179 27.6851 35.4438 27.6851 36.8322C27.6851 38.2206 26.5593 39.3464 25.1709 39.3464C23.7825 39.3464 22.6567 38.2206 22.6567 36.8322C22.6567 36.6199 22.6832 36.4131 22.7321 36.2176L22.5086 35.9047C22.5128 35.8935 22.5156 35.8824 22.5198 35.8726L22.4988 35.8907L22.4779 35.86C22.4765 35.8628 22.4751 35.8656 22.4737 35.8684C22.3634 36.1701 22.3047 36.4956 22.3047 36.8336C22.3047 37.3211 22.4262 37.782 22.6427 38.1843C23.126 39.0852 24.0758 39.6984 25.1695 39.6984C26.7521 39.6984 28.0343 38.4161 28.0343 36.8336C28.0343 36.2344 27.8514 35.6784 27.5371 35.2189Z" fill="#206AA9"/>
<path d="M22.2208 18.6788C22.2068 18.6006 22.1928 18.5224 22.1775 18.4455C21.9051 17.0487 21.405 15.7721 21.0223 14.9312C20.8882 14.6351 20.7681 14.3934 20.6801 14.2174C20.5809 14.0233 20.5181 13.9129 20.5111 13.9032C20.4971 13.8808 20.4831 13.8585 20.4692 13.8375C20.2485 13.4967 19.9482 13.1796 19.5808 12.8933C18.3712 11.9434 16.4255 11.3093 14.0816 11.1305C13.942 11.1193 13.8079 11.1668 13.7073 11.2604C13.6402 11.3219 13.5634 11.4085 13.4782 11.5076C13.4726 11.5146 13.467 11.5216 13.4601 11.5286C13.3246 11.685 13.1849 11.8429 13.0466 11.8834C12.9782 11.8638 12.9083 11.8149 12.8385 11.7507C12.77 11.685 12.6988 11.6054 12.6276 11.523L12.6066 11.4979C12.5298 11.4085 12.453 11.3219 12.3845 11.2604C12.284 11.1668 12.1499 11.1207 12.0144 11.1305C9.95271 11.2828 8.19833 11.7968 6.97614 12.5706C6.50542 12.8695 6.11292 13.2075 5.81401 13.5805C5.72182 13.6936 5.63941 13.8124 5.56538 13.9311C5.56119 13.9409 5.55141 13.9576 5.53744 13.9814C5.48017 14.0875 5.34748 14.332 5.18265 14.6812C4.79155 15.5067 4.2021 16.9174 3.90319 18.4804C3.88643 18.5629 3.87246 18.6453 3.85849 18.7277C3.56237 20.4765 3.65456 22.3859 4.80273 23.8623C4.80971 23.8707 4.8153 23.8791 4.82228 23.8874C4.89212 23.9768 4.99129 24.0397 5.10164 24.0648C5.13656 24.0718 5.17427 24.076 5.21199 24.076H20.8826C20.9371 24.076 20.993 24.0662 21.0447 24.0481C21.1257 24.0215 21.1969 23.9726 21.2542 23.9084C21.2612 23.9014 21.2667 23.8944 21.2723 23.886C22.4442 22.4012 22.5294 20.4569 22.2208 18.6788ZM13.9559 20.3005C13.9531 20.3591 13.9392 20.415 13.9112 20.4681L13.3707 21.4724C13.305 21.5925 13.1807 21.6679 13.0438 21.6679C12.9069 21.6679 12.7812 21.5925 12.717 21.4724L12.1764 20.4681C12.1499 20.415 12.1345 20.3591 12.1317 20.3005L12.0116 15.7679L11.9403 13.0944C11.9389 13.012 11.9655 12.931 12.0116 12.8653C12.0339 12.8346 12.0619 12.8067 12.094 12.7843L12.7072 12.3359L12.8245 12.2507C12.8259 12.2493 12.8287 12.2479 12.8301 12.2466C12.96 12.1558 13.1332 12.1572 13.2617 12.2507H13.2631L13.3888 12.3415L13.995 12.7843C14.0327 12.8109 14.0635 12.8458 14.0886 12.8835C14.1277 12.9449 14.1501 13.0176 14.1473 13.0944L14.0774 15.7651L13.9559 20.3005Z" fill="#F79722"/>
<path d="M12.9573 10.5109C15.8543 10.5109 18.212 8.15309 18.212 5.25474C18.212 2.35779 15.8543 0 12.9573 0C10.059 0 7.70117 2.35779 7.70117 5.25474C7.70117 8.15309 10.059 10.5109 12.9573 10.5109Z" fill="#F79722"/>
<path d="M21.274 23.8885C21.2684 23.8955 21.2614 23.9025 21.2558 23.9109C21.1874 23.9584 21.1175 24.0059 21.0477 24.0506C19.1928 25.2532 16.3056 26.0256 13.065 26.0256C9.83702 26.0256 6.96102 25.2602 5.10468 24.0659C5.00272 24.0003 4.90215 23.9332 4.80577 23.8648C3.65761 22.3884 3.56402 20.479 3.86014 18.7288C5.32538 17.1183 8.38436 15.9575 12.0118 15.769L12.132 20.3016C12.1334 20.3602 12.1487 20.4161 12.1767 20.4678L12.7172 21.4721C12.7815 21.5922 12.9072 21.669 13.0441 21.669C13.1809 21.669 13.3067 21.5936 13.3723 21.4721L13.9129 20.4678C13.9408 20.4161 13.9562 20.3588 13.9576 20.3016L14.0777 15.7676C17.6828 15.9492 20.732 17.0903 22.221 18.6799C22.5311 20.4552 22.4459 22.401 21.274 23.8885Z" fill="#F79722"/>
</g>
<defs>
<clipPath id="clip0">
<rect width="113.062" height="40" fill="white"/>
</clipPath>
</defs>
</svg>
