<svg width="45" height="45" viewBox="0 0 45 45" fill="none" xmlns="http://www.w3.org/2000/svg">
<rect x="0.5" y="0.5" width="44" height="44" rx="9.5" fill="white" stroke="#164A77"/>
<circle cx="22.8853" cy="16.9712" r="4.97123" stroke="#164A77" stroke-width="2" stroke-linecap="round" stroke-linejoin="round"/>
<path fill-rule="evenodd" clip-rule="evenodd" d="M15 28.8565C14.9987 28.507 15.0768 28.1618 15.2286 27.847C15.7048 26.8946 17.0476 26.3899 18.1618 26.1613C18.9654 25.9898 19.7801 25.8753 20.5998 25.8185C22.1175 25.6852 23.6439 25.6852 25.1615 25.8185C25.9812 25.8759 26.7958 25.9905 27.5995 26.1613C28.7138 26.3899 30.0566 26.847 30.5327 27.847C30.8379 28.4887 30.8379 29.2337 30.5327 29.8755C30.0566 30.8754 28.7138 31.3326 27.5995 31.5516C26.7969 31.7302 25.9819 31.848 25.1615 31.904C23.9263 32.0087 22.6853 32.0278 21.4474 31.9611C21.1617 31.9611 20.8855 31.9611 20.5998 31.904C19.7825 31.8487 18.9706 31.7309 18.1713 31.5516C17.0476 31.3326 15.7143 30.8754 15.2286 29.8755C15.0776 29.557 14.9995 29.2089 15 28.8565Z" stroke="#164A77" stroke-width="2" stroke-linecap="round" stroke-linejoin="round"/>
</svg>
