<svg width="45" height="45" viewBox="0 0 45 45" fill="none" xmlns="http://www.w3.org/2000/svg">
<rect opacity="0.1" width="45" height="45" rx="5" fill="#0D71BA"/>
<path fill-rule="evenodd" clip-rule="evenodd" d="M28.2166 12.1579L28.2178 13.0434C31.4717 13.2984 33.6211 15.5157 33.6246 18.916L33.6375 28.869C33.6421 32.5762 31.3131 34.8573 27.5798 34.8632L18.4607 34.875C14.7507 34.8797 12.3925 32.5444 12.3878 28.8265L12.375 18.9904C12.3703 15.5677 14.444 13.3563 17.6979 13.0576L17.6967 12.1721C17.6956 11.6526 18.0805 11.2618 18.5936 11.2618C19.1068 11.2606 19.4917 11.6502 19.4928 12.1697L19.494 12.9962L26.4217 12.9868L26.4205 12.1603C26.4194 11.6408 26.8042 11.2512 27.3174 11.25C27.8189 11.2488 28.2154 11.6384 28.2166 12.1579ZM14.1727 19.3552L31.8302 19.3316V18.9184C31.78 16.38 30.5064 15.0482 28.2205 14.8498L28.2217 15.7589C28.2217 16.2666 27.8263 16.6692 27.3248 16.6692C26.8116 16.6704 26.4256 16.269 26.4256 15.7613L26.4244 14.805L19.4967 14.8144L19.4979 15.7696C19.4979 16.2784 19.1142 16.6798 18.601 16.6798C18.0879 16.681 17.7018 16.2808 17.7018 15.7719L17.7007 14.8628C15.4264 15.0907 14.168 16.4272 14.1715 18.988L14.1727 19.3552ZM26.8335 24.7214V24.7344C26.8452 25.2775 27.2883 25.6895 27.826 25.6777C28.3508 25.6647 28.7695 25.2149 28.7579 24.6718C28.7334 24.1523 28.3123 23.7284 27.7887 23.7296C27.2522 23.7414 26.8323 24.1783 26.8335 24.7214ZM27.7962 30.0224C27.2597 30.0106 26.827 29.5631 26.8258 29.02C26.8142 28.4769 27.2445 28.0271 27.781 28.0141H27.7927C28.3408 28.0141 28.7852 28.4615 28.7852 29.0164C28.7863 29.5714 28.3431 30.0212 27.7962 30.0224ZM22.0285 24.7402C22.0518 25.2833 22.4962 25.7072 23.0327 25.6836C23.5575 25.6588 23.9762 25.2101 23.9529 24.667C23.9401 24.1357 23.5085 23.7225 22.9837 23.7237C22.4472 23.7473 22.0274 24.1971 22.0285 24.7402ZM23.0371 29.9693C22.5006 29.993 22.0574 29.5691 22.0329 29.026C22.0329 28.4829 22.4516 28.0342 22.9881 28.0095C23.5129 28.0083 23.9456 28.4215 23.9573 28.9516C23.9818 29.4959 23.5619 29.9446 23.0371 29.9693ZM17.2227 24.7813C17.246 25.3244 17.6903 25.7495 18.2268 25.7247C18.7517 25.7011 19.1703 25.2512 19.1459 24.7081C19.1342 24.1768 18.7027 23.7636 18.1767 23.7648C17.6402 23.7884 17.2215 24.2382 17.2227 24.7813ZM18.2316 29.9753C17.6951 30 17.2519 29.575 17.2274 29.0319C17.2263 28.4888 17.6461 28.039 18.1826 28.0154C18.7075 28.0142 19.1401 28.4274 19.1518 28.9587C19.1763 29.5018 18.7576 29.9516 18.2316 29.9753Z" fill="#0D71BA"/>
</svg>
