<svg width="35" height="35" viewBox="0 0 35 35" fill="none" xmlns="http://www.w3.org/2000/svg">
<path d="M1.09372 10.9375H33.9062C34.51 10.9375 34.9999 10.4475 34.9999 9.84378C34.9999 9.24001 34.5099 8.75006 33.9062 8.75006H1.09372C0.489947 8.75006 0 9.2401 0 9.84378C0 10.4475 0.490038 10.9375 1.09372 10.9375Z" fill="#206AA9"/>
<path d="M33.9062 16.4063H1.09372C0.489947 16.4063 0 16.8963 0 17.5C0 18.1037 0.490038 18.5937 1.09372 18.5937H33.9062C34.51 18.5937 34.9999 18.1037 34.9999 17.5C34.9999 16.8963 34.51 16.4063 33.9062 16.4063Z" fill="#206AA9"/>
<path d="M33.9062 24.0625H12.0312C11.4274 24.0625 10.9375 24.5526 10.9375 25.1563C10.9375 25.76 11.4275 26.25 12.0312 26.25H33.9062C34.51 26.25 34.9999 25.7599 34.9999 25.1563C35 24.5525 34.51 24.0625 33.9062 24.0625Z" fill="#206AA9"/>
</svg>
