<svg width="45" height="45" viewBox="0 0 45 45" fill="none" xmlns="http://www.w3.org/2000/svg">
<rect width="45" height="45" rx="10" fill="#27AFFC"/>
<path d="M32.4274 13.5783C31.9274 13.0673 31.1874 12.8783 30.4974 13.0783L14.4074 17.7273C13.6794 17.9293 13.1634 18.5063 13.0244 19.2383C12.8824 19.9843 13.3784 20.9323 14.0264 21.3283L19.0574 24.4003C19.5734 24.7163 20.2394 24.6373 20.6664 24.2093L26.4274 18.4483C26.7174 18.1473 27.1974 18.1473 27.4874 18.4483C27.7774 18.7373 27.7774 19.2083 27.4874 19.5083L21.7164 25.2693C21.2884 25.6973 21.2084 26.3613 21.5234 26.8783L24.5974 31.9283C24.9574 32.5273 25.5774 32.8683 26.2574 32.8683C26.3374 32.8683 26.4274 32.8683 26.5074 32.8573C27.2874 32.7583 27.9074 32.2273 28.1374 31.4773L32.9074 15.5083C33.1174 14.8283 32.9274 14.0883 32.4274 13.5783Z" fill="white"/>
<path opacity="0.4" fill-rule="evenodd" clip-rule="evenodd" d="M14.0115 27.8079C13.8195 27.8079 13.6275 27.7349 13.4815 27.5879C13.1885 27.2949 13.1885 26.8209 13.4815 26.5279L14.8465 25.1619C15.1395 24.8699 15.6145 24.8699 15.9075 25.1619C16.1995 25.4549 16.1995 25.9299 15.9075 26.2229L14.5415 27.5879C14.3955 27.7349 14.2035 27.8079 14.0115 27.8079ZM17.7727 29.0003C17.5807 29.0003 17.3887 28.9273 17.2427 28.7803C16.9497 28.4873 16.9497 28.0133 17.2427 27.7203L18.6077 26.3543C18.9007 26.0623 19.3757 26.0623 19.6687 26.3543C19.9607 26.6473 19.9607 27.1223 19.6687 27.4153L18.3027 28.7803C18.1567 28.9273 17.9647 29.0003 17.7727 29.0003ZM18.0264 32.5683C18.1724 32.7153 18.3644 32.7883 18.5564 32.7883C18.7484 32.7883 18.9404 32.7153 19.0864 32.5683L20.4524 31.2033C20.7444 30.9103 20.7444 30.4353 20.4524 30.1423C20.1594 29.8503 19.6844 29.8503 19.3914 30.1423L18.0264 31.5083C17.7334 31.8013 17.7334 32.2753 18.0264 32.5683Z" fill="white"/>
</svg>
