<svg width="18" height="14" viewBox="0 0 18 14" fill="none" xmlns="http://www.w3.org/2000/svg">
<path fill-rule="evenodd" clip-rule="evenodd" d="M9.00218 0.00421652L8.75175 0C5.12844 0 1.86311 2.5577 0.0533005 6.74261C-0.0177668 6.90694 -0.0177668 7.09306 0.0533005 7.25739L0.178709 7.53969C1.96558 11.4565 5.05351 13.8813 8.49782 13.9958L8.74825 14C12.3716 14 15.6369 11.4423 17.4467 7.25739C17.5187 7.09099 17.5177 6.90235 17.4441 6.73666L17.3222 6.46243C15.531 2.5383 12.4418 0.118532 9.00218 0.00421652ZM8.75762 1.30409L8.9667 1.30859L9.20033 1.32074C11.9979 1.51883 14.5707 3.59318 16.1251 7.00006L16.117 7.02108C14.5236 10.5012 11.8621 12.588 8.97627 12.6927L8.75325 12.696L8.52831 12.693L8.29528 12.6809C5.58462 12.4889 3.08532 10.5309 1.5215 7.31558L1.3735 7.00006L1.5105 6.70876C3.15953 3.30235 5.85479 1.30483 8.75762 1.30409ZM8.74995 3.59886C6.8596 3.59886 5.32782 5.12107 5.32782 6.99975C5.32782 8.87773 6.85976 10.3998 8.74995 10.3998C10.6402 10.3998 12.1729 8.87763 12.1729 6.99975C12.1729 5.12117 10.6404 3.59886 8.74995 3.59886ZM8.74965 4.90219C9.9153 4.90219 10.8601 5.84074 10.8601 6.99906C10.8601 8.15662 9.91519 9.09507 8.74965 9.09507C7.58434 9.09507 6.64002 8.15685 6.64002 6.99906C6.64002 5.84051 7.58423 4.90219 8.74965 4.90219Z" fill="#999999"/>
</svg>
