<svg width="19" height="18" viewBox="0 0 19 18" fill="none" xmlns="http://www.w3.org/2000/svg">
<path opacity="0.4" d="M10.3986 0.581319L12.5079 4.82011C12.6633 5.12721 12.9599 5.34048 13.302 5.38787L18.0398 6.0779C18.3165 6.11676 18.5676 6.26273 18.7372 6.48548C18.905 6.70538 18.977 6.98405 18.9362 7.25798C18.9031 7.48546 18.796 7.69588 18.6321 7.85702L15.199 11.1849C14.9479 11.4171 14.8342 11.7612 14.8948 12.0977L15.7401 16.7763C15.8301 17.3412 15.4558 17.8739 14.8948 17.981C14.6636 18.018 14.4267 17.9791 14.2183 17.873L9.99209 15.6711C9.67845 15.5128 9.30795 15.5128 8.9943 15.6711L4.76813 17.873C4.24886 18.1488 3.60546 17.9611 3.31645 17.4493C3.20937 17.2455 3.17147 17.0133 3.20653 16.7867L4.05177 12.1072C4.11241 11.7716 3.99775 11.4257 3.74759 11.1935L0.314542 7.86744C-0.0938613 7.47314 -0.10618 6.82386 0.287063 6.41534C0.295591 6.40681 0.305066 6.39733 0.314542 6.38785C0.477525 6.22198 0.691676 6.11676 0.922883 6.08928L5.66074 5.39829C6.00187 5.34995 6.29846 5.13858 6.45481 4.82958L8.4883 0.581319C8.66928 0.217344 9.04452 -0.0091922 9.45198 0.0002863H9.57895C9.9324 0.0429396 10.2404 0.261893 10.3986 0.581319" fill="#206AA9"/>
<path d="M9.46612 15.5531C9.28261 15.5587 9.10383 15.6081 8.94303 15.6962L4.73752 17.8931C4.22295 18.1387 3.60717 17.9481 3.31866 17.456C3.21178 17.255 3.17299 17.0246 3.20894 16.7989L4.0489 12.1293C4.10566 11.7899 3.99215 11.4447 3.74527 11.2058L0.310677 7.88066C-0.0970088 7.48149 -0.104576 6.82632 0.294597 6.41767C0.300272 6.41198 0.305002 6.40724 0.310677 6.4025C0.473374 6.24132 0.683365 6.13513 0.909437 6.10194L5.65127 5.40411C5.99464 5.36049 6.2926 5.14621 6.44394 4.83522L8.50508 0.53348C8.70088 0.186459 9.0764 -0.0202367 9.47368 0.00157062C9.46612 0.28317 9.46612 15.3615 9.46612 15.5531" fill="#206AA9"/>
</svg>
