<svg width="45" height="45" viewBox="0 0 45 45" fill="none" xmlns="http://www.w3.org/2000/svg">
<circle cx="22.5" cy="22.5" r="22.5" fill="#EDFEFE"/>
<path d="M22.5001 0C10.0735 0 0 10.0529 0 22.4542C0 27.858 1.91387 32.816 5.10087 36.6905C5.59255 32.7615 9.52473 29.4386 15.0386 27.865C17.053 29.738 19.655 30.8745 22.4999 30.8745C25.278 30.8745 27.829 29.7952 29.8229 28.0007C35.3844 29.7119 39.2321 33.229 39.3586 37.3171C42.8663 33.357 45 28.1557 45 22.4542C45 10.0529 34.9265 0 22.5001 0ZM22.5001 28.2154C21.0637 28.2154 19.7103 27.8216 18.5085 27.1395C15.6124 25.4949 13.6184 22.1294 13.6184 18.2439C13.6184 12.7456 17.6026 8.27226 22.5001 8.27226C27.398 8.27226 31.3817 12.7456 31.3817 18.2439C31.3817 22.1891 29.3253 25.5961 26.3571 27.2121C25.1879 27.8484 23.8831 28.2154 22.5001 28.2154Z" fill="#00BABA"/>
</svg>
