<svg width="8" height="8" viewBox="0 0 8 8" fill="none" xmlns="http://www.w3.org/2000/svg">
<path d="M5.48552 3.78509C5.4662 3.76575 5.4662 3.73427 5.48552 3.71493L7.8466 1.35269C8.0485 1.15072 8.0485 0.822074 7.8466 0.620091L7.37854 0.151791C7.2807 0.0538962 7.15062 0 7.01226 0C6.87389 0 6.7438 0.0538962 6.64597 0.151776L4.28489 2.51404C4.27294 2.52599 4.25931 2.52851 4.25 2.52851C4.24068 2.52851 4.22705 2.526 4.2151 2.51404L1.85401 0.151776C1.75617 0.0538962 1.6261 0 1.48772 0C1.34934 0 1.21928 0.0538962 1.12144 0.151776L0.653374 0.620091C0.451479 0.822074 0.451479 1.15072 0.653374 1.35269L3.01445 3.71493C3.03378 3.73427 3.03378 3.76575 3.01445 3.78509L0.653374 6.14733C0.451494 6.34931 0.451494 6.67794 0.653374 6.87992L1.12144 7.34822C1.21928 7.4461 1.34935 7.5 1.48772 7.5C1.62608 7.5 1.75617 7.4461 1.85401 7.34822L4.21509 4.98599C4.22704 4.97403 4.24065 4.97152 4.24998 4.97152C4.25931 4.97152 4.27291 4.97403 4.28487 4.986L6.64595 7.34824C6.74379 7.44612 6.87386 7.50002 7.01224 7.50002C7.15062 7.50002 7.28068 7.44612 7.37852 7.34824L7.84659 6.87994C8.04847 6.67797 8.04847 6.34932 7.84659 6.14734L5.48552 3.78509Z" fill="white"/>
</svg>
