<svg width="23" height="15" viewBox="0 0 23 15" fill="none" xmlns="http://www.w3.org/2000/svg">
<path d="M11.5914 5.87771L18.5995 12.8859L18.5996 12.8859C19.2568 13.5431 20.3224 13.5431 20.9797 12.8859L20.9799 12.8857C21.6369 12.2284 21.637 11.163 20.9799 10.5057L20.9797 10.5056L12.7815 2.30736L12.7814 2.30725C12.1241 1.65019 11.0586 1.65019 10.4014 2.30725L10.4012 2.30736L2.20297 10.5056L2.19682 10.5118L2.19077 10.5181C1.54499 11.1867 1.56352 12.2523 2.2322 12.8981L2.23224 12.8981C2.88448 13.528 3.91853 13.528 4.57081 12.8981L4.57706 12.892L4.5832 12.8859L11.5914 5.87771Z" fill="white" stroke="white" stroke-width="2"/>
</svg>
