<svg width="10" height="10" viewBox="0 0 10 10" fill="none" xmlns="http://www.w3.org/2000/svg">
<g clip-path="url(#clip0)">
<path d="M6.6472 5.04679C6.62143 5.021 6.62143 4.97902 6.6472 4.95323L9.79531 1.80359C10.0645 1.5343 10.0645 1.0961 9.79531 0.826788L9.17122 0.202388C9.04077 0.0718615 8.86733 0 8.68285 0C8.49836 0 8.32491 0.0718616 8.19446 0.202368L5.04635 3.35206C5.03042 3.36799 5.01225 3.37134 4.99983 3.37134C4.98741 3.37134 4.96924 3.368 4.95331 3.35206L1.80518 0.202368C1.67474 0.0718616 1.5013 0 1.31679 0C1.13229 0 0.958873 0.0718616 0.828425 0.202368L0.204336 0.826788C-0.0648568 1.0961 -0.0648568 1.5343 0.204336 1.80359L3.35244 4.95323C3.37821 4.97902 3.37821 5.021 3.35244 5.04679L0.204336 8.19643C-0.0648373 8.46574 -0.0648373 8.90392 0.204336 9.17323L0.828425 9.79763C0.958873 9.92814 1.13231 10 1.31679 10C1.50128 10 1.67474 9.92814 1.80518 9.79763L4.95329 6.64798C4.96922 6.63203 4.98738 6.6287 4.99981 6.6287C5.01225 6.6287 5.03038 6.63203 5.04633 6.648L8.19444 9.79765C8.32489 9.92816 8.49832 10 8.68283 10C8.86733 10 9.04075 9.92816 9.1712 9.79765L9.79529 9.17325C10.0645 8.90396 10.0645 8.46576 9.79529 8.19645L6.6472 5.04679Z" fill="#999999"/>
</g>
<defs>
<clipPath id="clip0">
<rect width="10" height="10" fill="white"/>
</clipPath>
</defs>
</svg>
