<svg width="50" height="50" viewBox="0 0 50 50" fill="none" xmlns="http://www.w3.org/2000/svg">
<circle opacity="0.3" cx="25" cy="25" r="25" fill="#BEE1FF"/>
<g clip-path="url(#clip0)">
<path d="M13.334 19.3173V37.778H20.4635V17.9805L13.334 19.3173ZM18.4267 35.7409H15.3711V33.704H18.4267V35.7409ZM18.4267 31.6669H15.3711V29.6298H18.4267V31.6669ZM18.4267 27.5929H15.3711V25.5558H18.4267V27.5929ZM18.4267 23.5187H15.3711V21.4818H18.4267V23.5187Z" fill="#0D71BA"/>
<path d="M22.5 13.334V37.7784H37.7778V16.1986L22.5 13.334ZM28.6111 35.7413H25.5556V33.7045H28.6111V35.7413ZM28.6111 31.6673H25.5556V29.6302H28.6111V31.6673ZM28.6111 27.5933H25.5556V25.5562H28.6111V27.5933ZM28.6111 23.5191H25.5556V21.4822H28.6111V23.5191ZM28.6111 19.4451H25.5556V17.408H28.6111V19.4451ZM34.7222 35.7413H31.6667V33.7045H34.7222V35.7413ZM34.7222 31.6673H31.6667V29.6302H34.7222V31.6673ZM34.7222 27.5933H31.6667V25.5562H34.7222V27.5933ZM34.7222 23.5191H31.6667V21.4822H34.7222V23.5191Z" fill="#0D71BA"/>
</g>
<defs>
<clipPath id="clip0">
<rect width="24.4444" height="24.4444" fill="white" transform="translate(13.334 13.334)"/>
</clipPath>
</defs>
</svg>
