<svg width="30" height="30" viewBox="0 0 30 30" fill="none" xmlns="http://www.w3.org/2000/svg">
<circle cx="15" cy="15" r="14.25" fill="white" stroke="#206AA9" stroke-width="1.5"/>
<path d="M19.1028 13.3574C19.1028 13.3574 18.7506 17.7262 18.5462 19.5665C18.4489 20.4455 17.906 20.9605 17.0167 20.9768C15.3243 21.0072 13.6299 21.0092 11.9382 20.9735C11.0826 20.956 10.5487 20.4345 10.4534 19.5711C10.2477 17.7146 9.89746 13.3574 9.89746 13.3574" stroke="#206AA9" stroke-width="1.5" stroke-linecap="round" stroke-linejoin="round"/>
<path d="M20.0002 11.2633H9" stroke="#206AA9" stroke-width="1.5" stroke-linecap="round" stroke-linejoin="round"/>
<path d="M17.8808 11.2632C17.3716 11.2632 16.9331 10.9032 16.8332 10.4044L16.6755 9.61559C16.5782 9.25169 16.2487 9 15.8731 9H13.1273C12.7517 9 12.4222 9.25169 12.3249 9.61559L12.1672 10.4044C12.0673 10.9032 11.6288 11.2632 11.1196 11.2632" stroke="#206AA9" stroke-width="1.5" stroke-linecap="round" stroke-linejoin="round"/>
</svg>
