<svg width="14" height="15" viewBox="0 0 14 15" fill="none" xmlns="http://www.w3.org/2000/svg">
<path opacity="0.4" d="M12.4825 5.61632C12.4825 5.66732 12.0828 10.7229 11.8545 12.8506C11.7115 14.1563 10.8697 14.9482 9.60713 14.9707C8.637 14.9925 7.68731 15 6.75293 15C5.76092 15 4.7908 14.9925 3.84913 14.9707C2.62882 14.9415 1.78635 14.1338 1.65067 12.8506C1.4158 10.7154 1.02338 5.66732 1.01608 5.61632C1.00879 5.46257 1.05839 5.31633 1.15905 5.19783C1.25825 5.08834 1.40121 5.02234 1.55147 5.02234H11.9544C12.1039 5.02234 12.2396 5.08834 12.3468 5.19783C12.4467 5.31633 12.4971 5.46257 12.4825 5.61632Z" fill="#999999"/>
<path d="M13.5 2.98265C13.5 2.67441 13.2571 2.43291 12.9653 2.43291H10.7786C10.3336 2.43291 9.94702 2.11643 9.84782 1.67019L9.72528 1.12346C9.55387 0.462734 8.96231 0 8.29855 0H5.20218C4.53112 0 3.9454 0.462734 3.76743 1.15946L3.65291 1.67094C3.55298 2.11643 3.16639 2.43291 2.72217 2.43291H0.53539C0.242895 2.43291 0 2.67441 0 2.98265V3.26764C0 3.56837 0.242895 3.81737 0.53539 3.81737H12.9653C13.2571 3.81737 13.5 3.56837 13.5 3.26764V2.98265Z" fill="#999999"/>
</svg>
