<svg width="45" height="45" viewBox="0 0 45 45" fill="none" xmlns="http://www.w3.org/2000/svg">
<rect opacity="0.1" width="45" height="45" rx="5" fill="#27AFFC"/>
<path fill-rule="evenodd" clip-rule="evenodd" d="M12.375 21.0754C12.375 15.6418 16.9156 11.25 22.4079 11.25C27.9157 11.25 32.4563 15.6418 32.4563 21.0754C32.4563 23.8134 31.4605 26.3554 29.8215 28.5099C28.0133 30.8865 25.7847 32.9572 23.2762 34.5826C22.7021 34.9582 22.184 34.9865 21.5538 34.5826C19.031 32.9572 16.8024 30.8865 15.0098 28.5099C13.3696 26.3554 12.375 23.8134 12.375 21.0754ZM19.1008 21.3813C19.1008 23.2015 20.5862 24.6332 22.4074 24.6332C24.2298 24.6332 25.7295 23.2015 25.7295 21.3813C25.7295 19.5752 24.2298 18.0739 22.4074 18.0739C20.5862 18.0739 19.1008 19.5752 19.1008 21.3813Z" fill="#27AFFC"/>
</svg>
