<svg width="387" height="35" viewBox="0 0 387 35" fill="none" xmlns="http://www.w3.org/2000/svg">
<line x1="35" y1="17" x2="176" y2="17" stroke="#206AA9" stroke-width="2"/>
<circle cx="193.5" cy="17.5" r="17.5" fill="#206AA9"/>
<path d="M189.192 17.9893C189.192 19.6162 188.785 20.8809 187.969 21.7832C187.158 22.6855 186.007 23.1367 184.517 23.1367C183.008 23.1367 181.848 22.6901 181.037 21.7969C180.23 20.8991 179.827 19.6253 179.827 17.9756C179.827 16.3258 180.233 15.0589 181.044 14.1748C181.86 13.2907 183.022 12.8486 184.53 12.8486C186.016 12.8486 187.164 13.2975 187.976 14.1953C188.787 15.0931 189.192 16.3577 189.192 17.9893ZM181.563 17.9893C181.563 19.2197 181.812 20.154 182.309 20.792C182.805 21.4255 183.541 21.7422 184.517 21.7422C185.487 21.7422 186.219 21.4277 186.711 20.7988C187.208 20.1699 187.456 19.2334 187.456 17.9893C187.456 16.7633 187.21 15.8337 186.718 15.2002C186.23 14.5667 185.501 14.25 184.53 14.25C183.55 14.25 182.81 14.5667 182.309 15.2002C181.812 15.8337 181.563 16.7633 181.563 17.9893ZM194.791 23H193.157V14.4072H190.218V13.0059H197.73V14.4072H194.791V23ZM205.886 16.0273C205.886 17.071 205.544 17.8708 204.86 18.4268C204.177 18.9827 203.204 19.2607 201.941 19.2607H200.902V23H199.269V13.0059H202.146C203.395 13.0059 204.329 13.2611 204.949 13.7715C205.574 14.2819 205.886 15.0339 205.886 16.0273ZM200.902 17.8867H201.771C202.609 17.8867 203.224 17.7409 203.616 17.4492C204.008 17.1576 204.204 16.7018 204.204 16.082C204.204 15.5078 204.029 15.0794 203.678 14.7969C203.327 14.5143 202.78 14.373 202.037 14.373H200.902V17.8867Z" fill="white"/>
<circle cx="369.5" cy="17.5" r="16" fill="#999999" stroke="#999999" stroke-width="3"/>
<line x1="211" y1="17" x2="352" y2="17" stroke="#999999" stroke-width="2"/>
<g clip-path="url(#clip0)">
<path d="M386.25 17.4885C386.25 26.7325 378.751 34.227 369.5 34.227C360.249 34.227 352.75 26.7325 352.75 17.4885C352.75 8.24455 360.249 0.75 369.5 0.75C378.751 0.75 386.25 8.24455 386.25 17.4885Z" fill="white" stroke="#999999" stroke-width="1.5"/>
<path d="M368.98 24.854L362 19.4161L363.985 16.869L368.271 20.2082L375.345 10L378 11.8389L368.98 24.854Z" fill="#999999"/>
</g>
<path fill-rule="evenodd" clip-rule="evenodd" d="M0 17.5C0 7.84175 7.84 0 17.5 0C27.1775 0 35 7.84175 35 17.5C35 27.1618 27.1775 35 17.5 35C7.84 35 0 27.1618 0 17.5ZM15.9585 10.8676C15.9585 10.0294 16.6585 9.32764 17.4985 9.32764C18.3385 9.32764 19.021 10.0294 19.021 10.8676V18.6026C19.021 19.4444 18.3385 20.1251 17.4985 20.1251C16.6585 20.1251 15.9585 19.4444 15.9585 18.6026V10.8676ZM17.519 25.6929C16.6615 25.6929 15.979 24.9929 15.979 24.1529C15.979 23.3129 16.6615 22.6304 17.5015 22.6304C18.359 22.6304 19.0415 23.3129 19.0415 24.1529C19.0415 24.9929 18.359 25.6929 17.519 25.6929Z" fill="#206AA9"/>
<defs>
<clipPath id="clip0">
<rect width="35" height="35" fill="white" transform="translate(352)"/>
</clipPath>
</defs>
</svg>
