<svg width="35" height="35" viewBox="0 0 35 35" fill="none" xmlns="http://www.w3.org/2000/svg">
<path fill-rule="evenodd" clip-rule="evenodd" d="M0 17.5C0 7.84175 7.84 0 17.5 0C27.1775 0 35 7.84175 35 17.5C35 27.1618 27.1775 35 17.5 35C7.84 35 0 27.1618 0 17.5ZM15.9585 10.8676C15.9585 10.0294 16.6585 9.32764 17.4985 9.32764C18.3385 9.32764 19.021 10.0294 19.021 10.8676V18.6026C19.021 19.4444 18.3385 20.1251 17.4985 20.1251C16.6585 20.1251 15.9585 19.4444 15.9585 18.6026V10.8676ZM17.519 25.6929C16.6615 25.6929 15.979 24.9929 15.979 24.1529C15.979 23.3129 16.6615 22.6304 17.5015 22.6304C18.359 22.6304 19.0415 23.3129 19.0415 24.1529C19.0415 24.9929 18.359 25.6929 17.519 25.6929Z" fill="#206AA9"/>
</svg>
