<svg width="30" height="30" viewBox="0 0 30 30" fill="none" xmlns="http://www.w3.org/2000/svg">
<circle cx="15" cy="15" r="15" fill="#206AA9"/>
<path opacity="0.4" d="M20.3284 19.6355H16.5322C16.1618 19.6355 15.8606 19.9415 15.8606 20.3177C15.8606 20.6947 16.1618 21 16.5322 21H20.3284C20.6988 21 21 20.6947 21 20.3177C21 19.9415 20.6988 19.6355 20.3284 19.6355Z" fill="white"/>
<path d="M13.8727 11.6026L17.4699 14.5093C17.5567 14.5788 17.5715 14.7064 17.5038 14.7952L13.2392 20.3521C12.9711 20.6954 12.576 20.8896 12.1527 20.8968L9.82464 20.9254C9.70048 20.9269 9.59183 20.8409 9.56361 20.7176L9.0345 18.4172C8.94279 17.9944 9.0345 17.5572 9.30259 17.2204L13.5884 11.637C13.6575 11.5474 13.7852 11.5316 13.8727 11.6026Z" fill="white"/>
<path opacity="0.4" d="M19.0804 12.777L18.3869 13.6427C18.317 13.7308 18.1915 13.7452 18.1047 13.6749C17.2616 12.9927 15.1029 11.2419 14.5039 10.7567C14.4164 10.6851 14.4044 10.5575 14.475 10.4686L15.1438 9.63804C15.7505 8.85689 16.8087 8.78523 17.6623 9.46604L18.643 10.2472C19.0451 10.5625 19.3132 10.9782 19.4049 11.4153C19.5107 11.8962 19.3978 12.3685 19.0804 12.777Z" fill="white"/>
</svg>
