<svg width="19" height="16" viewBox="0 0 19 16" fill="none" xmlns="http://www.w3.org/2000/svg">
<path d="M7.22331 9.97967C6.71298 9.47022 6.40234 8.77794 6.40234 8.00135C6.40234 6.4455 7.65555 5.19141 9.21051 5.19141C9.98 5.19141 10.6883 5.50293 11.1897 6.01238" stroke="#999999" stroke-width="1.5" stroke-linecap="round" stroke-linejoin="round"/>
<path d="M11.9665 8.49805C11.7606 9.64297 10.8589 10.5465 9.71484 10.7542" stroke="#999999" stroke-width="1.5" stroke-linecap="round" stroke-linejoin="round"/>
<path d="M4.46583 12.7362C3.05731 11.6303 1.86446 10.015 1 8.00121C1.87334 5.97851 3.07417 4.35432 4.49157 3.23958C5.90009 2.12483 7.52517 1.51953 9.20971 1.51953C10.904 1.51953 12.5282 2.13371 13.9456 3.25644" stroke="#999999" stroke-width="1.5" stroke-linecap="round" stroke-linejoin="round"/>
<path d="M15.8205 5.20898C16.4311 6.02019 16.9681 6.95654 17.4198 8.00117C15.6741 12.0457 12.589 14.482 9.21013 14.482C8.44419 14.482 7.6889 14.3577 6.96289 14.1154" stroke="#999999" stroke-width="1.5" stroke-linecap="round" stroke-linejoin="round"/>
<path d="M16.209 1L2.20898 15" stroke="#999999" stroke-width="1.5" stroke-linecap="round" stroke-linejoin="round"/>
</svg>
