<svg width="30" height="30" viewBox="0 0 30 30" fill="none" xmlns="http://www.w3.org/2000/svg">
<path opacity="0.4" d="M21.4992 30H8.49927C3.41534 30 0 26.4343 0 21.1264V8.87508C0 3.56717 3.41534 0 8.49927 0H21.5007C26.5847 0 30 3.56717 30 8.87508V21.1264C30 26.4343 26.5847 30 21.4992 30Z" fill="white"/>
<path fill-rule="evenodd" clip-rule="evenodd" d="M13.8674 10.0124C13.8674 12.0674 12.1949 13.7399 10.1399 13.7399C8.08335 13.7399 6.41235 12.0674 6.41235 10.0124C6.41235 7.95745 8.08335 6.28345 10.1399 6.28345C12.1949 6.28345 13.8674 7.95745 13.8674 10.0124ZM26.1007 18.1313C26.4502 18.4703 26.7007 18.8573 26.8657 19.2698C27.3652 20.5178 27.1057 22.0178 26.5717 23.2538C25.9387 24.7253 24.7267 25.8368 23.1997 26.3228C22.5217 26.5403 21.8107 26.6333 21.1012 26.6333H8.52974C7.27874 26.6333 6.17174 26.3423 5.26424 25.7963C4.69574 25.4543 4.59524 24.6668 5.01674 24.1538C5.72174 23.2988 6.41774 22.4408 7.11974 21.5753C8.45774 19.9193 9.35924 19.4393 10.3612 19.8608C10.7677 20.0348 11.1757 20.2973 11.5957 20.5733C12.7147 21.3143 14.2702 22.3313 16.3192 21.2273C17.7198 20.4614 18.5328 19.1509 19.2405 18.0102L19.2547 17.9873C19.3024 17.9109 19.3496 17.8346 19.3967 17.7585C19.6373 17.3697 19.8743 16.9868 20.1427 16.6343C20.4757 16.1978 21.7117 14.8328 23.3092 15.8048C24.3277 16.4168 25.1842 17.2448 26.1007 18.1313Z" fill="white"/>
</svg>
