<svg width="45" height="45" viewBox="0 0 45 45" fill="none" xmlns="http://www.w3.org/2000/svg">
<rect x="0.5" y="0.5" width="44" height="44" rx="9.5" fill="white" stroke="#F79722"/>
<path d="M12.0605 25.9585C12.0605 25.9585 12.2163 27.8647 12.2525 28.4658C12.3007 29.2719 12.6122 30.1724 13.1321 30.7975C13.8659 31.6837 14.7301 31.9963 15.884 31.9985C17.2407 32.0007 27.1063 32.0007 28.4631 31.9985C29.6169 31.9963 30.4812 31.6837 31.2149 30.7975C31.7348 30.1724 32.0463 29.2719 32.0956 28.4658C32.1307 27.8647 32.2865 25.9585 32.2865 25.9585" stroke="#F79722" stroke-width="2" stroke-linecap="round" stroke-linejoin="round"/>
<path d="M18.3027 14.8286V14.4217C18.3027 13.0836 19.3864 12 20.7245 12H23.5564C24.8934 12 25.9781 13.0836 25.9781 14.4217L25.9792 14.8286" stroke="#F79722" stroke-width="2" stroke-linecap="round" stroke-linejoin="round"/>
<path d="M22.1382 27.2759V25.8567" stroke="#F79722" stroke-width="2" stroke-linecap="round" stroke-linejoin="round"/>
<path fill-rule="evenodd" clip-rule="evenodd" d="M12 18.1843V21.9869C14.1036 23.3743 16.6241 24.3461 19.3902 24.7311C19.7214 23.5235 20.8105 22.6384 22.1344 22.6384C23.4373 22.6384 24.5484 23.5235 24.8577 24.742C27.6348 24.3571 30.1651 23.3853 32.2797 21.9869V18.1843C32.2797 16.3263 30.7848 14.8303 28.9268 14.8303H15.3639C13.5059 14.8303 12 16.3263 12 18.1843Z" stroke="#F79722" stroke-width="2" stroke-linecap="round" stroke-linejoin="round"/>
</svg>
