<svg width="45" height="45" viewBox="0 0 45 45" fill="none" xmlns="http://www.w3.org/2000/svg">
<rect width="45" height="45" rx="10" fill="#206AA9"/>
<path opacity="0.4" fill-rule="evenodd" clip-rule="evenodd" d="M19.0996 12.8302C19.0996 12.3715 18.7207 12 18.254 12H18.2529L16.4429 12.0011C14.0085 12.0033 12.0273 13.9481 12.0273 16.3364V18.4022C12.0273 18.8598 12.4062 19.2325 12.8729 19.2325C13.3396 19.2325 13.7196 18.8598 13.7196 18.4022V16.3364C13.7196 14.8623 14.9418 13.6627 16.444 13.6605L18.254 13.6594C18.7218 13.6594 19.0996 13.2879 19.0996 12.8302ZM27.9932 12.0003H26.2232C25.7565 12.0003 25.3776 12.3718 25.3776 12.8305C25.3776 13.2881 25.7565 13.6586 26.2232 13.6586H27.9932C29.5009 13.6586 30.7276 14.8614 30.7276 16.34V18.4025C30.7276 18.8601 31.1065 19.2327 31.5732 19.2327C32.0409 19.2327 32.4187 18.8601 32.4187 18.4025V16.34C32.4187 13.9462 30.4343 12.0003 27.9932 12.0003ZM19.1553 16.1585H25.2931C25.9653 16.1585 26.6109 16.4233 27.0809 16.8951C27.5542 17.3712 27.8164 18.0108 27.8153 18.6765V20.0602C27.8098 20.2226 27.6775 20.3544 27.512 20.3588H16.9342C16.7698 20.3533 16.6375 20.2215 16.6342 20.0602V18.6765C16.622 17.2982 17.7509 16.1727 19.1553 16.1585Z" fill="white"/>
<path d="M33.5989 22.0459H10.8467C10.38 22.0459 10 22.4174 10 22.8761C10 23.3338 10.38 23.7042 10.8467 23.7042H12.0256V27.6636C12.0256 30.052 14.0078 31.9968 16.4422 31.999L18.2522 32.0001C18.72 32.0001 19.0978 31.6285 19.0989 31.1698C19.0989 30.7122 18.72 30.3407 18.2533 30.3407L16.4444 30.3396C14.9411 30.3374 13.7178 29.1378 13.7178 27.6636V23.7042H16.6322V24.8057C16.6211 26.184 17.7489 27.3106 19.1533 27.3237H25.2911C26.6967 27.3106 27.8244 26.184 27.8133 24.8057V23.7042H30.7278V27.6593C30.7278 29.1389 29.5011 30.3407 27.9933 30.3407H26.2233C25.7556 30.3407 25.3767 30.7122 25.3767 31.1698C25.3767 31.6285 25.7556 32.0001 26.2233 32.0001H27.9933C30.4333 32.0001 32.4189 30.0541 32.4189 27.6593V23.7042H33.5989C34.0656 23.7042 34.4444 23.3338 34.4444 22.8761C34.4444 22.4174 34.0656 22.0459 33.5989 22.0459Z" fill="white"/>
</svg>
