<svg width="18" height="18" viewBox="0 0 18 18" fill="none" xmlns="http://www.w3.org/2000/svg">
<path opacity="0.4" d="M12.6675 0H15.7149C16.9769 0 17.9995 1.03127 17.9995 2.30397V5.37707C17.9995 6.64977 16.9769 7.68104 15.7149 7.68104H12.6675C11.4054 7.68104 10.3828 6.64977 10.3828 5.37707V2.30397C10.3828 1.03127 11.4054 0 12.6675 0Z" fill="#206AA9"/>
<path fill-rule="evenodd" clip-rule="evenodd" d="M2.28467 0H5.33204C6.59408 0 7.61671 1.03127 7.61671 2.30397V5.37707C7.61671 6.64977 6.59408 7.68104 5.33204 7.68104H2.28467C1.02263 7.68104 0 6.64977 0 5.37707V2.30397C0 1.03127 1.02263 0 2.28467 0ZM2.28467 10.319H5.33204C6.59408 10.319 7.61671 11.3503 7.61671 12.623V15.6961C7.61671 16.9679 6.59408 18.0001 5.33204 18.0001H2.28467C1.02263 18.0001 0 16.9679 0 15.6961V12.623C0 11.3503 1.02263 10.319 2.28467 10.319ZM15.7149 10.3191H12.6675C11.4054 10.3191 10.3828 11.3504 10.3828 12.6231V15.6962C10.3828 16.968 11.4054 18.0001 12.6675 18.0001H15.7149C16.9769 18.0001 17.9995 16.968 17.9995 15.6962V12.6231C17.9995 11.3504 16.9769 10.3191 15.7149 10.3191Z" fill="#206AA9"/>
</svg>
