<svg width="20" height="20" viewBox="0 0 20 20" fill="none" xmlns="http://www.w3.org/2000/svg">
<rect width="20" height="20" rx="1" fill="#E52D27"/>
<g clip-path="url(#clip0)">
<path d="M6.21776 14.6082C5.98894 14.6215 5.76389 14.5454 5.59009 14.396C5.24731 14.0512 5.24731 13.4943 5.59009 13.1495L13.0957 5.64383C13.4523 5.31022 14.0117 5.32877 14.3453 5.68529C14.647 6.00768 14.6646 6.50321 14.3865 6.84616L6.83659 14.396C6.66502 14.5433 6.44359 14.6192 6.21776 14.6082Z" fill="white"/>
<path d="M13.715 14.6082C13.4831 14.6072 13.2609 14.5151 13.0962 14.3518L5.59051 6.84607C5.27294 6.47523 5.31612 5.91714 5.68696 5.59955C6.01794 5.3161 6.50608 5.3161 6.83703 5.59955L14.3869 13.1052C14.7433 13.4389 14.7618 13.9984 14.4281 14.3548C14.4148 14.369 14.4011 14.3827 14.3869 14.396C14.202 14.5567 13.9587 14.6336 13.715 14.6082Z" fill="white"/>
</g>
<defs>
<clipPath id="clip0">
<rect width="9.33333" height="9.33333" fill="white" transform="translate(5.33301 5.33325)"/>
</clipPath>
</defs>
</svg>
