<svg width="18" height="18" viewBox="0 0 18 18" fill="none" xmlns="http://www.w3.org/2000/svg">
<path opacity="0.4" d="M0 4.0023C0 1.7964 1.82722 0 4.07208 0H8.53708C10.7774 0 12.6 1.791 12.6 3.9933V13.9977C12.6 16.2045 10.7728 18 8.527 18H4.06384C1.82264 18 0 16.209 0 14.0067V13.1607V4.0023Z" fill="#206AA9"/>
<path d="M17.7995 8.50931L15.2383 5.89121C14.9736 5.62121 14.5476 5.62121 14.2838 5.89301C14.0208 6.16481 14.0217 6.60311 14.2855 6.87311L15.6889 8.30681H14.3434H6.79211C6.41959 8.30681 6.11719 8.61731 6.11719 8.99981C6.11719 9.38321 6.41959 9.69281 6.79211 9.69281H15.6889L14.2855 11.1265C14.0217 11.3965 14.0208 11.8348 14.2838 12.1066C14.4161 12.2425 14.5888 12.3109 14.7624 12.3109C14.9342 12.3109 15.1068 12.2425 15.2383 12.1084L17.7995 9.49121C17.9266 9.36071 17.9985 9.18431 17.9985 8.99981C17.9985 8.81621 17.9266 8.63981 17.7995 8.50931" fill="#206AA9"/>
</svg>
