<svg width="552" height="219" viewBox="0 0 552 219" fill="none" xmlns="http://www.w3.org/2000/svg">
<rect width="552" height="219" fill="#88C8F7"/>
<mask id="mask0" mask-type="alpha" maskUnits="userSpaceOnUse" x="0" y="0" width="552" height="219">
<rect width="552" height="219" fill="#0D71BA"/>
</mask>
<g mask="url(#mask0)">
</g>
<g clip-path="url(#clip0)">
<g opacity="0.75">
<path opacity="0.75" d="M186.103 114.393L178.807 123.704L191.745 120.762L186.103 114.393Z" fill="white" fill-opacity="0.4"/>
<path opacity="0.75" d="M177.557 57.2385L175.421 63.4054L180.177 61.3498L177.557 57.2385Z" fill="white" fill-opacity="0.4" stroke="white" stroke-opacity="0.4" stroke-width="0.403066" stroke-miterlimit="10"/>
<path opacity="0.75" d="M274.898 111.451L273.568 100.326L280.581 105.566L274.898 111.451Z" fill="white" fill-opacity="0.4"/>
<path opacity="0.75" d="M232.858 136.441L230.803 141.197L236.002 140.955L232.858 136.441Z" fill="white" fill-opacity="0.4"/>
<path opacity="0.75" d="M188.118 152.08L179.976 158.65L178.364 149.581L188.118 152.08Z" fill="white" fill-opacity="0.4"/>
<path opacity="0.75" d="M142.733 116.005L142.975 119.835L146.36 118.948L142.733 116.005Z" fill="white" fill-opacity="0.4"/>
<path opacity="0.75" d="M272.439 17.4962L270.746 26.6861L276.873 27.3713L272.439 17.4962Z" fill="white" fill-opacity="0.4"/>
<path opacity="0.75" d="M225.482 31.1199V35.5133L231.246 34.8684L225.482 31.1199Z" fill="white" fill-opacity="0.4"/>
<path opacity="0.75" d="M129.109 21.2448L129.794 30.4347L135.236 27.6938L129.109 21.2448Z" fill="white" fill-opacity="0.4"/>
<path opacity="0.75" d="M13.147 24.4693L25.8435 28.0566L18.6287 34.1429L13.147 24.4693Z" fill="white" fill-opacity="0.4"/>
<path opacity="0.75" d="M63.369 71.0637L70.3421 70.7413L68.0446 75.4571L63.369 71.0637Z" fill="white" fill-opacity="0.4"/>
<path opacity="0.75" d="M86.9885 11.5309L89.8503 16.8514L93.0345 12.2967L86.9885 11.5309Z" fill="white" fill-opacity="0.4"/>
</g>
<path d="M108.23 26.1218L153.092 -47.7601L153.535 -48.1229H153.293L153.414 -48.3647L152.85 -48.1229L67.2788 -44.0116L66.9161 -44.6162L66.9564 -44.0116L-24.7008 -52.8388L-24.9023 -53V-52.9194L-25.0636 -53L-24.983 -52.6372L-43 41.5592L-39.6949 39.0199L-39.977 40.9143L-39.7352 40.874L36.5652 53.0869L36.6055 53.3691L70.6243 17.738L108.432 26.4443L108.23 26.1218ZM92.2689 -0.440228L69.939 -10.6378L82.9178 -16.4419L92.2689 -0.440228ZM83.2805 -16.6032L151.6 -47.0346L92.7526 -0.399918L83.2805 -16.6032ZM54.0583 5.08178L68.8508 -9.79135L70.3421 17.0528L54.0583 5.08178ZM68.7701 -10.7184L68.8105 -10.3153L53.7358 4.83994L28.5442 -13.7011L40.7974 -23.1731L68.7701 -10.7184ZM41.1601 -23.4553L66.9564 -43.407L68.7299 -11.1618L41.1601 -23.4553ZM28.2217 -13.9832L28.0202 -14.1445V-14.0638L-23.1289 -51.7102L40.4346 -23.3747L28.2217 -13.9832ZM27.859 -13.7011L27.7381 -13.7414L27.5365 -13.4592L13.0261 -2.21371L-23.8141 -51.6699L27.859 -13.7011ZM26.7707 -12.3307L16.6134 2.62308L13.268 -1.85095L26.7707 -12.3307ZM27.8187 -13.1368L28.1008 -13.3786L32.9376 24.4692L16.8956 2.90522L27.8187 -13.1368ZM69.4151 -10.8796L69.3747 -10.9199L69.1732 -11.0005L68.9314 -15.0312L67.3594 -43.004L82.6759 -16.845L69.4151 -10.8796ZM40.7571 -23.6568L-23.5722 -52.3148L66.6339 -43.6489L40.7571 -23.6568ZM-24.3381 -51.7102L12.7037 -1.97187L-8.0945 14.1105L-24.3381 -51.7102ZM-8.45726 14.3523L-39.1306 38.0929L-24.7411 -51.6296L-8.45726 14.3523ZM12.9455 -1.64942L16.3716 2.94553L-3.62047 32.2887L-8.01389 14.5538L12.9455 -1.64942ZM-3.49955 32.8127L16.6134 3.26798L32.8973 25.1544L-3.49955 32.8127ZM33.4213 25.0738L28.5442 -13.1771L53.4537 5.16239L33.7034 25.0335L33.4213 25.0738ZM53.7761 5.36393L70.1003 17.3753L34.3886 24.8723L53.7761 5.36393ZM69.2135 -10.1541L69.4554 -10.396L92.2689 0.00314713L70.7452 17.0931L69.2135 -10.1541ZM93.0347 -0.0774612L152.205 -47.0346L108.029 25.7188L93.075 0.0837593L93.1556 -0.0774612H93.0347ZM83.079 -16.9659L67.5207 -43.6086L151.923 -47.6392L83.079 -16.9659ZM-42.3954 40.5919L-27.1192 -39.3361L-39.6142 38.4153L-42.3954 40.5919ZM-8.33634 14.7957L-3.86231 32.8933L-39.4933 40.3903L-39.2112 38.6572L-8.33634 14.7957ZM-38.6469 40.5919L33.0585 25.5575L36.5249 52.6435L-38.6469 40.5919ZM33.5019 25.7994L33.905 25.3963L69.9793 17.8187L36.8876 52.442L33.5019 25.7994ZM71.0273 17.3753L92.672 0.204681L107.626 25.7994L71.0273 17.3753Z" fill="white" fill-opacity="0.4"/>
<path d="M70.6242 19.834C71.9598 19.834 73.0426 18.7512 73.0426 17.4156C73.0426 16.0799 71.9598 14.9972 70.6242 14.9972C69.2886 14.9972 68.2058 16.0799 68.2058 17.4156C68.2058 18.7512 69.2886 19.834 70.6242 19.834Z" fill="white" fill-opacity="0.4"/>
<path d="M53.6553 6.85524C54.6792 6.85524 55.5094 6.02513 55.5094 5.00113C55.5094 3.97714 54.6792 3.14703 53.6553 3.14703C52.6313 3.14703 51.8011 3.97714 51.8011 5.00113C51.8011 6.02513 52.6313 6.85524 53.6553 6.85524Z" fill="white" fill-opacity="0.4"/>
<path d="M36.0412 24.7514C36.0412 26.1218 34.9126 27.2504 33.5422 27.2504C32.1718 27.2504 31.0432 26.1218 31.0432 24.7514C31.0432 23.381 32.1718 22.2524 33.5422 22.2524C34.953 22.2524 36.0412 23.381 36.0412 24.7514Z" fill="white" fill-opacity="0.4"/>
<path d="M107.545 28.379C109.237 28.379 110.608 27.0075 110.608 25.3157C110.608 23.6239 109.237 22.2524 107.545 22.2524C105.853 22.2524 104.482 23.6239 104.482 25.3157C104.482 27.0075 105.853 28.379 107.545 28.379Z" fill="white" fill-opacity="0.4"/>
<path d="M36.1621 55.5053C37.5423 55.5053 38.6611 54.3864 38.6611 53.0063C38.6611 51.6261 37.5423 50.5073 36.1621 50.5073C34.7819 50.5073 33.6631 51.6261 33.6631 53.0063C33.6631 54.3864 34.7819 55.5053 36.1621 55.5053Z" fill="white" fill-opacity="0.4"/>
<path d="M667.349 209.195L666.986 209.034L579.279 116.53V116.45L579.158 116.409L579.077 116.329L579.037 116.369L526.074 93.9586L525.752 93.3943L525.711 94.0796L511.604 136.522L453.845 109.557L453.482 109.396L458.278 132.693L458.117 132.653L458.037 132.734C456.021 135.192 409.225 192.105 407.009 195.975L406.605 195.934L406.847 196.176C405.034 197.95 386.412 216.047 368.637 232.775L346.911 231.323L359.447 241.36C347.758 252.243 337.963 260.949 335.908 261.674L336.029 262.077L374.804 253.613L398.504 272.597L398.786 272.839L401.567 247.809L444.131 238.538L415.513 273.041L415.352 273.242L548.686 335.476L539.94 266.753L666.946 209.356L667.349 209.195ZM540.464 235.435L535.748 233.258L532.725 209.276L544.252 223.746L540.464 235.435ZM544.535 224.109L561.262 245.108L540.826 235.596L544.535 224.109ZM526.114 94.8051L547.154 131.444L524.301 142.246L526.114 94.8051ZM494.111 214.354L477.908 226.527L473.474 204.761L494.111 214.354ZM473.353 204.278L473.313 204.036L473.474 203.875L513.781 185.898L513.619 185.535L474.079 203.189L500.439 171.468H500.479L500.52 171.388L501.568 170.098L514.022 185.737L510.234 202.303L494.554 214.113L473.353 204.278ZM508.5 147.083L523.495 142.931L501.487 169.413L501.165 169.05L508.5 147.083ZM500.923 168.687L488.186 152.685L508.057 147.204L500.923 168.687ZM523.696 143.375L514.103 185.213L501.81 169.735L523.696 143.375ZM501.245 169.775L500.802 170.34L501.084 169.533L501.245 169.775ZM514.305 186.14L520.794 194.282L510.677 201.9L514.305 186.14ZM510.032 202.907L506.203 219.554L494.917 214.314L510.032 202.907ZM510.516 202.504L521.036 194.604L532.201 208.631L535.264 233.057L506.566 219.715L510.516 202.504ZM521.358 194.362L529.621 188.155L532.12 207.905L521.358 194.362ZM521.116 194.04L514.426 185.616L524.019 143.737L529.581 187.671L521.116 194.04ZM524.301 142.891L564.285 161.553L529.944 187.43L524.301 142.891ZM564.164 161.029L524.663 142.649L525.026 142.568L524.744 142.528L547.356 131.847L564.164 161.029ZM547.719 131.605L578.715 116.933L564.527 160.868L547.719 131.605ZM523.091 142.649L508.662 146.639L510.596 140.835L523.091 142.649ZM510.717 140.432L511.846 137.087L522.809 142.206L510.717 140.432ZM508.218 146.76L487.944 152.363L474.522 135.515L510.193 140.755L508.218 146.76ZM487.501 152.484L464.042 158.933L458.762 133.217L473.917 135.434L487.501 152.484ZM487.783 152.806L500.762 169.13L500.076 171.146L473.192 203.512L464.123 159.336L487.783 152.806ZM472.829 203.713L472.507 203.875L430.024 168.808L463.76 159.497L472.829 203.713ZM472.547 204.318L444.977 237.531L407.613 196.499L472.426 204.278L472.547 204.318ZM444.332 237.853L404.671 223.182L407.291 196.74L444.332 237.853ZM445.259 237.813L472.95 204.479L473.031 204.52L477.585 226.809L452.152 245.955L445.259 238.297L445.622 238.216L445.259 237.813ZM477.666 227.253L490.161 288.156L452.434 246.237L477.666 227.253ZM478.029 226.97L494.554 214.516L506.122 219.917L490.524 287.874L478.029 226.97ZM506.485 220.118L535.345 233.54L539.496 266.511L490.806 288.519L506.485 220.118ZM535.788 233.742L540.343 235.838L537.279 245.35L535.788 233.742ZM532.604 208.47L529.984 187.833L564.083 162.157L544.373 223.262L532.604 208.47ZM564.809 161.351L579.118 116.974L665.978 208.55L564.809 161.351ZM578.553 116.571L547.517 131.242L526.397 94.4826L578.553 116.571ZM525.671 95.5306L523.898 142.286L512.007 136.724L525.671 95.5306ZM510.314 140.352L474.119 135.031L454.409 110.283L511.443 136.885L510.314 140.352ZM454.127 110.565L473.555 134.991L458.682 132.814L454.127 110.565ZM458.278 133.137H458.359L463.68 159.054L429.54 168.486L429.338 168.526C439.173 156.394 450.338 142.77 458.278 133.137ZM471.418 203.472L417.609 183.117L417.448 183.48L470.814 203.673L407.371 196.055C408.54 194.161 418.012 182.351 429.177 168.606L471.418 203.472ZM406.847 196.781L404.227 223.141L369.161 232.895C386.13 216.934 403.703 199.804 406.847 196.781ZM404.187 223.544L401.164 247.527L374.844 253.25L360.051 241.4C362.873 238.78 365.815 236.039 368.758 233.218L404.187 223.544ZM348.161 231.888L368.234 233.218C365.372 235.918 362.51 238.619 359.769 241.158L348.161 231.888ZM337.198 261.473C340.704 259.095 349.531 251.235 359.769 241.682L374.36 253.371L337.198 261.473ZM398.423 272.114L375.247 253.573L401.124 247.93L398.423 272.114ZM404.59 223.585L443.808 238.256L401.607 247.446L404.59 223.585ZM548.162 334.831L415.957 273.121L444.776 238.458H444.856L490.363 289.002L490.403 289.204L490.483 289.163L490.645 289.325L490.725 289.042L539.577 266.914L548.162 334.831ZM539.899 266.31L537.36 246.277L540.665 235.999L562.592 246.197L544.655 223.665L564.648 161.795L564.688 161.754L666.381 209.195L539.899 266.31Z" fill="white" fill-opacity="0.4"/>
<path d="M472.789 207.059C474.392 207.059 475.691 205.76 475.691 204.157C475.691 202.554 474.392 201.255 472.789 201.255C471.186 201.255 469.887 202.554 469.887 204.157C469.887 205.76 471.186 207.059 472.789 207.059Z" fill="white" fill-opacity="0.4"/>
<path d="M516.602 185.293C516.602 186.624 515.514 187.712 514.184 187.712C512.854 187.712 511.765 186.624 511.765 185.293C511.765 183.963 512.854 182.875 514.184 182.875C515.514 182.875 516.602 183.963 516.602 185.293Z" fill="white" fill-opacity="0.4"/>
<path d="M503.543 169.775C503.543 171.025 502.535 171.992 501.326 171.992C500.117 171.992 499.109 170.985 499.109 169.775C499.109 168.526 500.117 167.558 501.326 167.558C502.535 167.558 503.543 168.566 503.543 169.775Z" fill="white" fill-opacity="0.4"/>
<path d="M489.395 152.403C489.395 153.33 488.629 154.096 487.702 154.096C486.775 154.096 486.009 153.33 486.009 152.403C486.009 151.476 486.775 150.71 487.702 150.71C488.629 150.71 489.395 151.476 489.395 152.403Z" fill="white" fill-opacity="0.4"/>
<path d="M527.276 142.891C527.547 141.221 526.413 139.647 524.743 139.376C523.073 139.105 521.5 140.239 521.229 141.909C520.958 143.579 522.092 145.153 523.762 145.424C525.432 145.695 527.005 144.561 527.276 142.891Z" fill="white" fill-opacity="0.4"/>
<path d="M547.517 134.225C548.853 134.225 549.936 133.142 549.936 131.807C549.936 130.471 548.853 129.388 547.517 129.388C546.182 129.388 545.099 130.471 545.099 131.807C545.099 133.142 546.182 134.225 547.517 134.225Z" fill="white" fill-opacity="0.4"/>
<path d="M528.613 94.6036C528.613 96.1352 527.364 97.425 525.792 97.425C524.22 97.425 522.97 96.1755 522.97 94.6036C522.97 93.0719 524.22 91.7821 525.792 91.7821C527.364 91.7821 528.613 93.0719 528.613 94.6036Z" fill="white" fill-opacity="0.4"/>
<path d="M465.372 159.336C465.372 160.182 464.687 160.827 463.881 160.827C463.075 160.827 462.39 160.142 462.39 159.336C462.39 158.49 463.075 157.845 463.881 157.845C464.687 157.845 465.372 158.49 465.372 159.336Z" fill="white" fill-opacity="0.4"/>
<path d="M453.603 112.056C454.983 112.056 456.102 110.937 456.102 109.557C456.102 108.177 454.983 107.058 453.603 107.058C452.223 107.058 451.104 108.177 451.104 109.557C451.104 110.937 452.223 112.056 453.603 112.056Z" fill="white" fill-opacity="0.4"/>
<path d="M431.676 168.163C431.676 169.372 430.709 170.34 429.5 170.34C428.29 170.34 427.323 169.372 427.323 168.163C427.323 166.954 428.29 165.987 429.5 165.987C430.709 165.987 431.676 166.954 431.676 168.163Z" fill="white" fill-opacity="0.4"/>
<path d="M409.346 196.096C409.346 197.305 408.379 198.272 407.17 198.272C405.961 198.272 404.993 197.305 404.993 196.096C404.993 194.886 405.961 193.919 407.17 193.919C408.379 193.919 409.346 194.886 409.346 196.096Z" fill="white" fill-opacity="0.4"/>
<path d="M418.697 184.205C418.012 184.89 416.924 184.89 416.279 184.205C415.594 183.52 415.594 182.432 416.279 181.787C416.964 181.142 418.052 181.101 418.697 181.787C419.383 182.432 419.383 183.52 418.697 184.205Z" fill="white" fill-opacity="0.4"/>
<path d="M504.994 87.7111L503.905 105.97L514.99 102.342L504.994 87.7111ZM505.316 88.9203L514.345 102.141L504.349 105.406L505.316 88.9203Z" fill="white" fill-opacity="0.4"/>
<path d="M467.67 107.985L479.318 105.809L472.748 98.5132L467.67 107.985ZM478.552 105.567L468.436 107.461L472.869 99.2387L478.552 105.567Z" fill="white" fill-opacity="0.4"/>
<path d="M437.52 93.7167L443.929 91.4596L437.883 86.9049L437.52 93.7167ZM438.286 87.6707L443.123 91.2983L437.964 93.1121L438.286 87.6707Z" fill="white" fill-opacity="0.4"/>
<path d="M333.207 98.8357L346.024 98.352L330.748 91.4596L333.207 98.8357ZM333.489 98.4326L331.393 92.1851L344.251 97.9893L333.489 98.4326Z" fill="white" fill-opacity="0.4"/>
<path d="M360.978 126.405L366.661 112.096L350.539 110.202L360.978 126.405ZM360.898 125.519L351.345 110.686L366.097 112.419L360.898 125.519Z" fill="white" fill-opacity="0.4"/>
<path d="M397.254 62.8822L391.813 68.8073L401.688 70.2986L397.254 62.8822ZM397.214 63.5674L400.922 69.7746L392.659 68.5251L397.214 63.5674Z" fill="white" fill-opacity="0.4"/>
<path d="M403.461 54.6999H407.371L405.88 50.105L403.461 54.6999ZM404.147 54.2969L405.799 51.153L406.807 54.2969H404.147Z" fill="white" fill-opacity="0.4"/>
<path d="M306 97.7877L313.336 95.5306L309.466 92.306L306 97.7877ZM312.489 95.3693L306.927 97.1025L309.547 92.9509L312.489 95.3693Z" fill="white" fill-opacity="0.4"/>
<path d="M376.819 74.7727L377.181 57.0781L369.12 57.9648L376.819 74.7727ZM376.416 73.0395L369.684 58.3276L376.738 57.5617L376.416 73.0395Z" fill="white" fill-opacity="0.4"/>
<path d="M388.79 205.084L402.292 213.185L395.924 193.516L388.79 205.084ZM389.354 204.963L395.843 194.443L401.607 212.299L389.354 204.963Z" fill="white" fill-opacity="0.4"/>
<path d="M428.895 158.57L443.002 159.699L434.739 151.597L428.895 158.57ZM441.954 159.215L429.741 158.248L434.78 152.202L441.954 159.215Z" fill="white" fill-opacity="0.4"/>
<g opacity="0.75">
<path opacity="0.75" d="M307.544 25.0085C307.544 25.5728 307.1 26.0162 306.536 26.0162C305.972 26.0162 305.528 25.5728 305.528 25.0085C305.528 24.4442 305.972 24.0009 306.536 24.0009C307.06 24.0009 307.544 24.4442 307.544 25.0085Z" fill="white" fill-opacity="0.4"/>
<path opacity="0.75" d="M326.246 50.8853C326.246 51.6512 325.641 52.2557 324.875 52.2557C324.11 52.2557 323.505 51.6512 323.505 50.8853C323.505 50.1195 324.11 49.5149 324.875 49.5149C325.641 49.5149 326.246 50.1598 326.246 50.8853Z" fill="white" fill-opacity="0.4"/>
<path opacity="0.75" d="M253.049 79.8255C253.049 80.3898 252.606 80.8331 252.041 80.8331C251.477 80.8331 251.034 80.3898 251.034 79.8255C251.034 79.2612 251.477 78.8178 252.041 78.8178C252.606 78.8178 253.049 79.2612 253.049 79.8255Z" fill="white" fill-opacity="0.4"/>
<path opacity="0.75" d="M284.045 88.3704C284.802 88.3704 285.415 87.7569 285.415 87C285.415 86.2431 284.802 85.6296 284.045 85.6296C283.288 85.6296 282.674 86.2431 282.674 87C282.674 87.7569 283.288 88.3704 284.045 88.3704Z" fill="white" fill-opacity="0.4"/>
<path opacity="0.75" d="M145.471 83.2515C145.471 83.8158 145.028 84.2591 144.463 84.2591C143.899 84.2591 143.456 83.8158 143.456 83.2515C143.456 82.6872 143.899 82.2438 144.463 82.2438C145.028 82.2035 145.471 82.6872 145.471 83.2515Z" fill="white" fill-opacity="0.4"/>
<path opacity="0.75" d="M181.545 153.707C181.545 154.272 181.102 154.715 180.538 154.715C179.973 154.715 179.53 154.272 179.53 153.707C179.53 153.143 179.973 152.7 180.538 152.7C181.102 152.7 181.545 153.143 181.545 153.707Z" fill="white" fill-opacity="0.4"/>
<path opacity="0.75" d="M194.484 101.631C195.418 101.631 196.176 100.873 196.176 99.9384C196.176 99.0035 195.418 98.2455 194.484 98.2455C193.549 98.2455 192.791 99.0035 192.791 99.9384C192.791 100.873 193.549 101.631 194.484 101.631Z" fill="white" fill-opacity="0.4"/>
<path opacity="0.75" d="M306.334 103.647C306.802 103.647 307.181 103.268 307.181 102.8C307.181 102.333 306.802 101.954 306.334 101.954C305.867 101.954 305.488 102.333 305.488 102.8C305.488 103.268 305.867 103.647 306.334 103.647Z" fill="white" fill-opacity="0.4"/>
<path opacity="0.75" d="M310.768 66.887C311.236 66.887 311.615 66.5081 311.615 66.0406C311.615 65.5731 311.236 65.1942 310.768 65.1942C310.301 65.1942 309.922 65.5731 309.922 66.0406C309.922 66.5081 310.301 66.887 310.768 66.887Z" fill="white" fill-opacity="0.4"/>
</g>
</g>
<defs>
<clipPath id="clip0">
<rect width="552" height="216" fill="white"/>
</clipPath>
</defs>
</svg>
