<svg width="13" height="18" viewBox="0 0 13 18" fill="none" xmlns="http://www.w3.org/2000/svg">
<path fill-rule="evenodd" clip-rule="evenodd" d="M3.17846 0.843094C5.14483 -0.299453 7.56183 -0.279483 9.50974 0.895405C11.4385 2.09422 12.6108 4.23376 12.5998 6.5353C12.555 8.82174 11.298 10.971 9.72672 12.6325C8.81985 13.5958 7.80535 14.4475 6.70396 15.1704C6.59053 15.236 6.46628 15.2799 6.33734 15.3C6.21324 15.2947 6.09239 15.258 5.98568 15.1933C4.30418 14.1071 2.829 12.7206 1.6311 11.1006C0.62873 9.74823 0.0592521 8.11441 1.04556e-06 6.42098C-0.00130021 4.11502 1.21209 1.98564 3.17846 0.843094ZM4.31425 7.37529C4.64502 8.19074 5.42576 8.72264 6.29194 8.72265C6.85939 8.72672 7.40487 8.49943 7.80683 8.09141C8.20879 7.6834 8.43383 7.12856 8.43182 6.55053C8.43485 5.66822 7.91541 4.87107 7.11604 4.53128C6.31666 4.1915 5.39504 4.3761 4.78149 4.9989C4.16793 5.6217 3.98348 6.55984 4.31425 7.37529Z" fill="#206AA9"/>
<ellipse opacity="0.4" cx="6.30078" cy="17.1" rx="4.5" ry="0.9" fill="#206AA9"/>
</svg>
