<svg width="35" height="35" viewBox="0 0 35 35" fill="none" xmlns="http://www.w3.org/2000/svg">
<rect opacity="0.1" width="35" height="35" rx="5" fill="#0D71BA"/>
<path fill-rule="evenodd" clip-rule="evenodd" d="M14.103 8H21.906C24.957 8 27 10.142 27 13.328V20.6819C27 23.8589 24.957 26 21.906 26H14.103C11.052 26 9 23.8589 9 20.6819V13.328C9 10.142 11.052 8 14.103 8ZM17.9909 14.3549C17.5679 14.3549 17.2169 14.003 17.2169 13.5719C17.2169 13.1309 17.5679 12.7799 18.0089 12.7799C18.4409 12.7799 18.7919 13.1309 18.7919 13.5719C18.7919 14.003 18.4409 14.3549 17.9909 14.3549ZM18.7831 20.4029C18.7831 20.8349 18.4321 21.1859 17.9911 21.1859C17.5591 21.1859 17.2081 20.8349 17.2081 20.4029V16.4249C17.2081 15.992 17.5591 15.6329 17.9911 15.6329C18.4321 15.6329 18.7831 15.992 18.7831 16.4249V20.4029Z" fill="#0D71BA"/>
</svg>
