<svg width="35" height="35" viewBox="0 0 35 35" fill="none" xmlns="http://www.w3.org/2000/svg">
<rect opacity="0.15" width="35" height="35" rx="5" fill="#F79722"/>
<path fill-rule="evenodd" clip-rule="evenodd" d="M16.3987 10.2911C15.829 10.2911 15.3442 10.6871 15.2082 11.2208H19.7834C19.6474 10.6871 19.1626 10.2911 18.5928 10.2911H16.3987ZM21.076 11.2207H22.7599C24.5458 11.2207 26 12.6926 26 14.5002C26 14.5002 25.949 15.2654 25.932 16.3311C25.9303 16.4154 25.8894 16.498 25.8223 16.548C25.4132 16.8501 25.039 17.0997 25.005 17.1169C23.5933 18.0638 21.9528 18.73 20.2052 19.0614C20.0912 19.0837 19.979 19.0244 19.9212 18.9228C19.4313 18.0741 18.5163 17.5215 17.4957 17.5215C16.482 17.5215 15.5585 18.0681 15.0542 18.9176C14.9955 19.0175 14.8849 19.0751 14.7718 19.0536C13.0387 18.7214 11.3982 18.056 9.995 17.1255L9.17859 16.5574C9.11056 16.5144 9.06803 16.4369 9.06803 16.3508C9.04252 15.9119 9 14.5002 9 14.5002C9 12.6926 10.4542 11.2207 12.2401 11.2207H13.9155C14.077 9.97265 15.1231 9 16.3987 9H18.5928C19.8684 9 20.9145 9.97265 21.076 11.2207ZM25.7105 18.193L25.6765 18.2102C23.9586 19.3636 21.8921 20.1297 19.7235 20.4481C19.4173 20.4912 19.1112 20.2932 19.0261 19.9833C18.839 19.2775 18.2352 18.8127 17.5124 18.8127H17.5039H17.4869C16.764 18.8127 16.1602 19.2775 15.9731 19.9833C15.8881 20.2932 15.5819 20.4912 15.2758 20.4481C13.1072 20.1297 11.0406 19.3636 9.32279 18.2102C9.31428 18.2016 9.22924 18.1499 9.16121 18.193C9.08467 18.236 9.08467 18.3393 9.08467 18.3393L9.1442 22.7291C9.1442 24.5367 10.5899 26 12.3758 26H22.6149C24.4008 26 25.8465 24.5367 25.8465 22.7291L25.9146 18.3393C25.9146 18.3393 25.9146 18.236 25.838 18.193C25.7955 18.1671 25.7445 18.1758 25.7105 18.193ZM18.1329 21.7995C18.1329 22.161 17.8522 22.4451 17.495 22.4451C17.1464 22.4451 16.8572 22.161 16.8572 21.7995V20.6891C16.8572 20.3362 17.1464 20.0436 17.495 20.0436C17.8522 20.0436 18.1329 20.3362 18.1329 20.6891V21.7995Z" fill="#F79722"/>
</svg>
