<svg width="35" height="35" viewBox="0 0 35 35" fill="none" xmlns="http://www.w3.org/2000/svg">
<rect opacity="0.1" width="35" height="35" rx="5" fill="#0D71BA"/>
<path d="M26.4918 8.52378C26.0417 8.06174 25.3754 7.8896 24.7541 8.0708L10.2672 12.2836C9.61173 12.4657 9.14714 12.9884 9.02199 13.6525C8.89413 14.3284 9.34072 15.1863 9.92416 15.5451L14.4539 18.3291C14.9185 18.6145 15.5181 18.5429 15.9026 18.1552L21.0896 12.9359C21.3507 12.6641 21.7829 12.6641 22.044 12.9359C22.3051 13.1986 22.3051 13.6244 22.044 13.8962L16.848 19.1164C16.4626 19.5033 16.3906 20.1057 16.6742 20.5732L19.442 25.1484C19.7661 25.692 20.3243 26 20.9366 26C21.0086 26 21.0896 26 21.1617 25.9909C21.8639 25.9003 22.4222 25.4202 22.6293 24.7407L26.924 10.2723C27.1131 9.65625 26.942 8.98583 26.4918 8.52378Z" fill="#0D71BA"/>
</svg>
