<svg width="35" height="35" viewBox="0 0 35 35" fill="none" xmlns="http://www.w3.org/2000/svg">
<rect opacity="0.15" width="35" height="35" rx="5" fill="#E82020"/>
<path fill-rule="evenodd" clip-rule="evenodd" d="M20.4773 9.44209L27.746 22.0572C27.906 22.4338 27.976 22.7399 27.996 23.058C28.036 23.8012 27.776 24.5236 27.2661 25.0795C26.7562 25.6334 26.0663 25.9604 25.3164 26H10.6789C10.369 25.9812 10.059 25.9108 9.76906 25.8018C8.3193 25.2172 7.61942 23.5723 8.20932 22.1464L15.5281 9.43317C15.778 8.98628 16.158 8.60082 16.6279 8.35309C17.9877 7.59902 19.7174 8.09447 20.4773 9.44209ZM18.8675 17.7557C18.8675 18.2314 18.4776 18.6287 17.9977 18.6287C17.5178 18.6287 17.1178 18.2314 17.1178 17.7557V14.9525C17.1178 14.4759 17.5178 14.0904 17.9977 14.0904C18.4776 14.0904 18.8675 14.4759 18.8675 14.9525V17.7557ZM17.9977 22.0176C17.5178 22.0176 17.1178 21.6202 17.1178 21.1456C17.1178 20.669 17.5178 20.2726 17.9977 20.2726C18.4776 20.2726 18.8675 20.6601 18.8675 21.1347C18.8675 21.6202 18.4776 22.0176 17.9977 22.0176Z" fill="#E82020"/>
</svg>
