<svg width="35" height="35" viewBox="0 0 35 35" fill="none" xmlns="http://www.w3.org/2000/svg">
<rect opacity="0.1" width="35" height="35" rx="5" fill="#0D71BA"/>
<path fill-rule="evenodd" clip-rule="evenodd" d="M14.4277 8C14.8477 8 15.1887 8.33438 15.1887 8.74722C15.1887 9.15907 14.8487 9.49345 14.4277 9.49345L12.7987 9.49444C11.4467 9.4964 10.3467 10.576 10.3467 11.9028V13.762C10.3467 14.1739 10.0047 14.5092 9.5847 14.5092C9.1647 14.5092 8.8237 14.1739 8.8237 13.762V11.9028C8.8237 9.75331 10.6067 8.00294 12.7977 8.00098L14.4267 8H14.4277ZM21.6006 8.00031H23.1936C25.3906 8.00031 27.1766 9.75166 27.1766 11.906V13.7623C27.1766 14.1742 26.8366 14.5095 26.4156 14.5095C25.9956 14.5095 25.6546 14.1742 25.6546 13.7623V11.906C25.6546 10.5754 24.5506 9.49278 23.1936 9.49278H21.6006C21.1806 9.49278 20.8396 9.15937 20.8396 8.74752C20.8396 8.33469 21.1806 8.00031 21.6006 8.00031ZM20.7625 11.7426H15.2385C13.9745 11.7554 12.9585 12.7684 12.9695 14.0088V15.2542C12.9725 15.3993 13.0915 15.518 13.2395 15.5229H22.7595C22.9085 15.5189 23.0275 15.4003 23.0325 15.2542V14.0088C23.0335 13.4097 22.7975 12.8341 22.3715 12.4055C21.9485 11.9809 21.3675 11.7426 20.7625 11.7426ZM7.762 17.0412H28.239C28.659 17.0412 29 17.3756 29 17.7884C29 18.2003 28.659 18.5337 28.239 18.5337H27.177V22.0933C27.177 24.2486 25.39 26 23.194 26H21.601C21.18 26 20.839 25.6656 20.839 25.2528C20.839 24.8409 21.18 24.5065 21.601 24.5065H23.194C24.551 24.5065 25.655 23.4249 25.655 22.0933V18.5337H23.032V19.5251C23.042 20.7655 22.027 21.7795 20.762 21.7913H15.238C13.974 21.7795 12.959 20.7655 12.969 19.5251V18.5337H10.346V22.0972C10.346 23.424 11.447 24.5036 12.8 24.5056L14.428 24.5065C14.848 24.5065 15.189 24.8409 15.189 25.2528C15.188 25.6656 14.848 26 14.427 26L12.798 25.999C10.607 25.9971 8.823 24.2467 8.823 22.0972V18.5337H7.762C7.342 18.5337 7 18.2003 7 17.7884C7 17.3756 7.342 17.0412 7.762 17.0412Z" fill="#0D71BA"/>
</svg>
