<svg width="20" height="22" viewBox="0 0 20 22" fill="none" xmlns="http://www.w3.org/2000/svg">
<path d="M18.3966 10.6099C17.593 9.67157 17.2279 8.8584 17.2279 7.47691V7.00718C17.2279 5.20692 16.8135 4.04699 15.9127 2.88707C14.5242 1.0857 12.1869 0 9.89869 0H9.8014C7.56132 0 5.29719 1.03584 3.88471 2.7641C2.93467 3.94729 2.47223 5.15706 2.47223 7.00718V7.47691C2.47223 8.8584 2.13113 9.67157 1.30354 10.6099C0.694599 11.3012 0.5 12.1897 0.5 13.1513C0.5 14.1141 0.81595 15.0258 1.45004 15.767C2.27763 16.6555 3.44632 17.2227 4.64015 17.3213C6.36858 17.5185 8.09701 17.5927 9.85059 17.5927C11.6031 17.5927 13.3315 17.4686 15.061 17.3213C16.2538 17.2227 17.4225 16.6555 18.2501 15.767C18.883 15.0258 19.2001 14.1141 19.2001 13.1513C19.2001 12.1897 19.0055 11.3012 18.3966 10.6099Z" fill="#206AA9"/>
<path opacity="0.4" d="M12.0582 18.9514C11.5083 18.8339 8.15752 18.8339 7.60761 18.9514C7.13751 19.0599 6.62915 19.3125 6.62915 19.8664C6.65648 20.3949 6.96587 20.8613 7.39443 21.1571L7.39333 21.1582C7.94761 21.5903 8.5981 21.865 9.2792 21.9636C9.64216 22.0135 10.0117 22.0112 10.3878 21.9636C11.0678 21.865 11.7182 21.5903 12.2725 21.1582L12.2714 21.1571C12.7 20.8613 13.0094 20.3949 13.0367 19.8664C13.0367 19.3125 12.5283 19.0599 12.0582 18.9514Z" fill="#206AA9"/>
</svg>
