<svg width="35" height="35" viewBox="0 0 35 35" fill="none" xmlns="http://www.w3.org/2000/svg">
<circle cx="17.5" cy="17.5" r="16.75" fill="white" stroke="#999999" stroke-width="1.5"/>
<path d="M13.3291 17.9893C13.3291 19.6436 12.9189 20.915 12.0986 21.8037C11.2783 22.6924 10.1025 23.1367 8.57129 23.1367C7.04004 23.1367 5.86426 22.6924 5.04395 21.8037C4.22363 20.915 3.81348 19.639 3.81348 17.9756C3.81348 16.3122 4.22363 15.043 5.04395 14.168C5.86882 13.2884 7.04915 12.8486 8.58496 12.8486C10.1208 12.8486 11.2943 13.2907 12.1055 14.1748C12.9212 15.0589 13.3291 16.3304 13.3291 17.9893ZM6.03516 17.9893C6.03516 19.1058 6.24707 19.9466 6.6709 20.5117C7.09473 21.0768 7.72819 21.3594 8.57129 21.3594C10.262 21.3594 11.1074 20.236 11.1074 17.9893C11.1074 15.738 10.2666 14.6123 8.58496 14.6123C7.74186 14.6123 7.10612 14.8971 6.67773 15.4668C6.24935 16.0319 6.03516 16.8727 6.03516 17.9893ZM19.2559 23H17.1367V14.7695H14.4229V13.0059H21.9697V14.7695H19.2559V23ZM25.627 17.709H26.3242C26.9759 17.709 27.4635 17.5814 27.7871 17.3262C28.1107 17.0664 28.2725 16.6904 28.2725 16.1982C28.2725 15.7015 28.1357 15.3346 27.8623 15.0977C27.5934 14.8607 27.1696 14.7422 26.5908 14.7422H25.627V17.709ZM30.4121 16.123C30.4121 17.1986 30.0749 18.0212 29.4004 18.5908C28.7305 19.1605 27.7757 19.4453 26.5361 19.4453H25.627V23H23.5078V13.0059H26.7002C27.9124 13.0059 28.833 13.2679 29.4619 13.792C30.0954 14.3115 30.4121 15.0885 30.4121 16.123Z" fill="#999999"/>
</svg>
