<svg width="22" height="18" viewBox="0 0 22 18" fill="none" xmlns="http://www.w3.org/2000/svg">
<path opacity="0.4" fill-rule="evenodd" clip-rule="evenodd" d="M8.18922 0.747218C8.18922 0.334385 7.84822 0 7.42822 0H7.42722L5.79822 0.0009806C3.60722 0.0029418 1.82422 1.75331 1.82422 3.90279V5.76201C1.82422 6.17386 2.16522 6.50923 2.58522 6.50923C3.00522 6.50923 3.34722 6.17386 3.34722 5.76201V3.90279C3.34722 2.57604 4.44722 1.4964 5.79922 1.49444L7.42822 1.49345C7.84922 1.49345 8.18922 1.15907 8.18922 0.747218ZM16.1941 0.00029418H14.6011C14.1811 0.00029418 13.8401 0.334679 13.8401 0.747512C13.8401 1.15936 14.1811 1.49277 14.6011 1.49277H16.1941C17.5511 1.49277 18.6551 2.57535 18.6551 3.90603V5.7623C18.6551 6.17415 18.9961 6.50952 19.4161 6.50952C19.8371 6.50952 20.1771 6.17415 20.1771 5.7623V3.90603C20.1771 1.75165 18.3911 0.00029418 16.1941 0.00029418ZM8.23902 3.74266H13.763C14.368 3.74266 14.949 3.98094 15.372 4.40554C15.798 4.83407 16.034 5.40968 16.033 6.00883V7.25419C16.028 7.4003 15.909 7.51895 15.76 7.52287H6.24002C6.09202 7.51797 5.97302 7.39932 5.97002 7.25419V6.00883C5.95902 4.76837 6.97502 3.75541 8.23902 3.74266Z" fill="#206AA9"/>
<path d="M21.239 9.04126H0.762C0.342 9.04126 0 9.37564 0 9.78848C0 10.2003 0.342 10.5337 0.762 10.5337H1.823V14.0972C1.823 16.2467 3.607 17.9971 5.798 17.999L7.427 18C7.848 18 8.188 17.6656 8.189 17.2528C8.189 16.841 7.848 16.5066 7.428 16.5066L5.8 16.5056C4.447 16.5036 3.346 15.424 3.346 14.0972V10.5337H5.969V11.5251C5.959 12.7656 6.974 13.7795 8.238 13.7913H13.762C15.027 13.7795 16.042 12.7656 16.032 11.5251V10.5337H18.655V14.0933C18.655 15.425 17.551 16.5066 16.194 16.5066H14.601C14.18 16.5066 13.839 16.841 13.839 17.2528C13.839 17.6656 14.18 18 14.601 18H16.194C18.39 18 20.177 16.2487 20.177 14.0933V10.5337H21.239C21.659 10.5337 22 10.2003 22 9.78848C22 9.37564 21.659 9.04126 21.239 9.04126Z" fill="#206AA9"/>
</svg>
