<svg width="30" height="30" viewBox="0 0 30 30" fill="none" xmlns="http://www.w3.org/2000/svg">
<path opacity="0.4" d="M21.4992 30H8.49927C3.41534 30 0 26.4343 0 21.1264V8.87508C0 3.56717 3.41534 0 8.49927 0H21.5007C26.5847 0 30 3.56717 30 8.87508V21.1264C30 26.4343 26.5847 30 21.4992 30Z" fill="white"/>
<path fill-rule="evenodd" clip-rule="evenodd" d="M13.8674 10.0122C13.8674 12.0672 12.1949 13.7397 10.1399 13.7397C8.08335 13.7397 6.41235 12.0672 6.41235 10.0122C6.41235 7.9572 8.08335 6.2832 10.1399 6.2832C12.1949 6.2832 13.8674 7.9572 13.8674 10.0122ZM26.1007 18.131C26.4502 18.47 26.7007 18.857 26.8657 19.2695C27.3652 20.5175 27.1057 22.0175 26.5717 23.2535C25.9387 24.725 24.7267 25.8365 23.1997 26.3225C22.5217 26.54 21.8107 26.633 21.1012 26.633H8.52974C7.27874 26.633 6.17174 26.342 5.26424 25.796C4.69574 25.454 4.59524 24.6665 5.01674 24.1535C5.72174 23.2985 6.41774 22.4405 7.11974 21.575C8.45774 19.919 9.35924 19.439 10.3612 19.8605C10.7677 20.0345 11.1757 20.297 11.5957 20.573C12.7147 21.314 14.2702 22.331 16.3192 21.227C17.7198 20.4612 18.5328 19.1507 19.2405 18.01L19.2547 17.987C19.3024 17.9107 19.3496 17.8344 19.3967 17.7583C19.6373 17.3695 19.8743 16.9865 20.1427 16.634C20.4757 16.1975 21.7117 14.8325 23.3092 15.8045C24.3277 16.4165 25.1842 17.2445 26.1007 18.131Z" fill="white"/>
</svg>
