<svg width="50" height="50" viewBox="0 0 50 50" fill="none" xmlns="http://www.w3.org/2000/svg">
<circle cx="25" cy="25" r="25" fill="url(#paint0_linear)"/>
<path fill-rule="evenodd" clip-rule="evenodd" d="M27.5812 19.4662C27.5812 23.0558 24.6438 25.9325 20.9783 25.9325C17.3142 25.9325 14.3755 23.0558 14.3755 19.4662C14.3755 15.8766 17.3142 13 20.9783 13C24.6438 13 27.5812 15.8766 27.5812 19.4662ZM11 33.2544C11 29.9315 15.5967 29.1001 20.9787 29.1001C26.3898 29.1001 30.9573 29.9601 30.9573 33.2856C30.9573 36.6085 26.3606 37.4399 20.9787 37.4399C15.5675 37.4399 11 36.5799 11 33.2544ZM30.2441 19.5826C30.2441 21.4106 29.6834 23.1162 28.7003 24.5331C28.598 24.6788 28.6883 24.8753 28.8664 24.9065C29.1135 24.9468 29.3672 24.9715 29.6263 24.9768C32.2037 25.0431 34.5166 23.4181 35.1557 20.9708C36.1029 17.3396 33.3236 14.0791 29.7831 14.0791C29.3991 14.0791 29.0311 14.1182 28.6724 14.1897C28.6232 14.2001 28.5701 14.2235 28.5435 14.2652C28.509 14.3185 28.5342 14.3875 28.5688 14.433C29.6329 15.8941 30.2441 17.6726 30.2441 19.5826ZM34.5123 27.5305C36.2447 27.8623 37.3832 28.5375 37.8549 29.5224C38.2548 30.3291 38.2548 31.2659 37.8549 32.0725C37.1335 33.5973 34.8059 34.0878 33.9011 34.214C33.7138 34.2401 33.5637 34.0839 33.5836 33.8992C34.0459 29.6734 30.3699 27.6697 29.4186 27.2092C29.3788 27.1871 29.3695 27.1558 29.3735 27.135C29.3761 27.122 29.3934 27.1012 29.424 27.0973C31.4819 27.0582 33.6952 27.3354 34.5123 27.5305Z" fill="white"/>
<defs>
<linearGradient id="paint0_linear" x1="21.25" y1="13.75" x2="37.5" y2="51.875" gradientUnits="userSpaceOnUse">
<stop stop-color="#47A4FF"/>
<stop offset="1" stop-color="#2987E1"/>
</linearGradient>
</defs>
</svg>
