<svg width="20" height="18" viewBox="0 0 20 18" fill="none" xmlns="http://www.w3.org/2000/svg">
<path d="M7.34933 11.8577C3.38553 11.8577 0 12.47 0 14.9173C0 17.3665 3.364 17.9999 7.34933 17.9999C11.3131 17.9999 14.6987 17.3876 14.6987 14.9403C14.6987 12.4911 11.3347 11.8577 7.34933 11.8577Z" fill="#555555"/>
<path opacity="0.4" d="M7.3474 9.52482C10.047 9.52482 12.2104 7.40617 12.2104 4.76241C12.2104 2.11865 10.047 0 7.3474 0C4.64876 0 2.48438 2.11865 2.48438 4.76241C2.48438 7.40617 4.64876 9.52482 7.3474 9.52482Z" fill="#555555"/>
<path opacity="0.4" d="M14.1747 4.84873C14.1747 6.19505 13.7618 7.45129 13.0378 8.4948C12.9624 8.60212 13.029 8.74682 13.1601 8.76981C13.3421 8.79952 13.529 8.81773 13.7198 8.82156C15.618 8.87043 17.3215 7.6736 17.7922 5.87116C18.4898 3.19674 16.4429 0.79541 13.8352 0.79541C13.5524 0.79541 13.2814 0.824157 13.0172 0.87686C12.981 0.884526 12.9419 0.901774 12.9223 0.932437C12.8969 0.971725 12.9154 1.02251 12.9409 1.05605C13.7246 2.13214 14.1747 3.44205 14.1747 4.84873Z" fill="#555555"/>
<path d="M19.7785 12.1693C19.4311 11.4439 18.5926 10.9465 17.3166 10.7022C16.7149 10.5585 15.0847 10.3544 13.5691 10.3831C13.5465 10.386 13.5338 10.4013 13.5319 10.4109C13.5289 10.4262 13.5358 10.4492 13.5651 10.4655C14.2657 10.8047 16.9732 12.2804 16.6327 15.3927C16.618 15.5288 16.7286 15.6438 16.8665 15.6246C17.5329 15.5317 19.2472 15.1704 19.7785 14.0474C20.073 13.4533 20.073 12.7634 19.7785 12.1693Z" fill="#555555"/>
</svg>
