<svg width="20" height="18" viewBox="0 0 20 18" fill="none" xmlns="http://www.w3.org/2000/svg">
<path opacity="0.4" d="M2.69804 18C2.68516 18 2.67327 18 2.6594 17.999C2.34729 17.9832 2.04112 17.9158 1.74982 17.7979C0.316078 17.2153 -0.375524 15.5774 0.206096 14.1447L7.45999 1.43623C7.70968 0.984408 8.08818 0.605909 8.54991 0.350274C9.9024 -0.398797 11.6126 0.0936477 12.3607 1.44515L19.567 14.0565C19.7275 14.434 19.7959 14.7411 19.8127 15.0543C19.8514 15.8033 19.5957 16.5217 19.0944 17.0775C18.593 17.6334 17.9044 17.9614 17.1563 17.999L2.76938 18H2.69804Z" fill="#555555"/>
<path fill-rule="evenodd" clip-rule="evenodd" d="M9.04102 6.95572C9.04102 6.47814 9.43041 6.08875 9.908 6.08875C10.3856 6.08875 10.775 6.47814 10.775 6.95572V9.7578C10.775 10.2364 10.3856 10.6248 9.908 10.6248C9.43041 10.6248 9.04102 10.2364 9.04102 9.7578V6.95572ZM9.04136 13.1477C9.04136 12.6671 9.43076 12.2757 9.90834 12.2757C10.3859 12.2757 10.7753 12.6621 10.7753 13.1368C10.7753 13.6252 10.3859 14.0146 9.90834 14.0146C9.43076 14.0146 9.04136 13.6252 9.04136 13.1477Z" fill="#555555"/>
</svg>
