<svg width="19" height="18" viewBox="0 0 19 18" fill="none" xmlns="http://www.w3.org/2000/svg">
<path opacity="0.4" d="M0 8.25366C0.0454589 10.3793 0.172744 14.0151 0.190927 14.4161C0.255479 15.2734 0.583692 16.1399 1.09465 16.7508C1.80563 17.6082 2.68117 17.991 3.90219 17.991C5.58963 18.0001 7.44981 18.0001 9.25634 18.0001C11.0702 18.0001 12.8303 18.0001 14.3168 17.991C15.5206 17.991 16.4234 17.5982 17.1253 16.7508C17.6362 16.1399 17.9645 15.2643 18.0108 14.4161C18.029 14.0788 18.1199 10.132 18.1745 8.25366H0Z" fill="#206AA9"/>
<path d="M8.40625 12.1682V13.3447C8.40625 13.7211 8.71173 14.0266 9.08813 14.0266C9.46453 14.0266 9.77002 13.7211 9.77002 13.3447V12.1682C9.77002 11.7918 9.46453 11.4863 9.08813 11.4863C8.71173 11.4863 8.40625 11.7918 8.40625 12.1682Z" fill="#206AA9"/>
<path fill-rule="evenodd" clip-rule="evenodd" d="M7.46526 11.4156C7.37434 11.7457 7.05704 11.9566 6.71337 11.9111C4.39406 11.5875 2.17748 10.7647 0.306393 9.5291C0.114556 9.40363 0 9.18906 0 8.95995V5.80874C0 3.89947 1.55651 2.34659 3.47033 2.34659H5.25869C5.42961 1.02646 6.5479 0 7.91349 0H10.261C11.6257 0 12.7449 1.02646 12.9158 2.34659H14.7132C16.6216 2.34659 18.1745 3.89947 18.1745 5.80874V8.95995C18.1745 9.18906 18.059 9.40272 17.869 9.5291C15.9943 10.7701 13.7686 11.5966 11.4338 11.9193C11.402 11.9239 11.3711 11.9257 11.3402 11.9257C11.032 11.9257 10.7565 11.7175 10.6792 11.412C10.4956 10.6883 9.83822 10.1819 9.08269 10.1819C8.31716 10.1819 7.6671 10.6774 7.46526 11.4156ZM10.2608 1.36377H7.91329C7.30141 1.36377 6.79045 1.78199 6.63771 2.34659H11.5355C11.3827 1.78199 10.8718 1.36377 10.2608 1.36377Z" fill="#206AA9"/>
</svg>
