<svg width="16" height="16" viewBox="0 0 16 16" fill="none" xmlns="http://www.w3.org/2000/svg">
<path d="M9.19074 8L15.7539 1.43686C16.082 1.1087 16.082 0.574275 15.7539 0.246118C15.4257 -0.0820393 14.8913 -0.0820393 14.5631 0.246118L8 6.80926L1.43686 0.246118C1.1087 -0.0820393 0.574275 -0.0820393 0.246118 0.246118C-0.0820393 0.574275 -0.0820393 1.1087 0.246118 1.43686L6.80926 8L0.246118 14.5631C-0.0820393 14.8913 -0.0820393 15.4257 0.246118 15.7539C0.574275 16.082 1.1087 16.082 1.43686 15.7539L8 9.19074L14.5631 15.7539C14.8913 16.082 15.4257 16.082 15.7539 15.7539C16.082 15.4257 16.082 14.8913 15.7539 14.5631L9.19074 8Z" fill="#666666"/>
</svg>
