<svg width="14" height="16" viewBox="0 0 14 16" fill="none" xmlns="http://www.w3.org/2000/svg">
<path fill-rule="evenodd" clip-rule="evenodd" d="M9.37907 0.221915C9.73277 0.0754069 10.1119 3.47533e-08 10.4947 0C10.8776 -6.95065e-08 11.2567 0.075407 11.6104 0.221915C11.9641 0.368424 12.2854 0.583165 12.5562 0.853876C12.8269 1.12459 13.0416 1.44597 13.1881 1.79967C13.3346 2.15338 13.41 2.53247 13.41 2.91532C13.41 3.29816 13.3346 3.67726 13.1881 4.03096C13.0419 4.38402 12.8277 4.70487 12.5576 4.97527C12.5571 4.97577 12.5566 4.97626 12.5562 4.97676L5.31832 12.3154C4.99028 12.6435 4.54536 12.8277 4.08144 12.8277C3.61753 12.8277 3.17262 12.6435 2.84458 12.3154C2.51654 11.9874 2.33225 11.5425 2.33225 11.0786C2.33225 10.6155 2.51584 10.1714 2.84271 9.84356L8.91292 3.67256C9.13873 3.443 9.5079 3.43996 9.73746 3.66577C9.96703 3.89159 9.97007 4.26076 9.74425 4.49032L3.66917 10.6663C3.55982 10.7756 3.49838 10.9239 3.49838 11.0786C3.49838 11.2332 3.55981 11.3815 3.66915 11.4908C3.7785 11.6002 3.92681 11.6616 4.08144 11.6616C4.23552 11.6616 4.38332 11.6006 4.49255 11.492C4.49294 11.4916 4.49334 11.4912 4.49373 11.4908L11.7316 4.15217C11.894 3.98974 12.0228 3.79693 12.1108 3.5847C12.1987 3.37248 12.2439 3.14502 12.2439 2.91532C12.2439 2.68561 12.1987 2.45815 12.1108 2.24593C12.0228 2.03371 11.894 1.84088 11.7316 1.67845C11.5691 1.51602 11.3763 1.38718 11.1641 1.29928C10.9519 1.21137 10.7244 1.16613 10.4947 1.16613C10.265 1.16613 10.0375 1.21137 9.82533 1.29928C9.61369 1.38694 9.42134 1.51532 9.25919 1.67711L2.02001 9.01713C1.47328 9.56386 1.16613 10.3054 1.16613 11.0786C1.16613 11.8517 1.47328 12.5933 2.02 13.14C2.56673 13.6867 3.30825 13.9939 4.08144 13.9939C4.85463 13.9939 5.59616 13.6867 6.14288 13.14L12.1234 7.16727C12.3513 6.93972 12.7204 6.93996 12.948 7.16781C13.1755 7.39565 13.1753 7.76483 12.9475 7.99238L6.96746 13.9646C6.20204 14.73 5.16391 15.16 4.08144 15.16C2.99898 15.16 1.96085 14.73 1.19543 13.9646C0.430008 13.1992 0 12.161 0 11.0786C0 9.99679 0.429454 8.9593 1.19395 8.19402L8.43326 0.853867C8.70397 0.583155 9.02537 0.368424 9.37907 0.221915Z" fill="#474747"/>
</svg>
