<svg width="24" height="23" viewBox="0 0 24 23" fill="none" xmlns="http://www.w3.org/2000/svg">
<path d="M12.9191 11.9244L3.71143 13.3212C3.60557 13.3373 3.50623 13.3784 3.4234 13.4405C3.34057 13.5026 3.27716 13.5834 3.23956 13.6749L0.0648026 21.4117C-0.23837 22.1234 0.579463 22.8018 1.33006 22.4604L23.3345 12.4516C23.4869 12.3823 23.6151 12.2758 23.7047 12.144C23.7943 12.0122 23.8418 11.8603 23.8418 11.7053C23.8418 11.5504 23.7943 11.3985 23.7047 11.2667C23.6151 11.1349 23.4869 11.0284 23.3345 10.9591L1.33006 0.95031C0.579463 0.608898 -0.23837 1.28839 0.0648026 1.99901L3.24078 9.73583C3.27821 9.82748 3.34154 9.90854 3.42438 9.97082C3.50723 10.0331 3.60666 10.0744 3.71265 10.0906L12.9203 11.4863C12.977 11.4953 13.0283 11.5222 13.0653 11.5623C13.1023 11.6024 13.1226 11.653 13.1226 11.7053C13.1226 11.7577 13.1023 11.8083 13.0653 11.8484C13.0283 11.8885 12.977 11.9154 12.9203 11.9244H12.9191Z" fill="#00BABA"/>
</svg>
