<svg width="18" height="16" viewBox="0 0 18 16" fill="none" xmlns="http://www.w3.org/2000/svg">
<path fill-rule="evenodd" clip-rule="evenodd" d="M0 1.37818C0 0.617033 0.617033 0 1.37818 0H16.5382C17.2993 0 17.9164 0.617033 17.9164 1.37818V13.7818C17.9164 14.543 17.2993 15.16 16.5382 15.16H1.37818C0.617033 15.16 0 14.543 0 13.7818V1.37818ZM16.5382 1.37818H1.37818V13.7818H16.5382V1.37818Z" fill="#474747"/>
<path fill-rule="evenodd" clip-rule="evenodd" d="M4.98531 5.90178C5.15252 5.83252 5.33173 5.79688 5.51271 5.79688C5.6937 5.79688 5.87291 5.83252 6.04012 5.90178C6.20733 5.97104 6.35926 6.07256 6.48724 6.20054L10.3364 10.0497L12.1182 8.26781C12.2462 8.13983 12.3981 8.03832 12.5653 7.96906C12.7325 7.8998 12.9117 7.86415 13.0927 7.86415C13.2737 7.86415 13.4529 7.89979 13.6201 7.96906C13.7873 8.03832 13.9393 8.13983 14.0672 8.26781L17.7145 11.9151C17.9836 12.1842 17.9836 12.6205 17.7145 12.8896C17.4454 13.1587 17.0091 13.1587 16.74 12.8896L13.0927 9.24233L11.3109 11.0242C11.1829 11.1521 11.031 11.2537 10.8638 11.3229C10.6965 11.3922 10.5173 11.4278 10.3364 11.4278C10.1554 11.4278 9.97615 11.3922 9.80894 11.3229C9.64174 11.2537 9.48981 11.1521 9.36183 11.0242L5.51271 7.17506L1.17635 11.5114C0.907245 11.7805 0.470937 11.7805 0.20183 11.5114C-0.0672767 11.2423 -0.0672767 10.806 0.20183 10.5369L4.53819 6.20054C4.66617 6.07256 4.8181 5.97104 4.98531 5.90178Z" fill="#474747"/>
<path d="M11.3696 6.20009C11.9404 6.20009 12.4032 5.73731 12.4032 5.16645C12.4032 4.59559 11.9404 4.13281 11.3696 4.13281C10.7987 4.13281 10.3359 4.59559 10.3359 5.16645C10.3359 5.73731 10.7987 6.20009 11.3696 6.20009Z" fill="#474747"/>
</svg>
